<?xml version="1.0" encoding="UTF-8"?>
<svg version="1.1" xmlns="http://www.w3.org/2000/svg" width="1038" height="1012">
<path d="M0 0 C1.41377341 2.63904371 2.37240135 5.07120629 3 8 C3.66 8 4.32 8 5 8 C7.04169485 10.90548882 8 12.40142046 8 16 C8.66 16 9.32 16 10 16 C10.67154933 17.28913487 11.33708859 18.58140204 12 19.875 C12.556875 20.95394531 12.556875 20.95394531 13.125 22.0546875 C14 24 14 24 14 26 C14.66 26 15.32 26 16 26 C16 26.99 16 27.98 16 29 C16.66 29.33 17.32 29.66 18 30 C19.03276339 31.44225558 20.00001778 32.9315689 20.9375 34.4375 C21.55496094 35.42621094 22.17242187 36.41492188 22.80859375 37.43359375 C25.87337481 42.40903627 28.91535313 47.39853141 31.95532227 52.38916016 C34.91778203 57.2480603 37.93301535 62.06672964 41.0078125 66.85546875 C43.79468408 71.25435429 46.51772801 75.6920603 49.25 80.125 C53.69037958 87.32302897 58.20879837 94.45980113 62.83276367 101.54101562 C67.07542252 108.06181281 71.14365833 114.68629505 75.21459961 121.31518555 C78.918239 127.32104226 82.73433007 133.23219419 86.75415039 139.03173828 C90.16794316 144.02164072 93.0499892 149.20934327 95 154.9375 C95.80859326 157.20474981 95.80859326 157.20474981 98.125 157.8125 C98.74375 157.874375 99.3625 157.93625 100 158 C100.103125 158.87011719 100.20625 159.74023438 100.3125 160.63671875 C101.03986946 164.19504321 102.2100869 166.66724405 104 169.8125 C104.804375 171.24529297 104.804375 171.24529297 105.625 172.70703125 C106.80612612 174.88705235 106.80612612 174.88705235 108 176 C108.41467529 175.1445459 108.82935059 174.2890918 109.2565918 173.40771484 C113.42745889 164.91977695 117.94037556 156.73694856 122.8125 148.625 C123.5219564 147.43641529 124.23118198 146.24769278 124.94018555 145.05883789 C129.42317493 137.55689282 133.9904944 130.11205645 138.65625 122.72265625 C142.66631003 116.37057214 146.57357499 109.95620725 150.46142578 103.52880859 C152.16719107 100.72520388 153.89492655 97.93561573 155.62109375 95.14453125 C156.83150811 93.15932889 158.04115516 91.17365847 159.25 89.1875 C159.83563721 88.25019043 160.42127441 87.31288086 161.0246582 86.34716797 C161.55792725 85.46303223 162.09119629 84.57889648 162.640625 83.66796875 C163.12047852 82.88703857 163.60033203 82.1061084 164.09472656 81.30151367 C165.20939244 78.46765303 164.84403853 76.87870607 164 74 C164.76634766 73.93288818 165.53269531 73.86577637 166.32226562 73.79663086 C169.12884315 73.25061183 169.12884315 73.25061183 170.53710938 70.95532227 C170.96830078 70.06385498 171.39949219 69.1723877 171.84375 68.25390625 C172.34777344 67.25633301 172.85179687 66.25875977 173.37109375 65.23095703 C173.90863281 64.16474121 174.44617188 63.09852539 175 62 C176.20408226 59.85498147 177.4232248 57.71835671 178.65625 55.58984375 C179.28660156 54.49736328 179.91695312 53.40488281 180.56640625 52.27929688 C181.20449219 51.17650391 181.84257813 50.07371094 182.5 48.9375 C183.13808594 47.83083984 183.77617188 46.72417969 184.43359375 45.58398438 C185.06394531 44.49279297 185.69429687 43.40160156 186.34375 42.27734375 C186.95347656 41.22144043 187.56320312 40.16553711 188.19140625 39.07763672 C190.40304791 35.31414391 192.7078659 31.61228247 195.04882812 27.92797852 C195.36271484 27.29174561 195.67660156 26.6555127 196 26 C195.67 25.34 195.34 24.68 195 24 C195.99 23.67 196.98 23.34 198 23 C199.60728439 20.58616167 201.07341808 18.20402817 202.5 15.6875 C207.29261863 7.37554921 207.29261863 7.37554921 210 4 C213.85257799 5.28419266 214.08041628 6.47355998 215.93359375 10.01171875 C216.49457764 11.07003906 217.05556152 12.12835938 217.63354492 13.21875 C218.2288501 14.3634375 218.82415527 15.508125 219.4375 16.6875 C220.37440914 18.45605861 221.31132939 20.22461163 222.24934387 21.99258423 C223.20891095 23.80389048 224.16455148 25.6172183 225.11914062 27.43115234 C227.94749097 32.80243487 230.80806469 38.15594424 233.6875 43.5 C234.17984131 44.43030029 234.67218262 45.36060059 235.17944336 46.3190918 C235.86985718 47.59973511 235.86985718 47.59973511 236.57421875 48.90625 C236.97213623 49.65197266 237.37005371 50.39769531 237.7800293 51.16601562 C239.0273683 53.29669947 239.0273683 53.29669947 242 55 C242 55.99 242 56.98 242 58 C242.93131944 60.12562685 242.93131944 60.12562685 244.23828125 62.40234375 C244.9667627 63.72431763 244.9667627 63.72431763 245.70996094 65.07299805 C246.23879883 66.01828369 246.76763672 66.96356934 247.3125 67.9375 C247.8477832 68.90792236 248.38306641 69.87834473 248.93457031 70.87817383 C251.68590081 75.86183017 254.46440513 80.83012025 257.24609375 85.796875 C258.00442505 87.15824585 258.00442505 87.15824585 258.77807617 88.54711914 C259.74489802 90.28143301 260.71754718 92.01251363 261.6965332 93.73999023 C262.34948364 94.9109021 262.34948364 94.9109021 263.015625 96.10546875 C263.40008789 96.78762451 263.78455078 97.46978027 264.18066406 98.17260742 C265 100 265 100 265 103 C265.66 103 266.32 103 267 103 C267.36996094 103.91394531 267.73992187 104.82789063 268.12109375 105.76953125 C270.46094807 111.22827536 273.2934036 116.43782384 276.0625 121.6875 C277.1369648 123.73294369 278.21119318 125.77851159 279.28515625 127.82421875 C279.75832275 128.72229248 280.23148926 129.62036621 280.71899414 130.5456543 C281.52990592 132.09932233 282.30958918 133.67004099 283.04467773 135.26098633 C283.88365874 137.17874737 283.88365874 137.17874737 286 138 C287.16920875 140.19111562 288.25241538 142.38143898 289.3125 144.625 C292.67652018 151.5547392 296.35432492 158.25713336 300.1875 164.9375 C304.88019354 173.13568624 309.3628667 181.41434528 313.6875 189.8125 C319.64362614 201.37684564 325.89105922 212.74512118 332.30078125 224.0625 C337.70767527 233.61943759 342.92691593 243.26139464 348 253 C348.62068359 254.13695312 348.62068359 254.13695312 349.25390625 255.296875 C350 257 350 257 350 260 C350.66 260 351.32 260 352 260 C352.43828125 260.97195313 352.8765625 261.94390625 353.328125 262.9453125 C359.66423318 276.79765036 366.99823825 290.05953197 374.4296875 303.34765625 C375.20330371 304.73167095 375.97674129 306.11578552 376.75 307.5 C377.13913574 308.19601318 377.52827148 308.89202637 377.92919922 309.60913086 C382.4159322 317.67731691 386.7266332 325.83985629 391.05841064 333.99182129 C395.38776687 342.13680052 399.7597974 350.2521559 404.2734375 358.296875 C408.54685769 365.93205241 412.6692854 373.64804722 416.80004883 381.36108398 C419.51857784 386.42816469 422.25280171 391.4820117 425.08203125 396.48828125 C425.7790918 397.72288086 425.7790918 397.72288086 426.49023438 398.98242188 C427.34344456 400.48593701 428.20241269 401.98620607 429.06835938 403.48242188 C431.04499497 406.96441974 432.52776569 409.99762071 433 414 C433.66 414 434.32 414 435 414 C435.185625 415.4540625 435.185625 415.4540625 435.375 416.9375 C435.58125 417.948125 435.7875 418.95875 436 420 C436.66 420.33 437.32 420.66 438 421 C439.28592275 423.27509409 440.47504283 425.53301405 441.625 427.875 C442.11226562 428.83212891 442.11226562 428.83212891 442.609375 429.80859375 C444.05782082 432.7237431 445 434.70246267 445 438 C435.61557183 438.78191774 426.25076982 439.27172339 416.83203125 439.01171875 C415.64753891 439.0129348 415.64753891 439.0129348 414.43911743 439.01417542 C410.0185258 438.82525239 407.60938874 438.12238989 404.46362305 434.91772461 C402.33066194 432.2965402 400.94984112 429.97001015 400.0625 426.6796875 C397.86426582 420.01508498 394.19391974 414.34169747 390.50769043 408.42825317 C388.51587374 405.2147679 386.58154955 401.96703488 384.640625 398.72265625 C383.86160906 397.42577522 383.08231326 396.12906225 382.30273438 394.83251953 C378.71936322 388.86948924 375.14120327 382.90333237 371.5625 376.9375 C370.35549181 374.92576742 369.14846239 372.91404757 367.94140625 370.90234375 C366.9609375 369.26822917 365.98046875 367.63411458 365 366 C364.4443335 365.13576416 363.88866699 364.27152832 363.31616211 363.38110352 C362 361 362 361 362 358 C361.236875 357.71125 360.47375 357.4225 359.6875 357.125 C357 356 357 356 354 354 C356 353 356 353 358 353 C357.67 351.68 357.34 350.36 357 349 C356.34 349 355.68 349 355 349 C354.48953125 347.92685547 354.48953125 347.92685547 353.96875 346.83203125 C351.12687853 340.98956677 348.11580999 335.30435846 344.75 329.75 C343.75226563 328.10257813 343.75226563 328.10257813 342.734375 326.421875 C342.16203125 325.62265625 341.5896875 324.8234375 341 324 C340.34 324 339.68 324 339 324 C338.87625 323.05125 338.7525 322.1025 338.625 321.125 C338.28312823 317.91332809 338.28312823 317.91332809 336 316 C335.01137549 314.24589765 334.05721009 312.47222346 333.125 310.6875 C331.04252342 306.79816874 328.9613552 303.30305003 326 300 C324.68 300.33 323.36 300.66 322 301 C322.2475 299.83339844 322.495 298.66679688 322.75 297.46484375 C323.33801599 292.60625507 321.62572965 289.53847757 319 285.5625 C318.07365512 284.07717428 317.14791285 282.59147264 316.22265625 281.10546875 C315.70977051 280.29770996 315.19688477 279.48995117 314.66845703 278.65771484 C312.17681703 274.68873723 309.78484887 270.66171251 307.38427734 266.63720703 C305.45388117 263.40244986 303.5111951 260.17533855 301.56640625 256.94921875 C299.42134347 253.38392185 297.29756044 249.80908783 295.21484375 246.20703125 C294.81144775 245.51496582 294.40805176 244.82290039 293.99243164 244.10986328 C292.96456742 242.34158649 291.9466456 240.56754022 290.9296875 238.79296875 C288.88899955 235.83934145 286.99022736 233.97449933 284 232 C278.06056022 231.65734001 274.87987849 234.28073679 270.5390625 237.890625 C267.66269633 240.28022151 264.68808653 242.52075716 261.6875 244.75 C260.70136719 245.48734375 259.71523438 246.2246875 258.69921875 246.984375 C257.36310547 247.98210937 257.36310547 247.98210937 256 249 C255.32582031 249.60328125 254.65164063 250.2065625 253.95703125 250.828125 C252 252 252 252 249.46484375 252.01953125 C246.0670866 250.61411981 245.29897075 248.89809699 243.5625 245.6875 C242.964375 244.59308594 242.36625 243.49867188 241.75 242.37109375 C239.65455215 238.33455024 237.57454975 234.29560291 235.57421875 230.2109375 C234.1892985 227.38611256 232.76907186 224.58173864 231.34057617 221.77880859 C227.29914617 213.81039617 223.50288724 205.73283585 219.75 197.625 C219.24259277 196.53171387 218.73518555 195.43842773 218.21240234 194.31201172 C215.2808797 187.94439977 212.52380687 181.54028616 210 175 C207.33241818 178.47260563 205.1742418 182.10964107 203.0625 185.9375 C202.2611659 187.3767195 201.45904139 188.81549911 200.65625 190.25390625 C200.22828125 191.02105957 199.8003125 191.78821289 199.359375 192.57861328 C196.95559187 196.86035198 194.50609756 201.11590169 192.0625 205.375 C188.25740729 212.01222393 184.50516278 218.67462719 180.8125 225.375 C177.57464318 231.23996495 174.23206491 237.02030588 170.75195312 242.74438477 C166.17576742 250.30163425 161.80095145 257.97656669 157.40356445 265.63867188 C154.14668221 271.30699453 150.85382411 276.94788311 147.47631836 282.54516602 C144.8278674 286.94903147 142.2320901 291.38407157 139.625 295.8125 C135.56983789 302.69139583 131.4630161 309.52492172 127.23828125 316.30078125 C125.28052724 319.49352746 123.41186161 322.73502309 121.54296875 325.98046875 C120.91962646 327.06086426 120.29628418 328.14125977 119.65405273 329.25439453 C118.40450922 331.42535423 117.16034337 333.59941988 115.92211914 335.77685547 C115.05574829 337.28143311 115.05574829 337.28143311 114.171875 338.81640625 C113.3998877 340.16907593 113.3998877 340.16907593 112.61230469 341.54907227 C110.97082629 344.0443481 109.18173809 345.97051057 107 348 C102.9578295 343.38864559 100.15896049 338.2016007 97.1875 332.875 C93.35082887 326.06121738 89.462658 319.36211088 85.109375 312.86328125 C84 311 84 311 84 309 C83.01 308.67 82.02 308.34 81 308 C80.65657551 306.66923011 80.32380126 305.33568021 80 304 C79.01 303.34 78.02 302.68 77 302 C77 301.01 77 300.02 77 299 C75.91279812 296.67982206 75.91279812 296.67982206 74.5 294.3125 C74.0359375 293.50425781 73.571875 292.69601562 73.09375 291.86328125 C72.7328125 291.24839844 72.371875 290.63351562 72 290 C71.34 290 70.68 290 70 290 C69.67 288.35 69.34 286.7 69 285 C68.01 285 67.02 285 66 285 C66.33 284.01 66.66 283.02 67 282 C65.6794974 279.2255616 65.6794974 279.2255616 63.75 276.375 C63.12609375 275.39273437 62.5021875 274.41046875 61.859375 273.3984375 C60.15692075 270.74340994 60.15692075 270.74340994 57 270 C56.92136719 268.9996875 56.84273438 267.999375 56.76171875 266.96875 C56.11264287 262.5090066 54.17376613 259.27839317 51.8125 255.5 C51.37760254 254.78295898 50.94270508 254.06591797 50.49462891 253.32714844 C49.53265521 251.74425532 48.56525788 250.16464916 47.59326172 248.58789062 C45.8837438 245.81116829 44.19250198 243.02386665 42.50390625 240.234375 C38.175187 233.09093644 33.83765715 225.95277948 29.43359375 218.85546875 C29.0670166 218.26411133 28.70043945 217.67275391 28.32275391 217.06347656 C27.40160528 215.58091256 26.4764084 214.10086576 25.55078125 212.62109375 C21 204.92947103 21 204.92947103 21 202 C19.68 201.67 18.36 201.34 17 201 C17 199 17 197 17 195 C16.34 194.67 15.68 194.34 15 194 C13.95191959 192.02477154 12.9479589 190.02518491 12 188 C10.68 188.33 9.36 188.66 8 189 C8 186.66666667 8 184.33333333 8 182 C7.01 181.67 6.02 181.34 5 181 C5.33 180.01 5.66 179.02 6 178 C4.62750037 175.32323453 4.62750037 175.32323453 3 173 C2.14657991 174.70684019 1.29833667 176.41626717 0.45117188 178.1262207 C-4.0564747 187.20305935 -8.67415887 196.21404958 -13.42724609 205.16479492 C-14.50419057 207.19540142 -15.5744086 209.22946379 -16.64453125 211.26367188 C-20.57716843 218.70045323 -24.70983566 225.92176658 -29.17431641 233.05493164 C-31.72770239 237.17387991 -34.09992575 241.38094627 -36.4375 245.625 C-36.86998047 246.39972656 -37.30246094 247.17445313 -37.74804688 247.97265625 C-39.41473595 250.98260804 -40.90869459 253.72608377 -42 257 C-50.42813102 255.48526678 -56.23077451 251.32298949 -62.8984375 246.27734375 C-65.25989221 244.54342927 -67.33523531 243.16173239 -70 242 C-70.66 242.99 -71.32 243.98 -72 245 C-72.33 243.35 -72.66 241.7 -73 240 C-81.75311773 242.75097986 -85.15798743 250.24208322 -89.4375 257.75 C-93.0276792 263.99158363 -96.67130042 270.12663223 -100.7121582 276.08837891 C-102.19022145 278.28235714 -103.56895903 280.51198993 -104.875 282.8125 C-105.28492188 283.52019531 -105.69484375 284.22789062 -106.1171875 284.95703125 C-107.26444757 287.24104856 -107.26444757 287.24104856 -107 291 C-107.99 291.33 -108.98 291.66 -110 292 C-111.70248431 294.52374026 -111.70248431 294.52374026 -113.375 297.75 C-116.80124673 303.98645626 -120.46861424 310.03541018 -124.25 316.0625 C-130.32145203 325.78406694 -136.05051279 335.67517586 -141.67919922 345.65820312 C-143.56792963 349.00694659 -145.46951969 352.34826647 -147.375 355.6875 C-147.99503906 356.77546875 -148.61507812 357.8634375 -149.25390625 358.984375 C-150.90053396 361.82821525 -152.596637 364.6350636 -154.3125 367.4375 C-156.59078036 371.1954244 -158.38364183 374.91656884 -160 379 C-160.33 379.66 -160.66 380.32 -161 381 C-161.99 381.33 -162.98 381.66 -164 382 C-164.12375 382.721875 -164.2475 383.44375 -164.375 384.1875 C-165.22340449 388.0053202 -165.95910185 391.00161858 -168.83496094 393.76000977 C-171.37851887 396.39162276 -173.00089767 399.10636406 -174.828125 402.27734375 C-175.18082458 402.88453751 -175.53352417 403.49173126 -175.89691162 404.11732483 C-177.02052273 406.05403155 -178.13563282 407.99546236 -179.25 409.9375 C-179.98245716 411.20673575 -180.71552537 412.47561908 -181.44921875 413.74414062 C-181.80983398 414.36956253 -182.17044922 414.99498444 -182.54199219 415.63935852 C-183.27546921 416.89982859 -184.01771758 418.15523452 -184.76855469 419.40544128 C-186.60808538 422.48296509 -188.25702441 425.50297048 -189.64453125 428.81176758 C-191.43932596 432.62700767 -192.85587098 435.17557913 -196 438 C-202.24362166 440.05026509 -209.05117262 439.22013689 -215.5 438.8125 C-217.29406151 438.74722311 -219.08835089 438.68791911 -220.8828125 438.63476562 C-225.26086991 438.49212299 -229.6279195 438.26833295 -234 438 C-227.06330982 416.64175813 -213.61277584 396.15032595 -202.6328125 376.58544922 C-198.80731801 369.73143827 -195.2057555 362.76482935 -191.59423828 355.79638672 C-188.19918089 349.25995666 -184.72882756 342.77077251 -181.1875 336.3125 C-176.83341025 328.36791628 -172.50557092 320.40984291 -168.21914673 312.42855835 C-167.28991861 310.69928755 -166.35827011 308.97131802 -165.42651367 307.2434082 C-161.89676962 300.66307742 -158.49232045 294.03302882 -155.17204285 287.34567261 C-152.52965723 282.03278879 -149.82537963 276.75390221 -147.09765625 271.484375 C-146.68468292 270.68538788 -146.27170959 269.88640076 -145.84622192 269.0632019 C-144.15121204 265.78447836 -142.45540133 262.50619399 -140.75366211 259.23095703 C-139.48953603 256.79653691 -138.23067035 254.35945785 -136.97265625 251.921875 C-136.58731216 251.18338318 -136.20196808 250.44489136 -135.8049469 249.684021 C-133.8245063 245.89974906 -133.8245063 245.89974906 -132.48045349 241.86456299 C-131.87133802 239.5006835 -130.71734558 238.7046245 -129 237 C-127.73492536 234.43622748 -126.66541569 231.82153273 -125.57421875 229.1796875 C-124.29680966 226.59951133 -123.00263935 224.48938948 -121.37109375 222.14453125 C-117.23527729 216.06658557 -113.93574254 209.55995475 -110.54193115 203.05041504 C-108.54852192 199.22749841 -106.5387779 195.41317182 -104.53125 191.59765625 C-104.13606171 190.84551849 -103.74087341 190.09338074 -103.33370972 189.31845093 C-100.23716052 183.43104345 -97.07931429 177.57950176 -93.875 171.75 C-89.41951716 163.62478654 -85.00653887 155.47758999 -80.63214111 147.30847168 C-79.93168533 146.0014072 -79.23002957 144.69498492 -78.52703857 143.38928223 C-75.28803777 137.37089106 -72.10329534 131.3611825 -69.33984375 125.10546875 C-67.62067675 121.22779992 -65.6772257 117.73941276 -63.36669922 114.19042969 C-60.68722291 109.89599214 -58.38291352 105.38559856 -56.01226807 100.91564941 C-55.03933589 99.08132744 -54.06286777 97.24892717 -53.08544922 95.41699219 C-51.7276949 92.87194181 -50.37100213 90.3263306 -49.01513672 87.78027344 C-34.6317639 60.78410829 -34.6317639 60.78410829 -27.54589844 48.33959961 C-22.40996573 39.26462778 -17.5575903 30.03091823 -12.6484375 20.83203125 C-11.74883301 19.15101318 -11.74883301 19.15101318 -10.83105469 17.43603516 C-9.56200996 15.05463042 -8.30215006 12.66991641 -7.05175781 10.27880859 C-6.42254188 9.08560363 -5.79331065 7.89240673 -5.1640625 6.69921875 C-4.32415771 5.09373169 -4.32415771 5.09373169 -3.46728516 3.45581055 C-2 1 -2 1 0 0 Z M166 75 C166.33 75.66 166.66 76.32 167 77 C167.33 76.34 167.66 75.68 168 75 C167.34 75 166.68 75 166 75 Z " fill="#020202" transform="translate(418,284)"/>
<path d="M0 0 C1.32 0.33 2.64 0.66 4 1 C4 1.66 4 2.32 4 3 C4.66 3 5.32 3 6 3 C6.26554687 3.71027344 6.53109375 4.42054688 6.8046875 5.15234375 C7.15789062 6.07144531 7.51109375 6.99054687 7.875 7.9375 C8.39707031 9.31228516 8.39707031 9.31228516 8.9296875 10.71484375 C9.7819086 13.14941056 9.7819086 13.14941056 12 14 C12.144375 14.61875 12.28875 15.2375 12.4375 15.875 C12.82192688 18.0607483 12.82192688 18.0607483 14.40625 19.375 C16.17767772 21.1811616 17.0173957 22.8316942 18.0625 25.125 C19.34308323 28.20108021 19.34308323 28.20108021 22 30 C22.73075648 32.3140622 23.40138258 34.64828869 24 37 C24.66 37 25.32 37 26 37 C26 37.99 26 38.98 26 40 C26.66 40 27.32 40 28 40 C28.66 42.31 29.32 44.62 30 47 C32.31 47 34.62 47 37 47 C35.68 49.31 34.36 51.62 33 54 C28.05704388 49.67265014 25.26317894 44.59427576 22.125 38.875 C21.07249422 36.98966579 20.0178225 35.10553904 18.9609375 33.22265625 C18.45530273 32.3217627 17.94966797 31.42086914 17.42871094 30.49267578 C15.14552289 26.50919151 12.6646198 22.6778967 10.109375 18.86328125 C9 17 9 17 9 15 C8.01 14.67 7.02 14.34 6 14 C5.65657551 12.66923011 5.32380126 11.33568021 5 10 C4.01 9.34 3.02 8.68 2 8 C2 7.01 2 6.02 2 5 C1.37400383 3.31763529 0.71247732 1.6476038 0 0 Z " fill="#505152" transform="translate(493,578)"/>
<path d="M0 0 C0.66 0.33 1.32 0.66 2 1 C2 1.66 2 2.32 2 3 C1.34 3 0.68 3 0 3 C0 4.32 0 5.64 0 7 C-0.66 7 -1.32 7 -2 7 C-2.103125 8.051875 -2.20625 9.10375 -2.3125 10.1875 C-2.97949332 13.88628113 -3.74990008 16.02986811 -6 19 C-6.66 19 -7.32 19 -8 19 C-8.12375 19.61875 -8.2475 20.2375 -8.375 20.875 C-9 23 -9 23 -11 25 C-11.6425235 27.06874034 -11.6425235 27.06874034 -12 29 C-12.66 29 -13.32 29 -14 29 C-14 30.32 -14 31.64 -14 33 C-14.66 33 -15.32 33 -16 33 C-16 34.32 -16 35.64 -16 37 C-16.66 37 -17.32 37 -18 37 C-18 38.32 -18 39.64 -18 41 C-18.66 41 -19.32 41 -20 41 C-20 42.32 -20 43.64 -20 45 C-20.66 45 -21.32 45 -22 45 C-22.12761719 45.56332031 -22.25523437 46.12664062 -22.38671875 46.70703125 C-23.03449426 49.128969 -23.85183769 51.37195938 -24.8125 53.6875 C-25.12832031 54.47511719 -25.44414062 55.26273437 -25.76953125 56.07421875 C-27 58 -27 58 -29.13671875 58.76953125 C-29.75160156 58.84558594 -30.36648438 58.92164063 -31 59 C-29.61463357 55.38701338 -28.02284016 51.96969621 -26.2421875 48.53515625 C-25.43334106 46.97450439 -25.43334106 46.97450439 -24.6081543 45.38232422 C-24.03621338 44.28678223 -23.46427246 43.19124023 -22.875 42.0625 C-22.28823486 40.93602051 -21.70146973 39.80954102 -21.09692383 38.64892578 C-17.4888843 31.75484227 -13.77615964 24.95555939 -9.85546875 18.234375 C-6.41672697 12.24010511 -3.21967679 6.11396071 0 0 Z " fill="#6D6D6E" transform="translate(402,311)"/>
<path d="M0 0 C1.41377341 2.63904371 2.37240135 5.07120629 3 8 C3.66 8 4.32 8 5 8 C5.33 9.32 5.66 10.64 6 12 C2.7 11.34 -0.6 10.68 -4 10 C-4 10.66 -4 11.32 -4 12 C-4.66 12 -5.32 12 -6 12 C-6.0825 12.78375 -6.165 13.5675 -6.25 14.375 C-7 17 -7 17 -9.046875 18.1640625 C-10.01367188 18.57785156 -10.01367188 18.57785156 -11 19 C-9.73652837 16.39202649 -8.46464776 13.78876593 -7.1875 11.1875 C-6.83107422 10.44951172 -6.47464844 9.71152344 -6.10742188 8.95117188 C-5.75615234 8.23896484 -5.40488281 7.52675781 -5.04296875 6.79296875 C-4.56380005 5.81106567 -4.56380005 5.81106567 -4.07495117 4.80932617 C-2.93098106 2.88382936 -1.64255865 1.51164489 0 0 Z " fill="#7A7B7C" transform="translate(418,284)"/>
<path d="M0 0 C0.66 0 1.32 0 2 0 C1.49516338 4.34159496 0.68099266 7.49408652 -2 11 C-2.99 11 -3.98 11 -5 11 C-5.12375 11.94875 -5.2475 12.8975 -5.375 13.875 C-6 17 -6 17 -8 19 C-9.71760742 21.9300362 -10.4433252 24.65995117 -11 28 C-12.32 28.33 -13.64 28.66 -15 29 C-13.11286695 22.46294799 -10.48803501 16.91335402 -6.9375 11.125 C-6.49083984 10.37992187 -6.04417969 9.63484375 -5.58398438 8.8671875 C-3.77883717 5.86670365 -1.94282984 2.91424475 0 0 Z " fill="#727374" transform="translate(542,431)"/>
<path d="M0 0 C1.32 0.33 2.64 0.66 4 1 C4 1.66 4 2.32 4 3 C4.66 3 5.32 3 6 3 C6.84026396 4.76755526 7.67198722 6.53917263 8.5 8.3125 C8.9640625 9.29863281 9.428125 10.28476562 9.90625 11.30078125 C11 14 11 14 11 17 C10.34 17 9.68 17 9 17 C9 16.34 9 15.68 9 15 C8.01 14.67 7.02 14.34 6 14 C5.65657551 12.66923011 5.32380126 11.33568021 5 10 C4.01 9.34 3.02 8.68 2 8 C2 7.01 2 6.02 2 5 C1.37400383 3.31763529 0.71247732 1.6476038 0 0 Z " fill="#6B6C6D" transform="translate(493,578)"/>
<path d="M0 0 C0.33 0.66 0.66 1.32 1 2 C1.66 2 2.32 2 3 2 C3.33 2.66 3.66 3.32 4 4 C14.89 4 25.78 4 37 4 C36.67 4.66 36.34 5.32 36 6 C23.46 6 10.92 6 -2 6 C-1.34 4.02 -0.68 2.04 0 0 Z " fill="#858788" transform="translate(186,716)"/>
<path d="M0 0 C3.39566854 0.59548258 3.85575194 0.80766925 6.0625 3.75 C6.701875 4.8225 7.34125 5.895 8 7 C8.8971875 8.2684375 8.8971875 8.2684375 9.8125 9.5625 C11.25359375 12.52053455 10.96921309 13.91614016 10 17 C8.68 16.67 7.36 16.34 6 16 C5.9071875 14.5459375 5.9071875 14.5459375 5.8125 13.0625 C5.14374201 8.11774397 2.57409304 4.18883776 0 0 Z " fill="#656668" transform="translate(469,538)"/>
<path d="M0 0 C1.83984375 0.234375 1.83984375 0.234375 4 1 C5.37890625 2.890625 5.37890625 2.890625 6.5625 5.25 C6.98015625 6.06082031 7.3978125 6.87164062 7.828125 7.70703125 C8.21484375 8.46371094 8.6015625 9.22039062 9 10 C9.598125 10.969375 10.19625 11.93875 10.8125 12.9375 C12 15 12 15 12 17 C11.01 17 10.02 17 9 17 C7.28523782 14.56557079 5.78519269 12.19927621 4.3125 9.625 C3.68891602 8.57699219 3.68891602 8.57699219 3.05273438 7.5078125 C0 2.29460437 0 2.29460437 0 0 Z " fill="#717274" transform="translate(444,495)"/>
<path d="M0 0 C1.13643966 3.40931897 0.86747764 4.00335456 -0.4375 7.1875 C-0.72496094 7.90292969 -1.01242187 8.61835938 -1.30859375 9.35546875 C-1.53675781 9.89816406 -1.76492188 10.44085938 -2 11 C-2.66 11 -3.32 11 -4 11 C-4.103125 11.53625 -4.20625 12.0725 -4.3125 12.625 C-5.18092697 15.62502044 -6.55620296 18.2379535 -8 21 C-8.66 21 -9.32 21 -10 21 C-10 21.66 -10 22.32 -10 23 C-10.66 22.67 -11.32 22.34 -12 22 C-9.67918764 16.22527277 -6.94856711 11.1366926 -3.3671875 6.04296875 C-2.05826869 4.08707006 -1.00327777 2.12599337 0 0 Z " fill="#757576" transform="translate(302,497)"/>
<path d="M0 0 C1.09459733 3.6963972 0.75901226 5.25415655 -0.9375 8.75 C-1.31777344 9.54921875 -1.69804687 10.3484375 -2.08984375 11.171875 C-2.39019531 11.77515625 -2.69054687 12.3784375 -3 13 C-3.66 13 -4.32 13 -5 13 C-5 14.32 -5 15.64 -5 17 C-5.66 17 -6.32 17 -7 17 C-7.144375 17.61875 -7.28875 18.2375 -7.4375 18.875 C-8 21 -8 21 -9 23 C-9.66 23 -10.32 23 -11 23 C-9.44347945 17.6462535 -7.0182491 12.99849053 -4.375 8.125 C-3.95476562 7.34125 -3.53453125 6.5575 -3.1015625 5.75 C-2.0718978 3.83107943 -1.03652433 1.91522397 0 0 Z " fill="#555657" transform="translate(317,469)"/>
<path d="M0 0 C0.66 1.32 1.32 2.64 2 4 C1.34 4 0.68 4 0 4 C-0.19142578 4.84498047 -0.19142578 4.84498047 -0.38671875 5.70703125 C-1.03449426 8.128969 -1.85183769 10.37195938 -2.8125 12.6875 C-3.12832031 13.47511719 -3.44414062 14.26273437 -3.76953125 15.07421875 C-5 17 -5 17 -7.13671875 17.76953125 C-7.75160156 17.84558594 -8.36648438 17.92164063 -9 18 C-7.45614871 13.85967154 -5.48971062 10.06446947 -3.375 6.1875 C-3.05015625 5.59001953 -2.7253125 4.99253906 -2.390625 4.37695312 C-1.59620849 2.91662865 -0.79844624 1.45812509 0 0 Z " fill="#767777" transform="translate(380,352)"/>
<path d="M0 0 C0.99 0.33 1.98 0.66 3 1 C4.1875 3.5625 4.1875 3.5625 5 6 C4.071875 6.0825 3.14375 6.165 2.1875 6.25 C-1.48839926 7.11491747 -2.02620453 7.94061702 -4 11 C-4.66 11 -5.32 11 -6 11 C-4.74194623 6.49197399 -3.09592835 3.5087188 0 0 Z " fill="#8A8A8C" transform="translate(628,288)"/>
<path d="M0 0 C0.33 0 0.66 0 1 0 C1.61528766 5.07612318 -0.38341651 7.82982006 -3 12 C-3.66 12 -4.32 12 -5 12 C-5.12375 12.556875 -5.2475 13.11375 -5.375 13.6875 C-6.05976855 16.22114364 -6.99133763 18.57921032 -8 21 C-8.99 21 -9.98 21 -11 21 C-7.37 14.07 -3.74 7.14 0 0 Z " fill="#505052" transform="translate(337,432)"/>
<path d="M0 0 C3 3.625 3 3.625 3 7 C-7.56 7 -18.12 7 -29 7 C-29 6.67 -29 6.34 -29 6 C-19.43 6 -9.86 6 0 6 C0 4.02 0 2.04 0 0 Z " fill="#76797A" transform="translate(860,715)"/>
<path d="M0 0 C0.66 0 1.32 0 2 0 C2.33 1.32 2.66 2.64 3 4 C3.66 4 4.32 4 5 4 C5.433125 5.19625 5.86625 6.3925 6.3125 7.625 C7.6529584 11.21232201 9.21821184 14.60611779 11 18 C10.34 18.99 9.68 19.98 9 21 C7.49699373 17.68885587 5.99810044 14.37586628 4.5 11.0625 C4.07074219 10.11697266 3.64148438 9.17144531 3.19921875 8.19726562 C2.79316406 7.29814453 2.38710938 6.39902344 1.96875 5.47265625 C1.59169922 4.64000244 1.21464844 3.80734863 0.82617188 2.94946289 C0 1 0 1 0 0 Z " fill="#5B5B5D" transform="translate(633,470)"/>
<path d="M0 0 C1.24318454 3.72955362 0.62220112 4.51226759 -1 8 C-1.680625 9.60875 -1.680625 9.60875 -2.375 11.25 C-4 14 -4 14 -6.1875 14.875 C-7.0846875 14.936875 -7.0846875 14.936875 -8 15 C-7.814375 14.38125 -7.62875 13.7625 -7.4375 13.125 C-6.76313824 10.95839822 -6.76313824 10.95839822 -8 9 C-7.01 8.67 -6.02 8.34 -5 8 C-3.55129381 6.14195683 -3.55129381 6.14195683 -2.3125 3.9375 C-1.87550781 3.20402344 -1.43851563 2.47054688 -0.98828125 1.71484375 C-0.66214844 1.14894531 -0.33601562 0.58304687 0 0 Z " fill="#68696B" transform="translate(621,299)"/>
<path d="M0 0 C0.99 0 1.98 0 3 0 C3.33 0.99 3.66 1.98 4 3 C6.31 3 8.62 3 11 3 C9.68 5.31 8.36 7.62 7 10 C3.60582235 6.87378374 1.3937282 4.43458973 0 0 Z " fill="#797979" transform="translate(519,622)"/>
<path d="M0 0 C3.93544623 1.31181541 5.74938163 3.95958727 8.14453125 7.1484375 C9.22877115 9.49514852 8.85573613 10.61653863 8 13 C5.47411298 10.63707344 4.11179163 9.33537489 3 6 C2.67 5.34 2.34 4.68 2 4 C1.01 4 0.02 4 -1 4 C-0.67 2.68 -0.34 1.36 0 0 Z " fill="#757577" transform="translate(485,565)"/>
<path d="M0 0 C2.40569331 3.05783908 4.36189615 6.22457996 6.25 9.625 C6.79140625 10.58664062 7.3328125 11.54828125 7.890625 12.5390625 C8.25671875 13.35117187 8.6228125 14.16328125 9 15 C8.67 15.66 8.34 16.32 8 17 C4.53768536 14.78150007 3.2002136 12.88945255 1.75 9.0625 C1.41484375 8.20785156 1.0796875 7.35320313 0.734375 6.47265625 C0 4 0 4 0 0 Z " fill="#6E6F6F" transform="translate(840,676)"/>
<path d="M0 0 C0.33 0 0.66 0 1 0 C0.51171875 6.0546875 0.51171875 6.0546875 0 8 C-0.99 8.66 -1.98 9.32 -3 10 C-3.72382467 12.05925139 -3.72382467 12.05925139 -4 14 C-4.66 14 -5.32 14 -6 14 C-6 15.32 -6 16.64 -6 18 C-6.99 18.33 -7.98 18.66 -9 19 C-7.6077541 14.37324343 -5.70479016 10.35313769 -3.375 6.125 C-2.74335938 4.97257813 -2.11171875 3.82015625 -1.4609375 2.6328125 C-0.97882813 1.76398437 -0.49671875 0.89515625 0 0 Z " fill="#6B6B6C" transform="translate(202,685)"/>
<path d="M0 0 C3.71080883 4.42442592 6.84577733 9.17403931 10 14 C9.67 14.66 9.34 15.32 9 16 C3.73820586 11.02262716 0.84756303 7.28904202 0 0 Z " fill="#4D4E4E" transform="translate(499,416)"/>
<path d="M0 0 C1.125 1.75 1.125 1.75 2 4 C1.125 6.25 1.125 6.25 0 8 C-0.66 8 -1.32 8 -2 8 C-2 9.32 -2 10.64 -2 12 C-3.32 12.33 -4.64 12.66 -6 13 C-5.53802187 8.84219686 -5.14081415 6.76391645 -2 4 C-0.82425289 1.90010348 -0.82425289 1.90010348 0 0 Z " fill="#717172" transform="translate(356,396)"/>
<path d="M0 0 C0.66 0.33 1.32 0.66 2 1 C2 1.66 2 2.32 2 3 C1.34 3 0.68 3 0 3 C0 4.32 0 5.64 0 7 C-0.66 7 -1.32 7 -2 7 C-2.0825 8.11375 -2.165 9.2275 -2.25 10.375 C-3 14 -3 14 -5.0625 15.4375 C-6.0215625 15.7159375 -6.0215625 15.7159375 -7 16 C-6.28028381 12.24654344 -4.66887798 9.13908031 -2.9375 5.75 C-2.11572266 4.13351562 -2.11572266 4.13351562 -1.27734375 2.484375 C-0.64505859 1.25460937 -0.64505859 1.25460937 0 0 Z " fill="#474849" transform="translate(402,311)"/>
<path d="M0 0 C0.99 0 1.98 0 3 0 C3 0.66 3 1.32 3 2 C2.34 2 1.68 2 1 2 C0.87625 2.7425 0.7525 3.485 0.625 4.25 C0.04513299 6.80141485 -0.73708739 8.7267573 -2 11 C-2.99 11 -3.98 11 -5 11 C-3.78310457 6.97488434 -2.50546238 3.40742883 0 0 Z " fill="#545555" transform="translate(367,376)"/>
<path d="M0 0 C4.67461851 -0.32613618 7.16674383 0.29417212 11 3 C10.67 3.99 10.34 4.98 10 6 C8.02 4.68 6.04 3.36 4 2 C4.33 2.66 4.66 3.32 5 4 C4.34 4.66 3.68 5.32 3 6 C2.87625 5.195625 2.7525 4.39125 2.625 3.5625 C2.315625 2.2940625 2.315625 2.2940625 2 1 C1.34 0.67 0.68 0.34 0 0 Z " fill="#8E8D8E" transform="translate(343,523)"/>
<path d="M0 0 C1.0013988 3.00419641 1.51421457 5.87709365 2 9 C0.02 9 -1.96 9 -4 9 C-3.71848913 7.68528432 -3.42446661 6.37324233 -3.125 5.0625 C-2.96257812 4.33160156 -2.80015625 3.60070312 -2.6328125 2.84765625 C-2 1 -2 1 0 0 Z " fill="#E6E6E6" transform="translate(418,284)"/>
<path d="M0 0 C0.66 0 1.32 0 2 0 C1.44893487 3.3063908 0.90012129 6.19982126 -1 9 C-3.125 9.75 -3.125 9.75 -5 10 C-3.85569823 6.12697862 -2.76679902 2.99736561 0 0 Z " fill="#636465" transform="translate(289,521)"/>
<path d="M0 0 C0.66 0.66 1.32 1.32 2 2 C0.02 5.63 -1.96 9.26 -4 13 C-4.99 12.67 -5.98 12.34 -7 12 C-4.69 8.04 -2.38 4.08 0 0 Z " fill="#4C4D4E" transform="translate(576,375)"/>
<path d="M0 0 C3.09592835 3.5087188 4.74194623 6.49197399 6 11 C5.01 11 4.02 11 3 11 C1.68 7.7 0.36 4.4 -1 1 C-0.67 0.67 -0.34 0.34 0 0 Z " fill="#454647" transform="translate(450,501)"/>
<path d="M0 0 C1.13643966 3.40931897 0.86747764 4.00335456 -0.4375 7.1875 C-0.72496094 7.90292969 -1.01242187 8.61835938 -1.30859375 9.35546875 C-1.53675781 9.89816406 -1.76492188 10.44085938 -2 11 C-2.66 11 -3.32 11 -4 11 C-4 11.66 -4 12.32 -4 13 C-4.66 13 -5.32 13 -6 13 C-4.58707905 8.1725201 -2.57025846 4.2837641 0 0 Z " fill="#4A4A4B" transform="translate(302,497)"/>
<path d="M0 0 C0.66 0.33 1.32 0.66 2 1 C2 2.65 2 4.3 2 6 C2.66 6 3.32 6 4 6 C4 7.65 4 9.3 4 11 C4.66 11.33 5.32 11.66 6 12 C5.01 12 4.02 12 3 12 C2.30062798 10.5682384 1.61587282 9.12932968 0.9375 7.6875 C0.55464844 6.88699219 0.17179688 6.08648437 -0.22265625 5.26171875 C-1 3 -1 3 0 0 Z " fill="#555657" transform="translate(644,490)"/>
<path d="M0 0 C1 3 1 3 0.328125 4.9375 C-0.02765625 5.618125 -0.3834375 6.29875 -0.75 7 C-1.09546875 7.680625 -1.4409375 8.36125 -1.796875 9.0625 C-3.0089425 11.01440091 -4.31406647 12.4497163 -6 14 C-6 10.27792613 -4.82035432 8.53604411 -3 5.3125 C-2.443125 4.31863281 -1.88625 3.32476562 -1.3125 2.30078125 C-0.879375 1.54152344 -0.44625 0.78226562 0 0 Z " fill="#494A4A" transform="translate(325,455)"/>
<path d="M0 0 C0.66 0 1.32 0 2 0 C1.5205537 4.21912747 0.83374881 6.79663178 -2 10 C-3.04127245 6.6868604 -3.18574123 5.39801692 -1.6875 2.1875 C-1.130625 1.465625 -0.57375 0.74375 0 0 Z " fill="#49494A" transform="translate(542,431)"/>
<path d="M0 0 C0.66 1.32 1.32 2.64 2 4 C0.02 6.97 0.02 6.97 -2 10 C-2.99 9.67 -3.98 9.34 -5 9 C-3.35 6.03 -1.7 3.06 0 0 Z " fill="#5A5B5C" transform="translate(600,334)"/>
<path d="M0 0 C0.66 0 1.32 0 2 0 C2 0.99 2 1.98 2 3 C2.66 3.33 3.32 3.66 4 4 C7 8.5 7 8.5 7 11 C2.94089532 9.64696511 2.0786931 7.65563269 0 4 C0 2.68 0 1.36 0 0 Z " fill="#38383A" transform="translate(432,310)"/>
<path d="M0 0 C0.66 0.33 1.32 0.66 2 1 C0.80100302 4.0831351 -0.47700477 7.06279492 -2 10 C-2.99 9.67 -3.98 9.34 -5 9 C-3.35 6.03 -1.7 3.06 0 0 Z " fill="#434345" transform="translate(568,388)"/>
<path d="M0 0 C0.66 0.33 1.32 0.66 2 1 C2 1.99 2 2.98 2 4 C1.34 4 0.68 4 0 4 C-0.103125 4.5775 -0.20625 5.155 -0.3125 5.75 C-1.09792798 8.32049158 -2.30504197 9.93657284 -4 12 C-4.66 11.67 -5.32 11.34 -6 11 C-4.02 7.37 -2.04 3.74 0 0 Z " fill="#686869" transform="translate(394,326)"/>
<path d="M0 0 C0.69867188 0.08378906 1.39734375 0.16757812 2.1171875 0.25390625 C3.02726562 0.35574219 3.93734375 0.45757813 4.875 0.5625 C5.77992188 0.66691406 6.68484375 0.77132812 7.6171875 0.87890625 C10.01653057 1.19674852 10.01653057 1.19674852 12 0 C11.67 1.65 11.34 3.3 11 5 C9.35153231 4.55123384 7.70626545 4.09069512 6.0625 3.625 C5.14597656 3.36976563 4.22945313 3.11453125 3.28515625 2.8515625 C1 2 1 2 0 0 Z " fill="#6F6F70" transform="translate(365,536)"/>
<path d="M0 0 C2.86453858 3.41016497 4.34703566 6.90694544 6 11 C5.34 11 4.68 11 4 11 C4 10.34 4 9.68 4 9 C3.34 9 2.68 9 2 9 C-0.29013653 5.5647952 -0.17842973 4.014669 0 0 Z " fill="#646464" transform="translate(756,520)"/>
<path d="M0 0 C0.93045933 2.55144824 1.08564091 3.74006478 0.22265625 6.359375 C-0.16019531 7.14828125 -0.54304688 7.9371875 -0.9375 8.75 C-1.50791016 9.94882812 -1.50791016 9.94882812 -2.08984375 11.171875 C-2.39019531 11.77515625 -2.69054687 12.3784375 -3 13 C-3.66 13 -4.32 13 -5 13 C-4.39254603 8.14036821 -2.27241033 4.2594482 0 0 Z " fill="#424344" transform="translate(317,469)"/>
<path d="M0 0 C0.66 0.33 1.32 0.66 2 1 C1.34 2.32 0.68 3.64 0 5 C-0.66 5 -1.32 5 -2 5 C-2 6.32 -2 7.64 -2 9 C-3.32 9.33 -4.64 9.66 -6 10 C-5.18957164 8.51969728 -4.37659652 7.04078858 -3.5625 5.5625 C-2.88380859 4.32693359 -2.88380859 4.32693359 -2.19140625 3.06640625 C-1 1 -1 1 0 0 Z " fill="#535455" transform="translate(552,415)"/>
<path d="M0 0 C0.66 0.99 1.32 1.98 2 3 C1.34 3 0.68 3 0 3 C-0.33 4.98 -0.66 6.96 -1 9 C-1.66 9 -2.32 9 -3 9 C-3 9.99 -3 10.98 -3 12 C-3.66 12 -4.32 12 -5 12 C-3.68938409 7.76570244 -2.05643741 3.92592596 0 0 Z " fill="#68696A" transform="translate(271,555)"/>
<path d="M0 0 C0 3.28176588 -0.47835901 5.10888212 -2 8 C-4.125 8.8125 -4.125 8.8125 -6 9 C-4.68775452 5.06326356 -3.08089673 2.77280706 0 0 Z " fill="#636364" transform="translate(377,361)"/>
<path d="M0 0 C0.268125 0.598125 0.53625 1.19625 0.8125 1.8125 C1.98493467 3.97224808 3.19369282 5.35790256 5 7 C4.67 7.99 4.34 8.98 4 10 C1.47411298 7.63707344 0.11179163 6.33537489 -1 3 C-0.67 2.01 -0.34 1.02 0 0 Z " fill="#3F3F40" transform="translate(504,592)"/>
<path d="M0 0 C1.875 0.25 1.875 0.25 4 1 C5.72101535 3.58152302 6 4.84918025 6 8 C5.34 8 4.68 8 4 8 C4 7.34 4 6.68 4 6 C3.01 5.67 2.02 5.34 1 5 C0.67 3.35 0.34 1.7 0 0 Z " fill="#808182" transform="translate(498,587)"/>
<path d="M0 0 C1.32 0.33 2.64 0.66 4 1 C4.33 3.64 4.66 6.28 5 9 C0.57142857 3.85714286 0.57142857 3.85714286 0 0 Z " fill="#535456" transform="translate(649,504)"/>
<path d="M0 0 C0.33 0 0.66 0 1 0 C0.67 2.64 0.34 5.28 0 8 C-1.32 8.33 -2.64 8.66 -4 9 C-2.94124926 5.59687262 -1.99097846 2.98646769 0 0 Z " fill="#6B6B6C" transform="translate(361,387)"/>
<path d="M0 0 C1 3 1 3 1 5 C0.34 5 -0.32 5 -1 5 C-1 5.66 -1 6.32 -1 7 C-1.66 7 -2.32 7 -3 7 C-3 7.99 -3 8.98 -3 10 C-3.66 10 -4.32 10 -5 10 C-3.66511872 6.40608886 -2.03977277 3.24509304 0 0 Z " fill="#5B5C5D" transform="translate(609,319)"/>
<path d="M0 0 C1.21744727 3.65234182 0.64202228 4.62953322 -1 8 C-1.66 8.66 -2.32 9.32 -3 10 C-2.25 3.375 -2.25 3.375 0 0 Z " fill="#4A4A4B" transform="translate(621,299)"/>
<path d="M0 0 C0.99 0.33 1.98 0.66 3 1 C2.34 1 1.68 1 1 1 C0.9175 1.78375 0.835 2.5675 0.75 3.375 C0.5025 4.24125 0.255 5.1075 0 6 C-1.98 6.99 -1.98 6.99 -4 8 C-2.68 5.36 -1.36 2.72 0 0 Z " fill="#565759" transform="translate(411,295)"/>
<path d="M0 0 C0.6875 1.6875 0.6875 1.6875 1 4 C-1.26153846 8.63076923 -1.26153846 8.63076923 -4 10 C-2.8905928 6.51329166 -1.73662334 3.22515763 0 0 Z " fill="#464748" transform="translate(220,652)"/>
<path d="M0 0 C1.32 0.66 2.64 1.32 4 2 C4 3.32 4 4.64 4 6 C3.01 6 2.02 6 1 6 C0.34 4.35 -0.32 2.7 -1 1 C-0.67 0.67 -0.34 0.34 0 0 Z " fill="#5B5B5C" transform="translate(517,616)"/>
<path d="M0 0 C2.0625 1.75 2.0625 1.75 4 4 C3.75 6.25 3.75 6.25 3 8 C1.02 4.535 1.02 4.535 -1 1 C-0.67 0.67 -0.34 0.34 0 0 Z " fill="#59595A" transform="translate(508,601)"/>
<path d="M0 0 C0.66 0.33 1.32 0.66 2 1 C-0.475 5.455 -0.475 5.455 -3 10 C-4 6 -4 6 -2.0625 2.75 C-1.381875 1.8425 -0.70125 0.935 0 0 Z " fill="#343434" transform="translate(548,591)"/>
<path d="M0 0 C1 4 1 4 -0.4375 6.75 C-1.2109375 7.86375 -1.2109375 7.86375 -2 9 C-2.66 8.67 -3.32 8.34 -4 8 C-2.68 5.36 -1.36 2.72 0 0 Z " fill="#626264" transform="translate(254,588)"/>
<path d="M0 0 C1.32 1.65 2.64 3.3 4 5 C3.67 5.66 3.34 6.32 3 7 C2.34 7 1.68 7 1 7 C0.34 5.02 -0.32 3.04 -1 1 C-0.67 0.67 -0.34 0.34 0 0 Z " fill="#474748" transform="translate(481,387)"/>
<path d="M0 0 C0.33 0.99 0.66 1.98 1 3 C0.34 3 -0.32 3 -1 3 C-1 4.32 -1 5.64 -1 7 C-1.66 7 -2.32 7 -3 7 C-3.33 7.66 -3.66 8.32 -4 9 C-3.67 7.02 -3.34 5.04 -3 3 C-2.01 2.67 -1.02 2.34 0 2 C0 1.34 0 0.68 0 0 Z " fill="#494A4B" transform="translate(385,345)"/>
<path d="M0 0 C0.66 0.99 1.32 1.98 2 3 C1.01 4.485 1.01 4.485 0 6 C-0.99 5.67 -1.98 5.34 -3 5 C-2.01 3.35 -1.02 1.7 0 0 Z " fill="#F0EFF0" transform="translate(482,563)"/>
<path d="M0 0 C1.485 0.99 1.485 0.99 3 2 C3 2.99 3 3.98 3 5 C2.34 5 1.68 5 1 5 C0.34 3.68 -0.32 2.36 -1 1 C-0.67 0.67 -0.34 0.34 0 0 Z " fill="#E8E9E8" transform="translate(806,691)"/>
<path d="M0 0 C0.66 0.66 1.32 1.32 2 2 C1.01 3.32 0.02 4.64 -1 6 C-1.33 5.34 -1.66 4.68 -2 4 C-1.0625 1.875 -1.0625 1.875 0 0 Z " fill="#EFEFEF" transform="translate(287,611)"/>
<path d="M0 0 C1.32 0.33 2.64 0.66 4 1 C4 1.66 4 2.32 4 3 C2.68 2.67 1.36 2.34 0 2 C0 1.34 0 0.68 0 0 Z " fill="#E7E6E7" transform="translate(811,706)"/>
<path d="M0 0 C0.99 0.33 1.98 0.66 3 1 C2.01 1.99 1.02 2.98 0 4 C0 2.68 0 1.36 0 0 Z " fill="#ECEDEE" transform="translate(218,648)"/>
<path d="M0 0 C0.99 0 1.98 0 3 0 C3 0.66 3 1.32 3 2 C3.66 2.33 4.32 2.66 5 3 C3.0625 2.625 3.0625 2.625 1 2 C0.67 1.34 0.34 0.68 0 0 Z " fill="#F0F1F1" transform="translate(550,406)"/>
<path d="M0 0 C0.99 0.33 1.98 0.66 3 1 C3 1.66 3 2.32 3 3 C1.68 2.67 0.36 2.34 -1 2 C-0.67 1.34 -0.34 0.68 0 0 Z " fill="#F2F2F4" transform="translate(682,527)"/>
<path d="M0 0 C0.33 0.66 0.66 1.32 1 2 C0.67 2.66 0.34 3.32 0 4 C-0.66 3.67 -1.32 3.34 -2 3 C-2 2.34 -2 1.68 -2 1 C-1.34 0.67 -0.68 0.34 0 0 Z " fill="#F1F0F1" transform="translate(449,510)"/>
<path d="M0 0 C0.66 0.33 1.32 0.66 2 1 C1.67 1.66 1.34 2.32 1 3 C0.01 2.67 -0.98 2.34 -2 2 C-1.34 1.34 -0.68 0.68 0 0 Z " fill="#F3F4F3" transform="translate(449,507)"/>
<path d="M0 0 C0.66 0.33 1.32 0.66 2 1 C0.02 1.99 0.02 1.99 -2 3 C-2 2.34 -2 1.68 -2 1 C-1.34 0.67 -0.68 0.34 0 0 Z " fill="#F5F3F3" transform="translate(407,488)"/>
<path d="M0 0 C0.66 0 1.32 0 2 0 C1.67 1.32 1.34 2.64 1 4 C0.67 2.68 0.34 1.36 0 0 Z " fill="#E9EAEC" transform="translate(429,300)"/>
<path d="M0 0 C0.99 0.33 1.98 0.66 3 1 C2.67 1.66 2.34 2.32 2 3 C1.34 2.67 0.68 2.34 0 2 C0 1.34 0 0.68 0 0 Z " fill="#E8EAE9" transform="translate(803,688)"/>
<path d="M0 0 C0.33 1.32 0.66 2.64 1 4 C0.34 4 -0.32 4 -1 4 C-0.67 2.68 -0.34 1.36 0 0 Z " fill="#E9E9EB" transform="translate(384,526)"/>
<path d="M0 0 C0.66 0.33 1.32 0.66 2 1 C1.67 1.66 1.34 2.32 1 3 C0.34 3 -0.32 3 -1 3 C-0.67 2.01 -0.34 1.02 0 0 Z " fill="#D3D2D4" transform="translate(703,518)"/>
<path d="M0 0 C0.99 0 1.98 0 3 0 C3 0.66 3 1.32 3 2 C2.01 2 1.02 2 0 2 C0 1.34 0 0.68 0 0 Z " fill="#DBDADB" transform="translate(622,287)"/>
<path d="M0 0 C0.99 0 1.98 0 3 0 C3 0.66 3 1.32 3 2 C2.01 2 1.02 2 0 2 C0 1.34 0 0.68 0 0 Z " fill="#E4E5E4" transform="translate(819,716)"/>
<path d="M0 0 C0.99 0.495 0.99 0.495 2 1 C2 1.66 2 2.32 2 3 C1.34 3 0.68 3 0 3 C0 2.01 0 1.02 0 0 Z " fill="#EBECED" transform="translate(495,590)"/>
<path d="M0 0 C0.99 0.495 0.99 0.495 2 1 C2 1.66 2 2.32 2 3 C1.34 3 0.68 3 0 3 C0 2.01 0 1.02 0 0 Z " fill="#F3F3F4" transform="translate(463,531)"/>
<path d="M0 0 C0.33 0.99 0.66 1.98 1 3 C0.01 3.495 0.01 3.495 -1 4 C-0.67 2.68 -0.34 1.36 0 0 Z " fill="#F1F0F0" transform="translate(493,397)"/>
<path d="M0 0 C0.99 0.495 0.99 0.495 2 1 C2 1.66 2 2.32 2 3 C1.34 3 0.68 3 0 3 C0 2.01 0 1.02 0 0 Z " fill="#E8E8E9" transform="translate(598,325)"/>
<path d="M0 0 C0.66 0 1.32 0 2 0 C2 0.66 2 1.32 2 2 C1.34 2 0.68 2 0 2 C0 1.34 0 0.68 0 0 Z " fill="#777978" transform="translate(554,978)"/>
<path d="M0 0 C0.66 0 1.32 0 2 0 C2 0.66 2 1.32 2 2 C1.34 2 0.68 2 0 2 C0 1.34 0 0.68 0 0 Z " fill="#787A79" transform="translate(736,970)"/>
<path d="M0 0 C0.66 0 1.32 0 2 0 C2 0.66 2 1.32 2 2 C1.34 2 0.68 2 0 2 C0 1.34 0 0.68 0 0 Z " fill="#787A7A" transform="translate(720,962)"/>
<path d="M0 0 C0.66 0 1.32 0 2 0 C2 0.66 2 1.32 2 2 C1.34 2 0.68 2 0 2 C0 1.34 0 0.68 0 0 Z " fill="#797B7A" transform="translate(649,962)"/>
<path d="M0 0 C0.66 0 1.32 0 2 0 C2 0.66 2 1.32 2 2 C1.34 2 0.68 2 0 2 C0 1.34 0 0.68 0 0 Z " fill="#7A7C7B" transform="translate(641,962)"/>
<path d="M0 0 C0.66 0 1.32 0 2 0 C2 0.66 2 1.32 2 2 C1.34 2 0.68 2 0 2 C0 1.34 0 0.68 0 0 Z " fill="#787A7B" transform="translate(388,962)"/>
<path d="M0 0 C0.66 0 1.32 0 2 0 C2 0.66 2 1.32 2 2 C1.34 2 0.68 2 0 2 C0 1.34 0 0.68 0 0 Z " fill="#858787" transform="translate(736,891)"/>
<path d="M0 0 C0.66 0 1.32 0 2 0 C2 0.66 2 1.32 2 2 C1.34 2 0.68 2 0 2 C0 1.34 0 0.68 0 0 Z " fill="#838485" transform="translate(475,883)"/>
<path d="M0 0 C0.66 0 1.32 0 2 0 C2 0.66 2 1.32 2 2 C1.34 2 0.68 2 0 2 C0 1.34 0 0.68 0 0 Z " fill="#8A8B8B" transform="translate(56,804)"/>
<path d="M0 0 C0.66 0 1.32 0 2 0 C2 0.66 2 1.32 2 2 C1.34 2 0.68 2 0 2 C0 1.34 0 0.68 0 0 Z " fill="#8D8F8D" transform="translate(989,796)"/>
<path d="M0 0 C0.66 0 1.32 0 2 0 C2 0.66 2 1.32 2 2 C1.34 2 0.68 2 0 2 C0 1.34 0 0.68 0 0 Z " fill="#DEDEDD" transform="translate(224,719)"/>
<path d="M0 0 C0.66 0 1.32 0 2 0 C2 0.66 2 1.32 2 2 C1.34 2 0.68 2 0 2 C0 1.34 0 0.68 0 0 Z " fill="#EEECED" transform="translate(817,710)"/>
<path d="M0 0 C0.66 0 1.32 0 2 0 C2 0.66 2 1.32 2 2 C1.34 2 0.68 2 0 2 C0 1.34 0 0.68 0 0 Z " fill="#E3E2E3" transform="translate(232,710)"/>
<path d="M0 0 C0.66 0 1.32 0 2 0 C2 0.66 2 1.32 2 2 C1.34 2 0.68 2 0 2 C0 1.34 0 0.68 0 0 Z " fill="#EBEAED" transform="translate(782,653)"/>
<path d="M0 0 C0.66 0 1.32 0 2 0 C2 0.66 2 1.32 2 2 C1.34 2 0.68 2 0 2 C0 1.34 0 0.68 0 0 Z " fill="#EEF0EF" transform="translate(226,635)"/>
<path d="M0 0 C0.66 0 1.32 0 2 0 C2 0.66 2 1.32 2 2 C1.34 2 0.68 2 0 2 C0 1.34 0 0.68 0 0 Z " fill="#F2F2F1" transform="translate(815,627)"/>
<path d="M0 0 C0.66 0 1.32 0 2 0 C2 0.66 2 1.32 2 2 C1.34 2 0.68 2 0 2 C0 1.34 0 0.68 0 0 Z " fill="#E9EAEA" transform="translate(226,627)"/>
<path d="M0 0 C0.66 0 1.32 0 2 0 C2 0.66 2 1.32 2 2 C1.34 2 0.68 2 0 2 C0 1.34 0 0.68 0 0 Z " fill="#BDBEBE" transform="translate(894,622)"/>
<path d="M0 0 C0.66 0 1.32 0 2 0 C2 0.66 2 1.32 2 2 C1.34 2 0.68 2 0 2 C0 1.34 0 0.68 0 0 Z " fill="#F7F6F6" transform="translate(579,544)"/>
<path d="M0 0 C0.66 0 1.32 0 2 0 C2 0.66 2 1.32 2 2 C1.34 2 0.68 2 0 2 C0 1.34 0 0.68 0 0 Z " fill="#E6EAE8" transform="translate(372,543)"/>
<path d="M0 0 C0.99 0.495 0.99 0.495 2 1 C1.67 1.66 1.34 2.32 1 3 C0.67 2.01 0.34 1.02 0 0 Z " fill="#F5F6F7" transform="translate(717,539)"/>
<path d="M0 0 C1 4 1 4 1 4 Z " fill="#EFEFF0" transform="translate(424,471)"/>
<path d="M0 0 C0.66 0 1.32 0 2 0 C2 0.66 2 1.32 2 2 C1.34 2 0.68 2 0 2 C0 1.34 0 0.68 0 0 Z " fill="#F3EFF3" transform="translate(313,469)"/>
<path d="M0 0 C0.66 0 1.32 0 2 0 C2 0.66 2 1.32 2 2 C1.34 2 0.68 2 0 2 C0 1.34 0 0.68 0 0 Z " fill="#F0EFF1" transform="translate(625,465)"/>
<path d="M0 0 C0.66 0 1.32 0 2 0 C2 0.66 2 1.32 2 2 C1.34 2 0.68 2 0 2 C0 1.34 0 0.68 0 0 Z " fill="#EEEFEF" transform="translate(553,404)"/>
<path d="M0 0 C0.66 0 1.32 0 2 0 C2 0.66 2 1.32 2 2 C1.34 2 0.68 2 0 2 C0 1.34 0 0.68 0 0 Z " fill="#EEEFEE" transform="translate(569,381)"/>
<path d="M0 0 C0.66 0 1.32 0 2 0 C2 0.66 2 1.32 2 2 C1.34 2 0.68 2 0 2 C0 1.34 0 0.68 0 0 Z " fill="#EEEFF1" transform="translate(566,382)"/>
<path d="M0 0 C0.66 0 1.32 0 2 0 C2 0.66 2 1.32 2 2 C1.34 2 0.68 2 0 2 C0 1.34 0 0.68 0 0 Z " fill="#EFF0F3" transform="translate(574,371)"/>
<path d="M0 0 C0.66 0 1.32 0 2 0 C2 0.66 2 1.32 2 2 C1.34 2 0.68 2 0 2 C0 1.34 0 0.68 0 0 Z " fill="#B1B2B3" transform="translate(807,369)"/>
<path d="M0 0 C0.66 0 1.32 0 2 0 C2 0.66 2 1.32 2 2 C1.34 2 0.68 2 0 2 C0 1.34 0 0.68 0 0 Z " fill="#E7E8E8" transform="translate(400,303)"/>
<path d="M0 0 C0.66 0 1.32 0 2 0 C2 0.66 2 1.32 2 2 C1.34 2 0.68 2 0 2 C0 1.34 0 0.68 0 0 Z " fill="#E3E4E2" transform="translate(409,292)"/>
<path d="M0 0 C0.66 0 1.32 0 2 0 C2 0.66 2 1.32 2 2 C1.34 2 0.68 2 0 2 C0 1.34 0 0.68 0 0 Z " fill="#7D7E7F" transform="translate(728,45)"/>
<path d="M0 0 C0.66 0 1.32 0 2 0 C2 0.66 2 1.32 2 2 C1.34 2 0.68 2 0 2 C0 1.34 0 0.68 0 0 Z " fill="#828385" transform="translate(641,45)"/>
<path d="M0 0 C0.66 0 1.32 0 2 0 C2 0.66 2 1.32 2 2 C1.34 2 0.68 2 0 2 C0 1.34 0 0.68 0 0 Z " fill="#787878" transform="translate(902,37)"/>
<path d="M0 0 C0.66 0 1.32 0 2 0 C2 0.66 2 1.32 2 2 C1.34 2 0.68 2 0 2 C0 1.34 0 0.68 0 0 Z " fill="#818281" transform="translate(562,37)"/>
<path d="M0 0 C0.66 0 1.32 0 2 0 C1.67 0.66 1.34 1.32 1 2 C0.67 1.34 0.34 0.68 0 0 Z " fill="#E6E6E7" transform="translate(225,717)"/>
<path d="M0 0 C0.66 0.66 1.32 1.32 2 2 C1.34 2 0.68 2 0 2 C0 1.34 0 0.68 0 0 Z " fill="#C1C1C1" transform="translate(764,619)"/>
<path d="M0 0 C0.66 0.66 1.32 1.32 2 2 C1.34 2 0.68 2 0 2 C0 1.34 0 0.68 0 0 Z " fill="#F1F3F4" transform="translate(234,619)"/>
<path d="M0 0 C0.66 0.66 1.32 1.32 2 2 C1.34 2 0.68 2 0 2 C0 1.34 0 0.68 0 0 Z " fill="#F0F4F1" transform="translate(504,600)"/>
<path d="" fill="#C4C4C4" transform="translate(0,0)"/>
<path d="M0 0 C0.66 0 1.32 0 2 0 C1.67 0.66 1.34 1.32 1 2 C0.67 1.34 0.34 0.68 0 0 Z " fill="#EFF0ED" transform="translate(728,559)"/>
<path d="M0 0 C0.99 0.495 0.99 0.495 2 1 C1.01 1.495 1.01 1.495 0 2 C0 1.34 0 0.68 0 0 Z " fill="#EEEEF0" transform="translate(573,558)"/>
<path d="M0 0 C0.66 0.66 1.32 1.32 2 2 C1.34 2 0.68 2 0 2 C0 1.34 0 0.68 0 0 Z " fill="#F5F2F6" transform="translate(709,526)"/>
<path d="M0 0 C0.33 0.66 0.66 1.32 1 2 C0.34 1.67 -0.32 1.34 -1 1 C-0.67 0.67 -0.34 0.34 0 0 Z " fill="#EFEDEF" transform="translate(282,524)"/>
<path d="M0 0 C0.99 0.495 0.99 0.495 2 1 C1.01 1.495 1.01 1.495 0 2 C0 1.34 0 0.68 0 0 Z " fill="#C2C3C4" transform="translate(701,517)"/>
<path d="" fill="#F2F1F2" transform="translate(0,0)"/>
<path d="M0 0 C0.99 0.495 0.99 0.495 2 1 C1.01 1.495 1.01 1.495 0 2 C0 1.34 0 0.68 0 0 Z " fill="#EBE9EA" transform="translate(746,492)"/>
<path d="" fill="#373737" transform="translate(0,0)"/>
<path d="M0 0 C0.66 0.66 1.32 1.32 2 2 C1.34 2 0.68 2 0 2 C0 1.34 0 0.68 0 0 Z " fill="#434343" transform="translate(421,459)"/>
<path d="M0 0 C0.33 0.66 0.66 1.32 1 2 C0.34 1.67 -0.32 1.34 -1 1 C-0.67 0.67 -0.34 0.34 0 0 Z " fill="#F7F3F4" transform="translate(536,437)"/>
<path d="M0 0 C0.33 0.66 0.66 1.32 1 2 C0.34 1.67 -0.32 1.34 -1 1 C-0.67 0.67 -0.34 0.34 0 0 Z " fill="#E9EAEB" transform="translate(346,403)"/>
<path d="M0 0 C2 1 2 1 2 1 Z " fill="#777777" transform="translate(467,1010)"/>
<path d="M0 0 C2 1 2 1 2 1 Z " fill="#767778" transform="translate(563,997)"/>
<path d="M0 0 C2 1 2 1 2 1 Z " fill="#787979" transform="translate(641,994)"/>
<path d="M0 0 C2 1 2 1 2 1 Z " fill="#767879" transform="translate(475,986)"/>
<path d="" fill="#737574" transform="translate(0,0)"/>
<path d="" fill="#757676" transform="translate(0,0)"/>
<path d="" fill="#777879" transform="translate(0,0)"/>
<path d="" fill="#787A79" transform="translate(0,0)"/>
<path d="" fill="#7A7A79" transform="translate(0,0)"/>
<path d="" fill="#767878" transform="translate(0,0)"/>
<path d="" fill="#767979" transform="translate(0,0)"/>
<path d="" fill="#757877" transform="translate(0,0)"/>
<path d="" fill="#767878" transform="translate(0,0)"/>
<path d="" fill="#757876" transform="translate(0,0)"/>
<path d="" fill="#757878" transform="translate(0,0)"/>
<path d="" fill="#787A79" transform="translate(0,0)"/>
<path d="" fill="#787A7A" transform="translate(0,0)"/>
<path d="" fill="#787A7A" transform="translate(0,0)"/>
<path d="" fill="#787A7A" transform="translate(0,0)"/>
<path d="" fill="#79797A" transform="translate(0,0)"/>
<path d="" fill="#747678" transform="translate(0,0)"/>
<path d="" fill="#787979" transform="translate(0,0)"/>
<path d="" fill="#737676" transform="translate(0,0)"/>
<path d="" fill="#747876" transform="translate(0,0)"/>
<path d="" fill="#777A79" transform="translate(0,0)"/>
<path d="" fill="#787A7B" transform="translate(0,0)"/>
<path d="" fill="#767878" transform="translate(0,0)"/>
<path d="M0 0 C2 1 2 1 2 1 Z " fill="#757777" transform="translate(135,955)"/>
<path d="M0 0 C2 1 2 1 2 1 Z " fill="#747676" transform="translate(989,947)"/>
<path d="M0 0 C2 1 2 1 2 1 Z " fill="#7B7C7E" transform="translate(728,947)"/>
<path d="M0 0 C2 1 2 1 2 1 Z " fill="#7C7D7C" transform="translate(649,947)"/>
<path d="M0 0 C2 1 2 1 2 1 Z " fill="#7A7A7B" transform="translate(483,947)"/>
<path d="M0 0 C2 1 2 1 2 1 Z " fill="#797A79" transform="translate(143,947)"/>
<path d="M0 0 C2 1 2 1 2 1 Z " fill="#7B7C7A" transform="translate(484,942)"/>
<path d="M0 0 C2 1 2 1 2 1 Z " fill="#7A7D7C" transform="translate(388,939)"/>
<path d="M0 0 C2 1 2 1 2 1 Z " fill="#777778" transform="translate(981,931)"/>
<path d="M0 0 C2 1 2 1 2 1 Z " fill="#777777" transform="translate(973,931)"/>
<path d="M0 0 C2 1 2 1 2 1 Z " fill="#7D7D7F" transform="translate(807,931)"/>
<path d="M0 0 C2 1 2 1 2 1 Z " fill="#7E8080" transform="translate(736,923)"/>
<path d="M0 0 C2 1 2 1 2 1 Z " fill="#7E7F80" transform="translate(649,923)"/>
<path d="M0 0 C2 1 2 1 2 1 Z " fill="#7E807D" transform="translate(641,923)"/>
<path d="M0 0 C2 1 2 1 2 1 Z " fill="#7E807F" transform="translate(317,923)"/>
<path d="M0 0 C2 1 2 1 2 1 Z " fill="#7B7E7D" transform="translate(902,915)"/>
<path d="M0 0 C2 1 2 1 2 1 Z " fill="#7C7F7E" transform="translate(894,915)"/>
<path d="M0 0 C2 1 2 1 2 1 Z " fill="#818281" transform="translate(736,915)"/>
<path d="M0 0 C2 1 2 1 2 1 Z " fill="#7C7D7D" transform="translate(143,915)"/>
<path d="M0 0 C2 1 2 1 2 1 Z " fill="#808182" transform="translate(821,912)"/>
<path d="M0 0 C2 1 2 1 2 1 Z " fill="#818384" transform="translate(815,907)"/>
<path d="M0 0 C2 1 2 1 2 1 Z " fill="#7F8081" transform="translate(483,907)"/>
<path d="M0 0 C2 1 2 1 2 1 Z " fill="#818181" transform="translate(301,907)"/>
<path d="" fill="#7F8180" transform="translate(0,0)"/>
<path d="" fill="#848584" transform="translate(0,0)"/>
<path d="" fill="#89898A" transform="translate(0,0)"/>
<path d="M0 0 C2 1 2 1 2 1 Z " fill="#7F8181" transform="translate(989,868)"/>
<path d="M0 0 C2 1 2 1 2 1 Z " fill="#808182" transform="translate(973,868)"/>
<path d="M0 0 C2 1 2 1 2 1 Z " fill="#8B8F8C" transform="translate(815,868)"/>
<path d="M0 0 C2 1 2 1 2 1 Z " fill="#858687" transform="translate(483,868)"/>
<path d="M0 0 C2 1 2 1 2 1 Z " fill="#7E7F7E" transform="translate(56,868)"/>
<path d="M0 0 C2 1 2 1 2 1 Z " fill="#7E7F7F" transform="translate(48,868)"/>
<path d="M0 0 C2 1 2 1 2 1 Z " fill="#878786" transform="translate(484,866)"/>
<path d="" fill="#9FA09E" transform="translate(0,0)"/>
<path d="" fill="#929594" transform="translate(0,0)"/>
<path d="M0 0 C2 1 2 1 2 1 Z " fill="#ACAEAD" transform="translate(902,749)"/>
<path d="M0 0 C2 1 2 1 2 1 Z " fill="#D4D6D7" transform="translate(188,724)"/>
<path d="" fill="#D5D6D7" transform="translate(0,0)"/>
<path d="" fill="#EEEBEA" transform="translate(0,0)"/>
<path d="" fill="#B3B5B7" transform="translate(0,0)"/>
<path d="M0 0 C2 1 2 1 2 1 Z " fill="#F1F2F1" transform="translate(239,694)"/>
<path d="M0 0 C2 1 2 1 2 1 Z " fill="#E7E9E9" transform="translate(202,675)"/>
<path d="M0 0 C2 1 2 1 2 1 Z " fill="#E6E7E8" transform="translate(203,672)"/>
<path d="M0 0 C2 1 2 1 2 1 Z " fill="#E9EBEC" transform="translate(789,667)"/>
<path d="" fill="#E8E9E8" transform="translate(0,0)"/>
<path d="" fill="#FBFBFB" transform="translate(0,0)"/>
<path d="" fill="#EAEAEA" transform="translate(0,0)"/>
<path d="" fill="#B0B0B1" transform="translate(0,0)"/>
<path d="" fill="#EAEFED" transform="translate(0,0)"/>
<path d="" fill="#EAEDEB" transform="translate(0,0)"/>
<path d="M0 0 C2 1 2 1 2 1 Z " fill="#F3F5F5" transform="translate(226,633)"/>
<path d="" fill="#E0DFE0" transform="translate(0,0)"/>
<path d="" fill="#F1F0F1" transform="translate(0,0)"/>
<path d="" fill="#FFFFFF" transform="translate(0,0)"/>
<path d="" fill="#EBEBED" transform="translate(0,0)"/>
<path d="" fill="#CDCDCD" transform="translate(0,0)"/>
<path d="" fill="#A8A8AA" transform="translate(0,0)"/>
<path d="" fill="#E6E7E8" transform="translate(0,0)"/>
<path d="" fill="#FCFDFD" transform="translate(0,0)"/>
<path d="" fill="#F8F7F8" transform="translate(0,0)"/>
<path d="M0 0 C2 1 2 1 2 1 Z " fill="#EBEFEB" transform="translate(809,613)"/>
<path d="M0 0 C2 1 2 1 2 1 Z " fill="#EFEFEE" transform="translate(807,612)"/>
<path d="" fill="#ECECEC" transform="translate(0,0)"/>
<path d="M0 0 C2 1 2 1 2 1 Z " fill="#EBEDED" transform="translate(806,609)"/>
<path d="" fill="#E9E8EB" transform="translate(0,0)"/>
<path d="M0 0 C2 1 2 1 2 1 Z " fill="#F0F1EF" transform="translate(546,600)"/>
<path d="" fill="#EEEEEF" transform="translate(0,0)"/>
<path d="M0 0 C2 1 2 1 2 1 Z " fill="#EBF0EE" transform="translate(547,598)"/>
<path d="M0 0 C2 1 2 1 2 1 Z " fill="#E9E9EA" transform="translate(557,590)"/>
<path d="M0 0 C2 1 2 1 2 1 Z " fill="#F5F4F5" transform="translate(555,584)"/>
<path d="M0 0 C2 1 2 1 2 1 Z " fill="#EEEFEF" transform="translate(309,576)"/>
<path d="M0 0 C2 1 2 1 2 1 Z " fill="#9E9F9E" transform="translate(981,575)"/>
<path d="" fill="#FDFEFE" transform="translate(0,0)"/>
<path d="M0 0 C2 1 2 1 2 1 Z " fill="#EEF0ED" transform="translate(311,575)"/>
<path d="M0 0 C2 1 2 1 2 1 Z " fill="#F5F7F5" transform="translate(562,572)"/>
<path d="M0 0 C2 1 2 1 2 1 Z " fill="#EEEEEE" transform="translate(480,561)"/>
<path d="" fill="#F0F2F1" transform="translate(0,0)"/>
<path d="M0 0 C2 1 2 1 2 1 Z " fill="#EFEFEF" transform="translate(726,558)"/>
<path d="" fill="#FDFCFD" transform="translate(0,0)"/>
<path d="" fill="#F1F2F2" transform="translate(0,0)"/>
<path d="" fill="#E8E9E9" transform="translate(0,0)"/>
<path d="M0 0 C2 1 2 1 2 1 Z " fill="#E6E7E7" transform="translate(369,541)"/>
<path d="" fill="#EDEDED" transform="translate(0,0)"/>
<path d="M0 0 C2 1 2 1 2 1 Z " fill="#E8EDEB" transform="translate(361,536)"/>
<path d="" fill="#F0F1F2" transform="translate(0,0)"/>
<path d="M0 0 C2 1 2 1 2 1 Z " fill="#F1F0F0" transform="translate(334,533)"/>
<path d="" fill="#F2F3F3" transform="translate(0,0)"/>
<path d="M0 0 C2 1 2 1 2 1 Z " fill="#EFEDEF" transform="translate(351,529)"/>
<path d="M0 0 C2 1 2 1 2 1 Z " fill="#989998" transform="translate(989,528)"/>
<path d="M0 0 C2 1 2 1 2 1 Z " fill="#F1F1F2" transform="translate(388,520)"/>
<path d="M0 0 C2 1 2 1 2 1 Z " fill="#F1F1F2" transform="translate(450,512)"/>
<path d="M0 0 C2 1 2 1 2 1 Z " fill="#EDEDEC" transform="translate(755,509)"/>
<path d="M0 0 C2 1 2 1 2 1 Z " fill="#EEEDED" transform="translate(753,507)"/>
<path d="M0 0 C2 1 2 1 2 1 Z " fill="#ECE9EB" transform="translate(291,507)"/>
<path d="" fill="#F5F5F6" transform="translate(0,0)"/>
<path d="M0 0 C2 1 2 1 2 1 Z " fill="#F6F7F7" transform="translate(646,504)"/>
<path d="M0 0 C2 1 2 1 2 1 Z " fill="#F8F9FA" transform="translate(398,501)"/>
<path d="M0 0 C2 1 2 1 2 1 Z " fill="#F1F2F0" transform="translate(637,493)"/>
<path d="M0 0 C2 1 2 1 2 1 Z " fill="#EDECEC" transform="translate(742,492)"/>
<path d="" fill="#F2F1F3" transform="translate(0,0)"/>
<path d="" fill="#FCFBFA" transform="translate(0,0)"/>
<path d="" fill="#F4F5F4" transform="translate(0,0)"/>
<path d="" fill="#F1F2F0" transform="translate(0,0)"/>
<path d="" fill="#F7F6F9" transform="translate(0,0)"/>
<path d="" fill="#AFB0B0" transform="translate(0,0)"/>
<path d="" fill="#969695" transform="translate(0,0)"/>
<path d="" fill="#363636" transform="translate(0,0)"/>
<path d="" fill="#F4F5F6" transform="translate(0,0)"/>
<path d="" fill="#EDECEE" transform="translate(0,0)"/>
<path d="M0 0 C2 1 2 1 2 1 Z " fill="#8F9190" transform="translate(989,433)"/>
<path d="M0 0 C2 1 2 1 2 1 Z " fill="#F3F2F2" transform="translate(544,422)"/>
<path d="" fill="#ECEBEA" transform="translate(0,0)"/>
<path d="M0 0 C2 1 2 1 2 1 Z " fill="#EDEEEE" transform="translate(551,403)"/>
<path d="" fill="#EFF0F0" transform="translate(0,0)"/>
<path d="" fill="#EFEFF2" transform="translate(0,0)"/>
<path d="" fill="#EEEEEE" transform="translate(0,0)"/>
<path d="" fill="#E9ECEC" transform="translate(0,0)"/>
<path d="" fill="#F3F1F2" transform="translate(0,0)"/>
<path d="" fill="#EEEEF0" transform="translate(0,0)"/>
<path d="" fill="#A0A2A3" transform="translate(0,0)"/>
<path d="" fill="#F2F3F1" transform="translate(0,0)"/>
<path d="" fill="#8D908F" transform="translate(0,0)"/>
<path d="" fill="#F1F1F3" transform="translate(0,0)"/>
<path d="" fill="#F3F2F4" transform="translate(0,0)"/>
<path d="" fill="#F5F7F6" transform="translate(0,0)"/>
<path d="M0 0 C2 1 2 1 2 1 Z " fill="#EFEFF1" transform="translate(469,364)"/>
<path d="" fill="#E9E9EA" transform="translate(0,0)"/>
<path d="M0 0 C2 1 2 1 2 1 Z " fill="#F3F2F2" transform="translate(385,338)"/>
<path d="M0 0 C2 1 2 1 2 1 Z " fill="#F1F1F1" transform="translate(385,335)"/>
<path d="M0 0 C2 1 2 1 2 1 Z " fill="#EEF0F1" transform="translate(598,332)"/>
<path d="M0 0 C2 1 2 1 2 1 Z " fill="#EEECEA" transform="translate(650,323)"/>
<path d="M0 0 C2 1 2 1 2 1 Z " fill="#898A89" transform="translate(989,322)"/>
<path d="" fill="#EFEFF1" transform="translate(0,0)"/>
<path d="" fill="#F5F5F6" transform="translate(0,0)"/>
<path d="M0 0 C2 1 2 1 2 1 Z " fill="#878A87" transform="translate(989,306)"/>
<path d="M0 0 C2 1 2 1 2 1 Z " fill="#F2F4F2" transform="translate(641,306)"/>
<path d="" fill="#E9E9EA" transform="translate(0,0)"/>
<path d="" fill="#E8EAEB" transform="translate(0,0)"/>
<path d="" fill="#F0EEEE" transform="translate(0,0)"/>
<path d="" fill="#E6E7E9" transform="translate(0,0)"/>
<path d="" fill="#DADADC" transform="translate(0,0)"/>
<path d="M0 0 C2 1 2 1 2 1 Z " fill="#969798" transform="translate(816,246)"/>
<path d="M0 0 C2 1 2 1 2 1 Z " fill="#8C8E8D" transform="translate(143,243)"/>
<path d="" fill="#868787" transform="translate(0,0)"/>
<path d="" fill="#7F8080" transform="translate(0,0)"/>
<path d="" fill="#828585" transform="translate(0,0)"/>
<path d="" fill="#7E7E7F" transform="translate(0,0)"/>
<path d="M0 0 C2 1 2 1 2 1 Z " fill="#808080" transform="translate(902,180)"/>
<path d="M0 0 C2 1 2 1 2 1 Z " fill="#7E807E" transform="translate(902,156)"/>
<path d="M0 0 C2 1 2 1 2 1 Z " fill="#979899" transform="translate(649,156)"/>
<path d="M0 0 C2 1 2 1 2 1 Z " fill="#7C7D7E" transform="translate(902,140)"/>
<path d="" fill="#7B7C7C" transform="translate(0,0)"/>
<path d="" fill="#808381" transform="translate(0,0)"/>
<path d="" fill="#7B7E7E" transform="translate(0,0)"/>
<path d="M0 0 C2 1 2 1 2 1 Z " fill="#757878" transform="translate(973,93)"/>
<path d="M0 0 C2 1 2 1 2 1 Z " fill="#888988" transform="translate(649,93)"/>
<path d="M0 0 C2 1 2 1 2 1 Z " fill="#757777" transform="translate(48,85)"/>
<path d="M0 0 C2 1 2 1 2 1 Z " fill="#7C7C7D" transform="translate(807,69)"/>
<path d="M0 0 C2 1 2 1 2 1 Z " fill="#858485" transform="translate(649,69)"/>
<path d="M0 0 C2 1 2 1 2 1 Z " fill="#757575" transform="translate(989,61)"/>
<path d="" fill="#777878" transform="translate(0,0)"/>
<path d="" fill="#7B7B79" transform="translate(0,0)"/>
<path d="" fill="#777B7A" transform="translate(0,0)"/>
<path d="" fill="#828383" transform="translate(0,0)"/>
<path d="" fill="#838383" transform="translate(0,0)"/>
<path d="" fill="#7D7D7D" transform="translate(0,0)"/>
<path d="" fill="#797A7D" transform="translate(0,0)"/>
<path d="M0 0 C2 1 2 1 2 1 Z " fill="#7D7E7F" transform="translate(736,30)"/>
<path d="M0 0 C2 1 2 1 2 1 Z " fill="#828384" transform="translate(475,30)"/>
<path d="M0 0 C2 1 2 1 2 1 Z " fill="#747575" transform="translate(990,17)"/>
<path d="M0 0 C2 1 2 1 2 1 Z " fill="#747676" transform="translate(981,14)"/>
<path d="M0 0 C2 1 2 1 2 1 Z " fill="#7B7E7C" transform="translate(728,14)"/>
<path d="M0 0 C2 1 2 1 2 1 Z " fill="#7F8180" transform="translate(641,14)"/>
<path d="M0 0 C2 1 2 1 2 1 Z " fill="#7E7F7F" transform="translate(301,14)"/>
<path d="M0 0 C2 1 2 1 2 1 Z " fill="#808282" transform="translate(641,6)"/>
<path d="" fill="#767878" transform="translate(0,0)"/>
<path d="" fill="#77797A" transform="translate(0,0)"/>
<path d="" fill="#79797A" transform="translate(0,0)"/>
<path d="" fill="#77797A" transform="translate(0,0)"/>
<path d="" fill="#767878" transform="translate(0,0)"/>
<path d="" fill="#777779" transform="translate(0,0)"/>
<path d="" fill="#767777" transform="translate(0,0)"/>
<path d="" fill="#777779" transform="translate(0,0)"/>
<path d="" fill="#777779" transform="translate(0,0)"/>
<path d="" fill="#777778" transform="translate(0,0)"/>
<path d="" fill="#777776" transform="translate(0,0)"/>
<path d="" fill="#777679" transform="translate(0,0)"/>
<path d="" fill="#77797B" transform="translate(0,0)"/>
<path d="" fill="#777878" transform="translate(0,0)"/>
<path d="" fill="#777879" transform="translate(0,0)"/>
<path d="" fill="#757877" transform="translate(0,0)"/>
<path d="" fill="#747676" transform="translate(0,0)"/>
<path d="" fill="#707373" transform="translate(0,0)"/>
<path d="" fill="#747678" transform="translate(0,0)"/>
<path d="" fill="#767777" transform="translate(0,0)"/>
<path d="" fill="#777A79" transform="translate(0,0)"/>
<path d="" fill="#757676" transform="translate(0,0)"/>
<path d="" fill="#767978" transform="translate(0,0)"/>
<path d="" fill="#7A7B7A" transform="translate(0,0)"/>
<path d="" fill="#7A7B7C" transform="translate(0,0)"/>
<path d="" fill="#7A7C7D" transform="translate(0,0)"/>
<path d="" fill="#7A7C7D" transform="translate(0,0)"/>
<path d="" fill="#7A7C7C" transform="translate(0,0)"/>
<path d="" fill="#777877" transform="translate(0,0)"/>
<path d="" fill="#7A7B7B" transform="translate(0,0)"/>
<path d="" fill="#7A7C7D" transform="translate(0,0)"/>
<path d="" fill="#767777" transform="translate(0,0)"/>
<path d="" fill="#7C7F7F" transform="translate(0,0)"/>
<path d="" fill="#7D7F7F" transform="translate(0,0)"/>
<path d="" fill="#7D7E7E" transform="translate(0,0)"/>
<path d="" fill="#777978" transform="translate(0,0)"/>
<path d="" fill="#777A7A" transform="translate(0,0)"/>
<path d="" fill="#7A7A7B" transform="translate(0,0)"/>
<path d="" fill="#7D7E7F" transform="translate(0,0)"/>
<path d="" fill="#7C807D" transform="translate(0,0)"/>
<path d="" fill="#7F807F" transform="translate(0,0)"/>
<path d="" fill="#807F80" transform="translate(0,0)"/>
<path d="" fill="#7F8081" transform="translate(0,0)"/>
<path d="" fill="#80807F" transform="translate(0,0)"/>
<path d="" fill="#7E7E81" transform="translate(0,0)"/>
<path d="" fill="#7C7F7D" transform="translate(0,0)"/>
<path d="" fill="#7E7F7E" transform="translate(0,0)"/>
<path d="" fill="#7E7E7F" transform="translate(0,0)"/>
<path d="" fill="#7C7F7F" transform="translate(0,0)"/>
<path d="" fill="#7D7F7E" transform="translate(0,0)"/>
<path d="" fill="#7E8080" transform="translate(0,0)"/>
<path d="" fill="#787979" transform="translate(0,0)"/>
<path d="" fill="#7B7D7C" transform="translate(0,0)"/>
<path d="" fill="#7F7F80" transform="translate(0,0)"/>
<path d="" fill="#7F7F80" transform="translate(0,0)"/>
<path d="" fill="#7F8181" transform="translate(0,0)"/>
<path d="" fill="#818181" transform="translate(0,0)"/>
<path d="" fill="#818182" transform="translate(0,0)"/>
<path d="" fill="#7D7F80" transform="translate(0,0)"/>
<path d="" fill="#807F81" transform="translate(0,0)"/>
<path d="" fill="#7E8180" transform="translate(0,0)"/>
<path d="" fill="#7E807F" transform="translate(0,0)"/>
<path d="" fill="#7F8081" transform="translate(0,0)"/>
<path d="" fill="#7E8180" transform="translate(0,0)"/>
<path d="" fill="#7D7E7E" transform="translate(0,0)"/>
<path d="" fill="#7C7F7E" transform="translate(0,0)"/>
<path d="" fill="#767878" transform="translate(0,0)"/>
<path d="" fill="#808081" transform="translate(0,0)"/>
<path d="" fill="#818281" transform="translate(0,0)"/>
<path d="" fill="#818382" transform="translate(0,0)"/>
<path d="" fill="#838383" transform="translate(0,0)"/>
<path d="" fill="#818283" transform="translate(0,0)"/>
<path d="" fill="#848784" transform="translate(0,0)"/>
<path d="" fill="#898C8C" transform="translate(0,0)"/>
<path d="" fill="#89888A" transform="translate(0,0)"/>
<path d="" fill="#838484" transform="translate(0,0)"/>
<path d="" fill="#8B8D8C" transform="translate(0,0)"/>
<path d="" fill="#8A898A" transform="translate(0,0)"/>
<path d="" fill="#8B8B8B" transform="translate(0,0)"/>
<path d="" fill="#898A8A" transform="translate(0,0)"/>
<path d="" fill="#8E8F90" transform="translate(0,0)"/>
<path d="" fill="#969898" transform="translate(0,0)"/>
<path d="" fill="#B2B2B2" transform="translate(0,0)"/>
<path d="" fill="#A0A1A1" transform="translate(0,0)"/>
<path d="" fill="#E0E2E2" transform="translate(0,0)"/>
<path d="" fill="#E8EBEC" transform="translate(0,0)"/>
<path d="" fill="#EBEBEA" transform="translate(0,0)"/>
<path d="" fill="#EAE9E9" transform="translate(0,0)"/>
<path d="" fill="#EAE8EA" transform="translate(0,0)"/>
<path d="" fill="#F4F0F1" transform="translate(0,0)"/>
<path d="" fill="#F2F1F3" transform="translate(0,0)"/>
<path d="" fill="#E7E8EB" transform="translate(0,0)"/>
<path d="" fill="#F6F6F4" transform="translate(0,0)"/>
<path d="" fill="#EFECEF" transform="translate(0,0)"/>
<path d="" fill="#F5F4F5" transform="translate(0,0)"/>
<path d="" fill="#E9E9E9" transform="translate(0,0)"/>
<path d="" fill="#EDEEED" transform="translate(0,0)"/>
<path d="" fill="#EEEEF0" transform="translate(0,0)"/>
<path d="" fill="#FAFAFA" transform="translate(0,0)"/>
<path d="" fill="#E1E1E1" transform="translate(0,0)"/>
<path d="" fill="#F0F0F1" transform="translate(0,0)"/>
<path d="" fill="#EFF1F0" transform="translate(0,0)"/>
<path d="" fill="#F9F6F6" transform="translate(0,0)"/>
<path d="" fill="#9D9D9E" transform="translate(0,0)"/>
<path d="" fill="#D3D4D5" transform="translate(0,0)"/>
<path d="" fill="#9D9E9E" transform="translate(0,0)"/>
<path d="" fill="#F1F1F2" transform="translate(0,0)"/>
<path d="" fill="#FAFCFC" transform="translate(0,0)"/>
<path d="" fill="#E2E2E1" transform="translate(0,0)"/>
<path d="" fill="#E9E9E9" transform="translate(0,0)"/>
<path d="" fill="#EBEAEA" transform="translate(0,0)"/>
<path d="" fill="#EDECED" transform="translate(0,0)"/>
<path d="" fill="#5C5D5D" transform="translate(0,0)"/>
<path d="" fill="#9D9B9C" transform="translate(0,0)"/>
<path d="" fill="#5B5B5B" transform="translate(0,0)"/>
<path d="" fill="#F0F1F0" transform="translate(0,0)"/>
<path d="" fill="#EFEDEF" transform="translate(0,0)"/>
<path d="" fill="#F9FBF9" transform="translate(0,0)"/>
<path d="" fill="#F1EEED" transform="translate(0,0)"/>
<path d="" fill="#EDEEF0" transform="translate(0,0)"/>
<path d="" fill="#EDEBEC" transform="translate(0,0)"/>
<path d="" fill="#F0F2F2" transform="translate(0,0)"/>
<path d="" fill="#EDEFEF" transform="translate(0,0)"/>
<path d="" fill="#F5F2F4" transform="translate(0,0)"/>
<path d="" fill="#FFFFFF" transform="translate(0,0)"/>
<path d="" fill="#F3F3F2" transform="translate(0,0)"/>
<path d="" fill="#ECEBEC" transform="translate(0,0)"/>
<path d="" fill="#EDECED" transform="translate(0,0)"/>
<path d="" fill="#FAFBFB" transform="translate(0,0)"/>
<path d="" fill="#F7F7F7" transform="translate(0,0)"/>
<path d="" fill="#F0EFEF" transform="translate(0,0)"/>
<path d="" fill="#FFFFFC" transform="translate(0,0)"/>
<path d="" fill="#F7F7F6" transform="translate(0,0)"/>
<path d="" fill="#E6E6E7" transform="translate(0,0)"/>
<path d="" fill="#EEECED" transform="translate(0,0)"/>
<path d="" fill="#DBDEDC" transform="translate(0,0)"/>
<path d="" fill="#EEEDEE" transform="translate(0,0)"/>
<path d="" fill="#F2F2F3" transform="translate(0,0)"/>
<path d="" fill="#F0F0F0" transform="translate(0,0)"/>
<path d="" fill="#EFF1F1" transform="translate(0,0)"/>
<path d="" fill="#EFEEF0" transform="translate(0,0)"/>
<path d="" fill="#F6F6F5" transform="translate(0,0)"/>
<path d="" fill="#EDECEC" transform="translate(0,0)"/>
<path d="" fill="#EDEDED" transform="translate(0,0)"/>
<path d="" fill="#F1F1F2" transform="translate(0,0)"/>
<path d="" fill="#E9E9E6" transform="translate(0,0)"/>
<path d="" fill="#F7F6F7" transform="translate(0,0)"/>
<path d="" fill="#EFEEEF" transform="translate(0,0)"/>
<path d="" fill="#F5F4F4" transform="translate(0,0)"/>
<path d="" fill="#F3F3F2" transform="translate(0,0)"/>
<path d="" fill="#F1F0F0" transform="translate(0,0)"/>
<path d="" fill="#ECECED" transform="translate(0,0)"/>
<path d="" fill="#FCF6F9" transform="translate(0,0)"/>
<path d="" fill="#F0EEEF" transform="translate(0,0)"/>
<path d="" fill="#F0F2F1" transform="translate(0,0)"/>
<path d="" fill="#F1EFEF" transform="translate(0,0)"/>
<path d="" fill="#EFF0F0" transform="translate(0,0)"/>
<path d="" fill="#F0F0EF" transform="translate(0,0)"/>
<path d="" fill="#EDF0EF" transform="translate(0,0)"/>
<path d="" fill="#EFEFF0" transform="translate(0,0)"/>
<path d="" fill="#FBFBFD" transform="translate(0,0)"/>
<path d="" fill="#EAE9E9" transform="translate(0,0)"/>
<path d="" fill="#F1F1F0" transform="translate(0,0)"/>
<path d="" fill="#EEF0EF" transform="translate(0,0)"/>
<path d="" fill="#EFEDEE" transform="translate(0,0)"/>
<path d="" fill="#F4F5F4" transform="translate(0,0)"/>
<path d="" fill="#FFFFFF" transform="translate(0,0)"/>
<path d="" fill="#F8F7F8" transform="translate(0,0)"/>
<path d="" fill="#F2F3F4" transform="translate(0,0)"/>
<path d="" fill="#F0F2EF" transform="translate(0,0)"/>
<path d="" fill="#F1EFEF" transform="translate(0,0)"/>
<path d="" fill="#F2F4F4" transform="translate(0,0)"/>
<path d="" fill="#EFEFEE" transform="translate(0,0)"/>
<path d="" fill="#F2F2F2" transform="translate(0,0)"/>
<path d="" fill="#F3F8F6" transform="translate(0,0)"/>
<path d="" fill="#F0EFF1" transform="translate(0,0)"/>
<path d="" fill="#F4F3F5" transform="translate(0,0)"/>
<path d="" fill="#F3F3F6" transform="translate(0,0)"/>
<path d="" fill="#F7F6F5" transform="translate(0,0)"/>
<path d="" fill="#EEF0EF" transform="translate(0,0)"/>
<path d="" fill="#EBEBEA" transform="translate(0,0)"/>
<path d="" fill="#F3F2F2" transform="translate(0,0)"/>
<path d="" fill="#F6F3F5" transform="translate(0,0)"/>
<path d="" fill="#F5F5F6" transform="translate(0,0)"/>
<path d="" fill="#EFF1F0" transform="translate(0,0)"/>
<path d="" fill="#F7F7F7" transform="translate(0,0)"/>
<path d="" fill="#F7F6F9" transform="translate(0,0)"/>
<path d="" fill="#989999" transform="translate(0,0)"/>
<path d="" fill="#9B9C9B" transform="translate(0,0)"/>
<path d="" fill="#EDEDEE" transform="translate(0,0)"/>
<path d="" fill="#F0F0EE" transform="translate(0,0)"/>
<path d="" fill="#F2F0EF" transform="translate(0,0)"/>
<path d="" fill="#F7F9F8" transform="translate(0,0)"/>
<path d="" fill="#EFEDEE" transform="translate(0,0)"/>
<path d="" fill="#EDEEEE" transform="translate(0,0)"/>
<path d="" fill="#EEEFED" transform="translate(0,0)"/>
<path d="" fill="#EBECEB" transform="translate(0,0)"/>
<path d="" fill="#EDECEB" transform="translate(0,0)"/>
<path d="" fill="#EEECEC" transform="translate(0,0)"/>
<path d="" fill="#8B8D8E" transform="translate(0,0)"/>
<path d="" fill="#F2F0F1" transform="translate(0,0)"/>
<path d="" fill="#F3F1F3" transform="translate(0,0)"/>
<path d="" fill="#FEFEFE" transform="translate(0,0)"/>
<path d="" fill="#F2F3F3" transform="translate(0,0)"/>
<path d="" fill="#E9EAEA" transform="translate(0,0)"/>
<path d="" fill="#EBECEE" transform="translate(0,0)"/>
<path d="" fill="#F4F3F3" transform="translate(0,0)"/>
<path d="" fill="#EEEFEE" transform="translate(0,0)"/>
<path d="" fill="#FAFAFC" transform="translate(0,0)"/>
<path d="" fill="#EEEEEE" transform="translate(0,0)"/>
<path d="" fill="#EDECED" transform="translate(0,0)"/>
<path d="" fill="#FFFFFF" transform="translate(0,0)"/>
<path d="" fill="#EFEFF0" transform="translate(0,0)"/>
<path d="" fill="#EDEEEF" transform="translate(0,0)"/>
<path d="" fill="#EDEDEE" transform="translate(0,0)"/>
<path d="" fill="#EEECED" transform="translate(0,0)"/>
<path d="" fill="#EFEDEF" transform="translate(0,0)"/>
<path d="" fill="#E9E7E8" transform="translate(0,0)"/>
<path d="" fill="#878A8A" transform="translate(0,0)"/>
<path d="" fill="#9A9B9C" transform="translate(0,0)"/>
<path d="" fill="#EBEBEC" transform="translate(0,0)"/>
<path d="" fill="#989A97" transform="translate(0,0)"/>
<path d="" fill="#FEFDFD" transform="translate(0,0)"/>
<path d="" fill="#EAE9EC" transform="translate(0,0)"/>
<path d="" fill="#E9E7E7" transform="translate(0,0)"/>
<path d="" fill="#8A8D8B" transform="translate(0,0)"/>
<path d="" fill="#BDBEBD" transform="translate(0,0)"/>
<path d="" fill="#EAEAEA" transform="translate(0,0)"/>
<path d="" fill="#8C8D8D" transform="translate(0,0)"/>
<path d="" fill="#87898A" transform="translate(0,0)"/>
<path d="" fill="#E7E8E9" transform="translate(0,0)"/>
<path d="" fill="#EAEAE8" transform="translate(0,0)"/>
<path d="" fill="#E5E5E6" transform="translate(0,0)"/>
<path d="" fill="#EAE8EB" transform="translate(0,0)"/>
<path d="" fill="#E7E6E5" transform="translate(0,0)"/>
<path d="" fill="#E9E7E8" transform="translate(0,0)"/>
<path d="" fill="#878888" transform="translate(0,0)"/>
<path d="" fill="#DCDCDD" transform="translate(0,0)"/>
<path d="" fill="#868887" transform="translate(0,0)"/>
<path d="" fill="#868687" transform="translate(0,0)"/>
<path d="" fill="#7F8182" transform="translate(0,0)"/>
<path d="" fill="#7F7F80" transform="translate(0,0)"/>
<path d="" fill="#838685" transform="translate(0,0)"/>
<path d="" fill="#9D9EA0" transform="translate(0,0)"/>
<path d="" fill="#7A7A7A" transform="translate(0,0)"/>
<path d="" fill="#8A8C8D" transform="translate(0,0)"/>
<path d="" fill="#838484" transform="translate(0,0)"/>
<path d="" fill="#808182" transform="translate(0,0)"/>
<path d="" fill="#929492" transform="translate(0,0)"/>
<path d="" fill="#969797" transform="translate(0,0)"/>
<path d="" fill="#787B7C" transform="translate(0,0)"/>
<path d="" fill="#939495" transform="translate(0,0)"/>
<path d="" fill="#898A8B" transform="translate(0,0)"/>
<path d="" fill="#767877" transform="translate(0,0)"/>
<path d="" fill="#8C8C8C" transform="translate(0,0)"/>
<path d="" fill="#767979" transform="translate(0,0)"/>
<path d="" fill="#7B7D7D" transform="translate(0,0)"/>
<path d="" fill="#777778" transform="translate(0,0)"/>
<path d="" fill="#7C7C7D" transform="translate(0,0)"/>
<path d="" fill="#767878" transform="translate(0,0)"/>
<path d="" fill="#868688" transform="translate(0,0)"/>
<path d="" fill="#747676" transform="translate(0,0)"/>
<path d="" fill="#787979" transform="translate(0,0)"/>
<path d="" fill="#797A79" transform="translate(0,0)"/>
<path d="" fill="#7A7B7B" transform="translate(0,0)"/>
<path d="" fill="#808283" transform="translate(0,0)"/>
<path d="" fill="#878688" transform="translate(0,0)"/>
<path d="" fill="#828384" transform="translate(0,0)"/>
<path d="" fill="#808081" transform="translate(0,0)"/>
<path d="" fill="#777877" transform="translate(0,0)"/>
<path d="" fill="#7A7A7B" transform="translate(0,0)"/>
<path d="" fill="#7B7F7D" transform="translate(0,0)"/>
<path d="" fill="#828281" transform="translate(0,0)"/>
<path d="" fill="#828484" transform="translate(0,0)"/>
<path d="" fill="#838585" transform="translate(0,0)"/>
<path d="" fill="#787879" transform="translate(0,0)"/>
<path d="" fill="#818383" transform="translate(0,0)"/>
<path d="" fill="#7E7E80" transform="translate(0,0)"/>
<path d="" fill="#777677" transform="translate(0,0)"/>
<path d="" fill="#727676" transform="translate(0,0)"/>
<path d="" fill="#777A7A" transform="translate(0,0)"/>
<path d="" fill="#838484" transform="translate(0,0)"/>
<path d="" fill="#757776" transform="translate(0,0)"/>
<path d="" fill="#747677" transform="translate(0,0)"/>
<path d="" fill="#7F8182" transform="translate(0,0)"/>
<path d="" fill="#828383" transform="translate(0,0)"/>
<path d="" fill="#757676" transform="translate(0,0)"/>
<path d="" fill="#777878" transform="translate(0,0)"/>
<path d="" fill="#79797A" transform="translate(0,0)"/>
<path d="" fill="#7A7B7B" transform="translate(0,0)"/>
<path d="" fill="#7F8080" transform="translate(0,0)"/>
<path d="" fill="#818183" transform="translate(0,0)"/>
<path d="" fill="#818382" transform="translate(0,0)"/>
<path d="" fill="#7D7E7E" transform="translate(0,0)"/>
<path d="" fill="#7C7F7E" transform="translate(0,0)"/>
<path d="" fill="#7B7D7D" transform="translate(0,0)"/>
<path d="" fill="#7A7C7B" transform="translate(0,0)"/>
<path d="" fill="#747576" transform="translate(0,0)"/>
<path d="" fill="#767876" transform="translate(0,0)"/>
<path d="" fill="#7E8080" transform="translate(0,0)"/>
<path d="" fill="#828383" transform="translate(0,0)"/>
<path d="" fill="#7D7F80" transform="translate(0,0)"/>
<path d="" fill="#787978" transform="translate(0,0)"/>
</svg>
