<?xml version="1.0" encoding="UTF-8"?>
<svg version="1.1" xmlns="http://www.w3.org/2000/svg" width="1024" height="1024">
<path d="M0 0 C0.66 0 1.32 0 2 0 C2.34828857 0.65701904 2.69657715 1.31403809 3.05541992 1.9909668 C6.87721254 9.10954951 11.00007586 15.9820129 15.3125 22.8125 C15.97330566 23.86493896 16.63411133 24.91737793 17.31494141 26.00170898 C20.80063778 31.54441869 24.31430275 37.06771702 27.875 42.5625 C31.24956759 47.77601734 34.45973471 53.06878461 37.63305664 58.40551758 C40.82749493 63.7586029 44.17800725 68.99812674 47.56640625 74.23046875 C56.3488993 87.80077864 64.84620072 101.55377279 73.33691406 115.30761719 C75.59880477 118.96940973 77.8654472 122.62825097 80.13208008 126.28710938 C82.75633581 130.52374016 85.37823437 134.76182798 88 139 C88.59337158 139.9585791 88.59337158 139.9585791 89.19873047 140.93652344 C91.47659371 144.61781441 93.74281198 148.30599826 96 152 C96.5566333 152.90806396 96.5566333 152.90806396 97.12451172 153.83447266 C110 174.87594072 110 174.87594072 110 179 C110.66 179 111.32 179 112 179 C112.66 176.36 113.32 173.72 114 171 C114.66 171 115.32 171 116 171 C116.10868408 170.44530029 116.21736816 169.89060059 116.3293457 169.3190918 C117.12272513 166.57562214 118.32319256 164.38039495 119.73046875 161.89453125 C120.28669922 160.91033203 120.84292969 159.92613281 121.41601562 158.91210938 C122.00060547 157.88923828 122.58519531 156.86636719 123.1875 155.8125 C124.03538086 154.30719727 124.03538086 154.30719727 124.90039062 152.77148438 C127.98530538 147.34019688 131.21334751 142.07972922 134.72485352 136.91479492 C136.26601581 134.60054337 137.59389075 132.2167321 138.875 129.75 C142.31011369 123.32705306 146.14542497 117.17748276 150 111 C154.48377949 103.77279903 158.89483007 96.51688442 163.15625 89.15625 C165.21833777 85.62623535 167.32497751 82.12495771 169.4375 78.625 C172.30536879 73.87332324 175.09385471 69.08941424 177.8125 64.25 C181.07662753 58.48708145 184.56234793 52.89513379 188.125 47.3125 C191.77098829 41.59613724 195.27298521 35.88118823 198.44140625 29.8828125 C200.56472488 25.95547127 202.80728518 22.1027618 205.0625 18.25 C205.4745166 17.54020996 205.8865332 16.83041992 206.31103516 16.09912109 C208.98547042 11.54714053 211.87496826 7.25583646 215 3 C216.5 4.375 216.5 4.375 218 6 C218 6.66 218 7.32 218 8 C218.66 8.33 219.32 8.66 220 9 C221.17259332 11.1697593 222.25484233 13.33702328 223.3125 15.5625 C226.98608909 23.09892903 230.88915324 30.49933641 234.875 37.875 C235.73218628 39.47130249 235.73218628 39.47130249 236.60668945 41.09985352 C237.14640381 42.09557373 237.68611816 43.09129395 238.2421875 44.1171875 C238.7254248 45.01034668 239.20866211 45.90350586 239.70654297 46.82373047 C240.94249266 49.10687721 240.94249266 49.10687721 243 51 C243.68490075 52.65925682 244.34854083 54.32733053 245 56 C246.00206021 57.96621662 247.03181323 59.91845394 248.08203125 61.859375 C248.68466797 62.97570312 249.28730469 64.09203125 249.90820312 65.2421875 C250.85083008 66.97855469 250.85083008 66.97855469 251.8125 68.75 C252.42931641 69.89210938 253.04613281 71.03421875 253.68164062 72.2109375 C258.33006187 80.80631792 263.03439715 89.35991166 267.9375 97.8125 C270.9499329 103.04213428 273.70264977 108.35087089 276.35546875 113.7734375 C278.74000044 118.45187735 281.33005623 123.00811772 283.92944336 127.56982422 C286.86499618 132.72259489 286.86499618 132.72259489 288.140625 135.34375 C288.99720902 137.19852995 288.99720902 137.19852995 291 139 C292.16608802 141.23649702 293.28104264 143.47857286 294.375 145.75 C297.67230167 152.46644002 301.15346061 159.06420948 304.75 165.625 C305.26038818 166.55626709 305.77077637 167.48753418 306.29663086 168.44702148 C307.86238091 171.29914122 309.43074783 174.14980584 311 177 C317.93903667 189.60760906 324.72807444 202.27471159 331.33325195 215.06079102 C336.19700581 224.44642564 341.15013916 233.81950591 346.7421875 242.796875 C348 245 348 245 348 247 C348.99 247 349.98 247 351 247 C350.67 247.99 350.34 248.98 350 250 C350.75214817 251.91884303 350.75214817 251.91884303 352.02734375 253.88671875 C352.48592773 254.65234131 352.94451172 255.41796387 353.41699219 256.20678711 C353.91875977 257.02542236 354.42052734 257.84405762 354.9375 258.6875 C358.61191354 264.83786874 362.12049906 270.99153272 365.25 277.4375 C367.50682725 282.07208637 369.85283431 286.57017093 372.5 291 C375.10425801 295.36578983 377.45113714 299.81261549 379.6875 304.375 C384.29973943 313.76075392 389.35189135 322.8955325 394.38818359 332.05859375 C397.11157956 337.02852326 399.80488194 342.0146964 402.5 347 C405.68854163 352.89592838 408.88069177 358.78962404 412.1015625 364.66796875 C417.44903326 374.42813389 422.71532028 384.22097966 427.84936523 394.09521484 C431.21327681 400.54719845 434.68344625 406.9357287 438.1875 413.3125 C441.79497391 419.90342404 445.38274132 426.50198392 448.8125 433.1875 C449.15627686 433.84081299 449.50005371 434.49412598 449.85424805 435.16723633 C450.64850405 436.74070641 451.33485393 438.36775266 452 440 C451.67 440.99 451.34 441.98 451 443 C446.07042741 443.07414321 441.14117919 443.12859817 436.21118164 443.16479492 C434.5340408 443.17988384 432.85693943 443.20035748 431.17993164 443.22631836 C428.76959496 443.26269811 426.35977981 443.27972486 423.94921875 443.29296875 C423.19912033 443.30845261 422.44902191 443.32393646 421.67619324 443.33988953 C416.4657619 443.34157496 416.4657619 443.34157496 414.13208008 441.63012695 C413.75849365 441.09218506 413.38490723 440.55424316 413 440 C412.319375 439.21625 411.63875 438.4325 410.9375 437.625 C409.03999241 435.05418326 408.17494312 432.94781103 407 430 C405.86085819 427.7566429 404.69238687 425.52801544 403.5 423.3125 C402.8915625 422.17425781 402.283125 421.03601563 401.65625 419.86328125 C400.15379088 416.98177325 400.15379088 416.98177325 398 415 C396.62518063 412.76591852 395.29868457 410.52740338 394 408.25 C393.64421875 407.6415625 393.2884375 407.033125 392.921875 406.40625 C390.79807165 402.69751877 389.21468801 399.12487803 388 395 C387.34 395 386.68 395 386 395 C385.3503125 393.576875 385.3503125 393.576875 384.6875 392.125 C383.20697799 388.79958063 383.20697799 388.79958063 380 387 C380.33 386.34 380.66 385.68 381 385 C379.07847841 380.84114825 376.63376017 376.94682434 374.3125 373 C373.67376953 371.88109375 373.03503906 370.7621875 372.37695312 369.609375 C371.75369141 368.54203125 371.13042969 367.4746875 370.48828125 366.375 C369.91634033 365.39273437 369.34439941 364.41046875 368.75512695 363.3984375 C366.96620021 360.9538115 365.80042271 360.04358813 363 359 C363.66 358.67 364.32 358.34 365 358 C364.505 357.566875 364.01 357.13375 363.5 356.6875 C362 355 362 355 362 352 C360.88156215 349.9810018 359.68000875 348.00760384 358.4375 346.0625 C357.70291776 344.90460198 356.96988017 343.74572278 356.23828125 342.5859375 C355.67874756 341.69986816 355.67874756 341.69986816 355.10791016 340.79589844 C352.762058 336.99332276 350.61692248 333.07181646 348.4453125 329.16796875 C347.96835937 328.45253906 347.49140625 327.73710938 347 327 C346.34 327 345.68 327 345 327 C345.33 325.68 345.66 324.36 346 323 C345.34 322.67 344.68 322.34 344 322 C343.29093791 320.68872079 342.63777914 319.34739007 342 318 C340.61063165 315.40921499 339.15406083 312.86019493 337.6875 310.3125 C337.30916016 309.62349609 336.93082031 308.93449219 336.54101562 308.22460938 C334.25752083 304.13433396 334.25752083 304.13433396 330.20703125 302.04296875 C329.47871094 302.02878906 328.75039063 302.01460937 328 302 C328.268125 301.195625 328.53625 300.39125 328.8125 299.5625 C329.08299027 294.42318481 326.71653273 291.22989525 324 287 C323.34 287 322.68 287 322 287 C321.91621094 286.3090625 321.83242188 285.618125 321.74609375 284.90625 C320.80759476 281.2505262 319.107984 278.66624648 317.0625 275.5 C314.63995133 271.73647611 312.50506279 268.22363171 311 264 C310.34 264 309.68 264 309 264 C309 263.01 309 262.02 309 261 C308.01 260.67 307.02 260.34 306 260 C305.63342987 258.67541885 305.30887517 257.33921059 305 256 C303.85692 253.93313592 302.66469605 251.89305572 301.4375 249.875 C298 244.21730382 298 244.21730382 298 242 C297.34 241.67 296.68 241.34 296 241 C295.236875 240.01 294.47375 239.02 293.6875 238 C292.01442082 235.98646866 291.08133562 235.03956868 288.6875 233.875 C281.79516766 234.1955736 274.90070649 239.41704505 270 244 C269.67 244.99 269.34 245.98 269 247 C268.34 246.67 267.68 246.34 267 246 C266.5875 246.43054688 266.175 246.86109375 265.75 247.3046875 C263.92455327 249.07308902 262.0290435 250.59553161 260 252.125 C259.319375 252.64320313 258.63875 253.16140625 257.9375 253.6953125 C256 255 256 255 253 256 C243.75357828 240.26140984 235.91992188 223.90728583 228.13671875 207.40576172 C227.10739828 205.22729867 226.07043345 203.05267537 225.03125 200.87890625 C224.4846875 199.72261719 223.938125 198.56632813 223.375 197.375 C222.90835937 196.39273438 222.44171875 195.41046875 221.9609375 194.3984375 C221 192 221 192 221 189 C220.01 188.67 219.02 188.34 218 188 C217.896875 187.319375 217.79375 186.63875 217.6875 185.9375 C216.86275709 182.41359846 215.4533512 179.30802994 214 176 C208.509483 184.75316854 203.34199977 193.62427116 198.375 202.6875 C194.42879528 209.872342 190.46688269 217.01671605 186.15087891 223.98754883 C184.86054119 226.09096119 184.86054119 226.09096119 184 229 C183.34 229 182.68 229 182 229 C181.58754028 230.0823291 181.58754028 230.0823291 181.16674805 231.18652344 C177.32604667 240.44792596 171.69842862 249.08608328 166.6875 257.75 C166.35718781 258.32192078 166.02687561 258.89384155 165.68655396 259.48309326 C161.32035754 267.04158634 156.8974649 274.55928951 152.37890625 282.02734375 C147.3960965 290.30413643 142.58357297 298.68389489 137.72583008 307.03442383 C119.54431222 338.2765935 119.54431222 338.2765935 111 352 C107.93400228 349.15222869 105.83429147 346.33668676 103.7578125 342.7109375 C103.16613281 341.68613281 102.57445312 340.66132812 101.96484375 339.60546875 C101.35769531 338.53941406 100.75054687 337.47335937 100.125 336.375 C98.91985633 334.27830919 97.71413273 332.1819516 96.5078125 330.0859375 C95.63431152 328.55984863 95.63431152 328.55984863 94.74316406 327.00292969 C92.5806416 323.27757586 90.33428415 319.60702678 88.06201172 315.94775391 C87 314 87 314 87 312 C86.01 311.67 85.02 311.34 84 311 C82.78930321 309.00591117 81.99889102 306.99701429 81.1875 304.8125 C79.44973101 300.69673134 77.21267317 296.8764007 75 293 C74.34 293 73.68 293 73 293 C72.9175 292.31292969 72.835 291.62585938 72.75 290.91796875 C71.81329174 287.27358817 70.02204971 284.43395087 68 281.3125 C64.02777778 275.05555556 64.02777778 275.05555556 63 273 C62.01 272.67 61.02 272.34 60 272 C59.87238281 270.72576172 59.87238281 270.72576172 59.7421875 269.42578125 C58.89074816 265.49571653 57.25380364 262.53330787 55.125 259.1875 C54.59712891 258.31061523 54.59712891 258.31061523 54.05859375 257.41601562 C51.81810533 253.78216058 51.81810533 253.78216058 48 252 C48.33 251.01 48.66 250.02 49 249 C47.68017868 246.08511811 47.68017868 246.08511811 45.6953125 242.890625 C45.34076492 242.2915181 44.98621735 241.69241119 44.6209259 241.07514954 C43.46519287 239.12754662 42.29528927 237.18888458 41.125 235.25 C40.33055124 233.91712747 39.53701291 232.58371187 38.74438477 231.24975586 C36.83581751 228.04291688 34.91640648 224.84277761 32.9911499 221.64593506 C31.70601738 219.51180311 30.42524648 217.37506625 29.14453125 215.23828125 C27.73788275 212.89366895 26.32721959 210.55164944 24.9140625 208.2109375 C22.16204984 203.59429585 19.51203586 198.92255228 16.86328125 194.24609375 C14.66265862 190.41230464 12.36726809 186.64316469 10.03125 182.890625 C9 181 9 181 9 179 C8.195625 178.855625 7.39125 178.71125 6.5625 178.5625 C4 178 4 178 3 177 C2.45730469 178.08539063 1.91460937 179.17078125 1.35546875 180.2890625 C-0.08203125 183.1640625 -1.51953125 186.0390625 -2.95703125 188.9140625 C-3.30467529 189.60959229 -3.65231934 190.30512207 -4.01049805 191.02172852 C-4.88320148 192.76648942 -5.75785651 194.51027386 -6.6328125 196.25390625 C-7.46722646 197.9298863 -8.29150721 199.61102402 -9.09765625 201.30078125 C-9.41605469 201.96464844 -9.73445312 202.62851562 -10.0625 203.3125 C-10.38347656 203.98925781 -10.70445312 204.66601562 -11.03515625 205.36328125 C-12 207 -12 207 -14 208 C-14.6944566 209.65528011 -15.35280142 211.32567739 -16 213 C-17.37442291 215.82465514 -18.8445465 218.59802497 -20.3125 221.375 C-20.74111328 222.1892041 -21.16972656 223.0034082 -21.61132812 223.84228516 C-25.81620767 231.76743933 -30.23567571 239.56854447 -34.70825195 247.34521484 C-35.23765381 248.27027832 -35.76705566 249.1953418 -36.3125 250.1484375 C-36.78300781 250.96489746 -37.25351562 251.78135742 -37.73828125 252.62255859 C-39.01557041 255.02933913 -40.03555067 257.45360475 -41 260 C-41.99 260 -42.98 260 -44 260 C-44.33 259.34 -44.66 258.68 -45 258 C-46.31774196 257.60955794 -47.65667272 257.29044914 -49 257 C-52.125 256.1875 -52.125 256.1875 -55 255 C-55.69937532 253.68352881 -56.36729133 252.34977849 -57 251 C-58.64991582 250.29289322 -60.3207762 249.63437344 -62 249 C-64.4109703 247.42436588 -66.68847925 245.72230958 -69 244 C-69.66 244.99 -70.32 245.98 -71 247 C-71.33 245.35 -71.66 243.7 -72 242 C-75.96 243.98 -75.96 243.98 -80 246 C-80 246.66 -80 247.32 -80 248 C-80.74693115 248.73984131 -81.4938623 249.47968262 -82.26342773 250.24194336 C-85.0571105 253.05755886 -86.81504115 255.69871377 -88.78515625 259.12890625 C-89.12278488 259.7111496 -89.46041351 260.29339294 -89.80827332 260.89328003 C-90.90003718 262.77906392 -91.98112221 264.67074496 -93.0625 266.5625 C-94.2059422 268.54208968 -95.3521831 270.52004231 -96.4984436 272.4980011 C-97.26155547 273.81540792 -98.02374483 275.13334954 -98.78500366 276.451828 C-101.88282324 281.81521143 -105.04722746 287.13609589 -108.25 292.4375 C-114.04596679 302.05481996 -119.76153611 311.71855449 -125.46142578 321.39306641 C-126.93723363 323.89364974 -128.41880013 326.390719 -129.90234375 328.88671875 C-130.78906832 330.38280905 -131.67578739 331.87890261 -132.5625 333.375 C-132.9558252 334.03395264 -133.34915039 334.69290527 -133.75439453 335.37182617 C-135.66597751 338.60441841 -137.45224904 341.85553039 -139.109375 345.2265625 C-140.46291546 347.97901723 -141.89521382 350.50264028 -143.6875 353 C-146.39182069 356.95557355 -148.75149559 361.05716291 -151.0625 365.25 C-155.25661659 372.84452949 -159.79961927 380.19502132 -164.39916992 387.54931641 C-167.67816777 392.81025397 -170.78514773 398.10762271 -173.67578125 403.59375 C-175.71647924 407.30192098 -178.0409965 410.81924845 -180.33984375 414.37109375 C-182.29712548 417.47050693 -184.06349927 420.64471294 -185.80078125 423.87109375 C-187.04116572 426.0730792 -188.41007424 428.14832553 -189.8125 430.25 C-191.75055857 433.27821652 -192.57482501 435.32111995 -192 439 C-192.99 438.67 -193.98 438.34 -195 438 C-195.12375 438.639375 -195.2475 439.27875 -195.375 439.9375 C-195.58125 440.618125 -195.7875 441.29875 -196 442 C-199.17290713 443.58645357 -202.58825384 443.12078213 -206.0703125 443.09765625 C-207.26465408 443.09553383 -207.26465408 443.09553383 -208.48312378 443.09336853 C-211.0304538 443.08776345 -213.57769647 443.07521014 -216.125 443.0625 C-217.85025915 443.05748565 -219.57551967 443.05292263 -221.30078125 443.04882812 C-225.53388791 443.03779237 -229.76692914 443.02052436 -234 443 C-233.22671006 438.70258095 -231.79838383 435.17673245 -229.8125 431.3125 C-229.30976563 430.31742432 -229.30976563 430.31742432 -228.796875 429.30224609 C-224.55305268 420.98649843 -220.0626936 412.79600355 -215.57348633 404.6105957 C-214.98204834 403.52480225 -214.39061035 402.43900879 -213.78125 401.3203125 C-213.24564453 400.34336426 -212.71003906 399.36641602 -212.15820312 398.35986328 C-210.85313706 396.13889064 -210.85313706 396.13889064 -211 394 C-210.34 394 -209.68 394 -209 394 C-208.72526855 393.12077881 -208.45053711 392.24155762 -208.16748047 391.33569336 C-207.08810138 388.25172087 -205.83872579 385.51609287 -204.3203125 382.62890625 C-203.80339844 381.64212891 -203.28648437 380.65535156 -202.75390625 379.63867188 C-202.21636719 378.62353516 -201.67882812 377.60839844 -201.125 376.5625 C-200.59519531 375.55123047 -200.06539062 374.53996094 -199.51953125 373.49804688 C-196.77267707 368.27357112 -193.96405487 363.10407789 -191 358 C-186.11490116 349.50889922 -181.41005939 340.97286957 -177.07543945 332.18676758 C-171.21778642 320.33060466 -164.91794984 308.7011859 -158.65917969 297.0534668 C-158.0227658 295.86898896 -157.38637276 294.68449993 -156.75 293.5 C-156.43244751 292.9090152 -156.11489502 292.3180304 -155.78771973 291.70913696 C-149.81921346 280.59442433 -143.99615176 269.40853715 -138.20703125 258.19921875 C-135.066312 252.11900142 -131.88800033 246.05938837 -128.69067383 240.00878906 C-126.44335544 235.75284635 -124.21310589 231.48869386 -122 227.21484375 C-117.14706654 217.84948023 -112.25433064 208.55219466 -106.95703125 199.4296875 C-104.56638754 195.24009633 -102.27034094 191.00572047 -100 186.75 C-99.60143799 186.00959473 -99.20287598 185.26918945 -98.79223633 184.50634766 C-96.72726409 180.94986415 -96.72726409 180.94986415 -96 177 C-95.34 177 -94.68 177 -94 177 C-93.74734375 176.32066406 -93.4946875 175.64132812 -93.234375 174.94140625 C-91.78376185 171.48472364 -90.04088592 168.22515133 -88.25 164.9375 C-85.83982803 160.47156139 -83.47740027 155.99836722 -81.25 151.4375 C-79.25726721 147.3852389 -77.14507384 143.42162667 -74.9609375 139.46875 C-74.41405273 138.47818604 -73.86716797 137.48762207 -73.30371094 136.46704102 C-72.19544956 134.4669806 -71.08162043 132.469994 -69.96191406 130.47631836 C-69.45112305 129.55471924 -68.94033203 128.63312012 -68.4140625 127.68359375 C-67.71724365 126.43920532 -67.71724365 126.43920532 -67.00634766 125.16967773 C-65.78961681 122.94503243 -65.78961681 122.94503243 -66 120 C-65.01 120 -64.02 120 -63 120 C-62.73316406 119.13761719 -62.46632813 118.27523437 -62.19140625 117.38671875 C-61.00685114 114.01947522 -59.572666 110.98239182 -57.9375 107.8125 C-56.42292815 104.86852783 -55.04722531 102.14167593 -54 99 C-53.34 99 -52.68 99 -52 99 C-51.72397949 98.28191162 -51.44795898 97.56382324 -51.16357422 96.82397461 C-50.02785425 94.0676018 -48.75685125 91.46122529 -47.3828125 88.81640625 C-46.86412598 87.81714111 -46.34543945 86.81787598 -45.81103516 85.78833008 C-44.97644775 84.19154419 -44.97644775 84.19154419 -44.125 82.5625 C-43.54927246 81.45737061 -42.97354492 80.35224121 -42.38037109 79.21362305 C-38.05903364 70.94946377 -33.62324787 62.75279057 -29.12207031 54.58544922 C-25.65460127 48.27278757 -22.39859138 41.89007392 -19.3046875 35.38671875 C-18 33 -18 33 -16 32 C-15.32781104 30.00184924 -14.66259474 28.00135271 -14 26 C-12.66030236 23.1763296 -11.17602856 20.43505909 -9.6875 17.6875 C-9.28668213 16.93927979 -8.88586426 16.19105957 -8.47290039 15.42016602 C-5.69797616 10.25246587 -2.88011587 5.10988299 0 0 Z M5 174 C6 176 6 176 6 176 Z " fill="#F9FAF9" transform="translate(408,288)"/>
<path d="M0 0 C2.13937401 2.01001651 3.70138209 3.94324881 5.1640625 6.484375 C5.55899902 7.1640332 5.95393555 7.84369141 6.36083984 8.54394531 C6.7780127 9.27194336 7.19518555 9.99994141 7.625 10.75 C8.52539851 12.30245653 9.42645186 13.85453343 10.328125 15.40625 C10.77865234 16.18355469 11.22917969 16.96085938 11.69335938 17.76171875 C13.55219985 20.94592082 15.46347366 24.0972681 17.375 27.25 C21.43124445 33.97077279 25.32310036 40.7810582 29.2043457 47.60400391 C33.70018312 55.49909856 38.2704616 63.34934488 42.85595703 71.19262695 C46.44202125 77.32694465 50.0108803 83.47068656 53.5625 89.625 C58.18235288 97.62573738 62.87328772 105.58353754 67.58618164 113.52978516 C68.6016543 115.24287091 69.61459017 116.95746395 70.62451172 118.67382812 C71.50545573 120.16364611 72.39680259 121.64739124 73.30126953 123.12304688 C74.26001357 124.71452092 75.13991234 126.35311537 76 128 C75.67 128.66 75.34 129.32 75 130 C72.41152357 127.41152357 70.79879945 124.40441643 69 121.25 C68.64421875 120.6415625 68.2884375 120.033125 67.921875 119.40625 C65.79807165 115.69751877 64.21468801 112.12487803 63 108 C62.34 108 61.68 108 61 108 C60.566875 107.05125 60.13375 106.1025 59.6875 105.125 C58.20697799 101.79958063 58.20697799 101.79958063 55 100 C55.33 99.34 55.66 98.68 56 98 C54.07847841 93.84114825 51.63376017 89.94682434 49.3125 86 C48.67376953 84.88109375 48.03503906 83.7621875 47.37695312 82.609375 C46.75369141 81.54203125 46.13042969 80.4746875 45.48828125 79.375 C44.91634033 78.39273438 44.34439941 77.41046875 43.75512695 76.3984375 C41.96620021 73.9538115 40.80042271 73.04358813 38 72 C38.66 71.67 39.32 71.34 40 71 C39.505 70.566875 39.01 70.13375 38.5 69.6875 C37 68 37 68 37 65 C35.88156215 62.9810018 34.68000875 61.00760384 33.4375 59.0625 C32.70291776 57.90460198 31.96988017 56.74572278 31.23828125 55.5859375 C30.86525879 54.99522461 30.49223633 54.40451172 30.10791016 53.79589844 C27.762058 49.99332276 25.61692248 46.07181646 23.4453125 42.16796875 C22.96835937 41.45253906 22.49140625 40.73710938 22 40 C21.34 40 20.68 40 20 40 C20.33 38.68 20.66 37.36 21 36 C20.34 35.67 19.68 35.34 19 35 C18.29093791 33.68872079 17.63777914 32.34739007 17 31 C15.61063165 28.40921499 14.15406083 25.86019493 12.6875 23.3125 C12.11999023 22.27899414 12.11999023 22.27899414 11.54101562 21.22460938 C9.25752083 17.13433396 9.25752083 17.13433396 5.20703125 15.04296875 C4.47871094 15.02878906 3.75039063 15.01460937 3 15 C3.2475 14.154375 3.495 13.30875 3.75 12.4375 C4.09302553 7.72089892 2.50465359 5.94672686 0 2 C0 1.34 0 0.68 0 0 Z " fill="#797A7C" transform="translate(733,575)"/>
<path d="M0 0 C2.51700557 2.27650694 3.96232817 4.53350295 5.49609375 7.55078125 C6.20076782 8.92254517 6.20076782 8.92254517 6.91967773 10.32202148 C7.42055908 11.30887939 7.92144043 12.2957373 8.4375 13.3125 C9.51913492 15.41493715 10.60251162 17.51647899 11.6875 19.6171875 C12.23921875 20.68549805 12.7909375 21.75380859 13.359375 22.85449219 C15.82517233 27.58207147 18.37314396 32.26282603 20.9375 36.9375 C21.67504517 38.2829187 21.67504517 38.2829187 22.42749023 39.65551758 C23.43567818 41.49424713 24.44406193 43.33286933 25.45263672 45.17138672 C28.15166766 50.10527319 30.8248726 55.05312479 33.5 60 C36.77102989 66.04801334 40.04720726 72.0929787 43.34765625 78.125 C43.88777344 79.11242187 44.42789063 80.09984375 44.984375 81.1171875 C46.0026277 82.97726298 47.02207161 84.8366871 48.04296875 86.6953125 C49.37275482 89.12458649 50.69034834 91.5598206 52 94 C52.62430908 95.15242187 52.62430908 95.15242187 53.26123047 96.328125 C54.23773785 98.18670644 55.12817126 100.09007689 56 102 C55.67 102.66 55.34 103.32 55 104 C49.74638118 94.9405824 44.6991773 85.79436197 39.81884766 76.52880859 C37.96284683 73.00588332 36.09877642 69.48723495 34.234375 65.96875 C33.86646851 65.27426758 33.49856201 64.57978516 33.11950684 63.86425781 C30.1244435 58.21809728 27.07651278 52.60220178 24 47 C19.27743918 38.38201718 14.6117864 29.73417036 9.9831543 21.06542969 C9.20801492 19.61505419 8.43134267 18.16549678 7.65307617 16.71679688 C6.56256122 14.68587454 5.47783427 12.65196377 4.39453125 10.6171875 C4.06596634 10.00777313 3.73740143 9.39835876 3.39888 8.77047729 C1.87280444 5.88919901 0.58467619 3.22241383 0 0 Z " fill="#636466" transform="translate(777,575)"/>
<path d="M0 0 C2.0272716 1.3034562 4.01571396 2.63402437 6 4 C7.24121709 4.83737771 8.48344239 5.67326251 9.7265625 6.5078125 C10.3659375 6.93707031 11.0053125 7.36632812 11.6640625 7.80859375 C12.63472656 8.46021484 12.63472656 8.46021484 13.625 9.125 C14.27984375 9.56714844 14.9346875 10.00929688 15.609375 10.46484375 C18.6627146 12.5107049 21.63947006 14.48179104 25 16 C19.90551202 15.56826373 16.15487723 15.24599784 12 12 C12 11.34 12 10.68 12 10 C11.319375 9.773125 10.63875 9.54625 9.9375 9.3125 C6.20385676 7.64427643 3.27836579 5.44270392 0 3 C-0.66 3.99 -1.32 4.98 -2 6 C-2.495 3.525 -2.495 3.525 -3 1 C-6.96 2.98 -6.96 2.98 -11 5 C-11 5.66 -11 6.32 -11 7 C-11.74548096 7.73694092 -12.49096191 8.47388184 -13.2590332 9.2331543 C-16.08856389 12.08940007 -17.86242163 14.78885828 -19.85546875 18.26953125 C-20.19915497 18.8637085 -20.54284119 19.45788574 -20.89694214 20.07006836 C-21.62590519 21.33185777 -22.35144578 22.59562985 -23.07376099 23.86123657 C-24.9424839 27.13522683 -26.8358306 30.39493742 -28.7265625 33.65625 C-29.09574295 34.29456253 -29.4649234 34.93287506 -29.84529114 35.5905304 C-34.04819693 42.84164725 -38.47778305 49.94445268 -43 57 C-43.33 56.34 -43.66 55.68 -44 55 C-43.06640625 52.96655273 -43.06640625 52.96655273 -41.5625 50.43359375 C-41.0044165 49.48468262 -40.44633301 48.53577148 -39.87133789 47.55810547 C-39.25379639 46.52830566 -38.63625488 45.49850586 -38 44.4375 C-37.37150146 43.37934082 -36.74300293 42.32118164 -36.09545898 41.23095703 C-34.75664726 38.97913101 -33.41466496 36.72918758 -32.06982422 34.48095703 C-30.0071467 31.02404993 -27.98908674 27.54268245 -25.97265625 24.05859375 C-24.66979953 21.83041994 -23.36642948 19.6025462 -22.0625 17.375 C-21.46115234 16.32755615 -20.85980469 15.2801123 -20.24023438 14.20092773 C-10.04911814 -3.03810548 -10.04911814 -3.03810548 0 0 Z " fill="#6C6D6F" transform="translate(339,529)"/>
<path d="M0 0 C0.66 0 1.32 0 2 0 C4.38721491 4.61390126 6.51394844 9.17312803 8.33178711 14.03588867 C12.40948815 24.88455122 17.36827155 35.27761832 22.4375 45.6875 C22.79186127 46.41732086 23.14622253 47.14714172 23.51132202 47.89907837 C28.23054048 57.60015549 33.14975793 67.18015602 38.23461914 76.69458008 C39.17414121 78.45369906 40.10812542 80.21625084 41 82 C34.28036326 79.76012109 31.27285108 69.71213175 28.25 63.6875 C23.76732917 54.64790216 19.44094454 45.53134722 15.13671875 36.40576172 C14.10739828 34.22729867 13.07043345 32.05267537 12.03125 29.87890625 C11.4846875 28.72261719 10.938125 27.56632812 10.375 26.375 C9.90835938 25.39273437 9.44171875 24.41046875 8.9609375 23.3984375 C8 21 8 21 8 18 C7.01 17.67 6.02 17.34 5 17 C4.896875 16.319375 4.79375 15.63875 4.6875 14.9375 C3.85274981 11.37084011 2.50527246 8.33777806 1 5 C-0.98 7.97 -2.96 10.94 -5 14 C-5.33 13.34 -5.66 12.68 -6 12 C-4.78515625 9.1796875 -4.78515625 9.1796875 -3.0625 5.875 C-2.49660156 4.77929688 -1.93070313 3.68359375 -1.34765625 2.5546875 C-0.90292969 1.71164062 -0.45820312 0.86859375 0 0 Z " fill="#66686A" transform="translate(621,459)"/>
<path d="M0 0 C7.34520759 5.87616607 12.61998109 15.78358155 17 24 C17 24.66 17 25.32 17 26 C17.99 25.67 18.98 25.34 20 25 C20.1036084 25.88010742 20.2072168 26.76021484 20.31396484 27.66699219 C21.03244276 31.15761868 22.10452065 33.31804531 23.9765625 36.328125 C24.85828125 37.77445313 24.85828125 37.77445313 25.7578125 39.25 C26.37398437 40.24 26.99015625 41.23 27.625 42.25 C28.85356497 44.22991875 30.07532035 46.214085 31.2890625 48.203125 C32.10431396 49.51265137 32.10431396 49.51265137 32.93603516 50.84863281 C33.28714355 51.55858398 33.63825195 52.26853516 34 53 C33.505 53.99 33.505 53.99 33 55 C32.34 55 31.68 55 31 55 C30.91621094 54.3090625 30.83242188 53.618125 30.74609375 52.90625 C29.80759476 49.2505262 28.107984 46.66624648 26.0625 43.5 C23.63995133 39.73647611 21.50506279 36.22363171 20 32 C19.34 32 18.68 32 18 32 C18 31.01 18 30.02 18 29 C17.01 28.67 16.02 28.34 15 28 C14.63342987 26.67541885 14.30887517 25.33921059 14 24 C12.85692 21.93313592 11.66469605 19.89305572 10.4375 17.875 C7 12.21730382 7 12.21730382 7 10 C6.34 9.67 5.68 9.34 5 9 C4.236875 8.01 3.47375 7.02 2.6875 6 C1.01442082 3.98646866 0.08133562 3.03956868 -2.3125 1.875 C-9.20483234 2.1955736 -16.09929351 7.41704505 -21 12 C-21.33 12.99 -21.66 13.98 -22 15 C-25 15 -25 15 -27 14 C-7.48253731 -2.05402985 -7.48253731 -2.05402985 0 0 Z " fill="#737375" transform="translate(699,520)"/>
<path d="M0 0 C0.33 0 0.66 0 1 0 C0.5513675 6.02112035 -1.35521915 10.05036524 -4.4375 15.1875 C-5.24932709 16.57645536 -6.06054469 17.96576718 -6.87109375 19.35546875 C-7.23130615 19.96028076 -7.59151855 20.56509277 -7.96264648 21.18823242 C-10.15251116 25.0128937 -11.66191973 28.79460486 -13 33 C-13.66 33 -14.32 33 -15 33 C-15.36158203 33.97839844 -15.36158203 33.97839844 -15.73046875 34.9765625 C-17.37682827 38.89743101 -19.3258781 42.61727671 -21.3125 46.375 C-21.95433228 47.59304321 -21.95433228 47.59304321 -22.60913086 48.83569336 C-27.82345609 58.65617559 -33.33379252 68.31104876 -38.85180664 77.96313477 C-39.60032099 79.29097981 -40.31831882 80.63663763 -41 82 C-41.66 81.67 -42.32 81.34 -43 81 C-28.25564274 53.32552688 -28.25564274 53.32552688 -23.1875 44.375 C-22.84275635 43.76567627 -22.4980127 43.15635254 -22.14282227 42.52856445 C-20.70042539 39.98493542 -19.2535531 37.44389896 -17.80322266 34.90478516 C-11.30867187 23.50830443 -5.47168651 11.92140395 0 0 Z " fill="#6E6F71" transform="translate(409,463)"/>
<path d="M0 0 C4.30397715 3.66189198 6.56457022 8.28443156 9.1875 13.1875 C10.07548795 14.82754642 10.96474315 16.46690756 11.85546875 18.10546875 C12.24371826 18.82887451 12.63196777 19.55228027 13.03198242 20.29760742 C13.8857116 21.97409846 13.8857116 21.97409846 15 23 C17.51880517 23.15988491 20.01342266 23.25934225 22.53515625 23.31640625 C23.66503212 23.3475779 23.66503212 23.3475779 24.81773376 23.37937927 C27.2325599 23.44495425 29.64749798 23.50379621 32.0625 23.5625 C33.69597529 23.6056777 35.3294391 23.64929173 36.96289062 23.69335938 C40.97514464 23.80064362 44.98751164 23.90188821 49 24 C49.495 22.515 49.495 22.515 50 21 C50.5625 22.9375 50.5625 22.9375 51 25 C49.0090037 26.9909963 45.07808726 26.18769591 42.3515625 26.203125 C41.5832309 26.20882507 40.81489929 26.21452515 40.02328491 26.22039795 C38.39411807 26.2298618 36.76493197 26.23638741 35.13574219 26.24023438 C32.64223797 26.24993295 30.14956029 26.28093911 27.65625 26.3125 C26.07552574 26.31903051 24.49479557 26.32428079 22.9140625 26.328125 C22.16710114 26.3404718 21.42013977 26.3528186 20.65054321 26.36553955 C15.46671688 26.34322807 15.46671688 26.34322807 13.13427734 24.62792969 C12.75996582 24.09071289 12.3856543 23.55349609 12 23 C11.319375 22.21625 10.63875 21.4325 9.9375 20.625 C8.04741268 18.06423653 7.17094563 15.93375106 6 13 C4.45950268 10.11456072 2.85250467 7.27272955 1.2421875 4.42578125 C0 2 0 2 0 0 Z " fill="#818384" transform="translate(809,705)"/>
<path d="M0 0 C0.495 0.99 0.495 0.99 1 2 C0.525625 2.763125 0.05125 3.52625 -0.4375 4.3125 C-2.12749356 7.21928892 -2.28205672 8.70933821 -2 12 C-2.99 11.67 -3.98 11.34 -5 11 C-5.185625 11.9590625 -5.185625 11.9590625 -5.375 12.9375 C-5.58125 13.618125 -5.7875 14.29875 -6 15 C-9.17290713 16.58645357 -12.58825384 16.12078213 -16.0703125 16.09765625 C-17.26465408 16.09553383 -17.26465408 16.09553383 -18.48312378 16.09336853 C-21.0304538 16.08776345 -23.57769647 16.07521014 -26.125 16.0625 C-27.85025915 16.05748565 -29.57551967 16.05292263 -31.30078125 16.04882812 C-35.53388791 16.03779237 -39.76692914 16.02052436 -44 16 C-43.31620454 12.04991941 -42.21156817 9.36542982 -40 6 C-39.67 6.66 -39.34 7.32 -39 8 C-39.93446535 10.03144641 -40.93224776 12.03533587 -42 14 C-37.30252871 14.17964074 -32.61397302 14.27198901 -27.91308594 14.28686523 C-26.31826402 14.30380739 -24.72350269 14.34377425 -23.12988281 14.40795898 C-14.25734799 15.05010132 -14.25734799 15.05010132 -6.45849609 11.6605835 C-3.57626015 8.11869014 -1.70821653 4.21137117 0 0 Z " fill="#848687" transform="translate(218,715)"/>
<path d="M0 0 C2.80612879 2.4943367 4.37997638 5.22412195 6.1875 8.5 C10.72158974 16.61499655 15.4808909 24.59467103 20.24032593 32.57861328 C22.50541374 36.37883014 24.7577991 40.18623736 27 44 C27.80945068 45.36390869 27.80945068 45.36390869 28.63525391 46.75537109 C29.10237793 47.56184082 29.56950195 48.36831055 30.05078125 49.19921875 C30.45594971 49.89233154 30.86111816 50.58544434 31.27856445 51.29956055 C31.51663818 51.86070557 31.75471191 52.42185059 32 53 C31.67 53.66 31.34 54.32 31 55 C28.41152357 52.41152357 26.79879945 49.40441643 25 46.25 C24.46632813 45.33734375 24.46632813 45.33734375 23.921875 44.40625 C21.79807165 40.69751877 20.21468801 37.12487803 19 33 C18.34 33 17.68 33 17 33 C16.566875 32.05125 16.13375 31.1025 15.6875 30.125 C14.20697799 26.79958063 14.20697799 26.79958063 11 25 C11.33 24.34 11.66 23.68 12 23 C10.9987644 20.86842317 10.9987644 20.86842317 9.47265625 18.53515625 C8.92802734 17.65279297 8.38339844 16.77042969 7.82226562 15.86132812 C6.95118164 14.4759082 6.95118164 14.4759082 6.0625 13.0625 C4.92236231 11.24464918 3.78796195 9.42318354 2.66015625 7.59765625 C1.89650757 6.38348022 1.89650757 6.38348022 1.11743164 5.14477539 C0 3 0 3 0 0 Z " fill="#6D6F71" transform="translate(777,650)"/>
<path d="M0 0 C0.33 0.66 0.66 1.32 1 2 C0.24316406 3.87597656 0.24316406 3.87597656 -0.984375 6.140625 C-1.42523437 6.96433594 -1.86609375 7.78804688 -2.3203125 8.63671875 C-2.79210937 9.49910156 -3.26390625 10.36148437 -3.75 11.25 C-4.66191915 12.94246012 -5.57338773 14.6351631 -6.484375 16.328125 C-6.91814453 17.12927734 -7.35191406 17.93042969 -7.79882812 18.75585938 C-9.25592681 21.47814619 -10.64100537 24.22765095 -12 27 C-12.66 27 -13.32 27 -14 27 C-15.86708601 23.54849084 -17.71642907 20.08778835 -19.5625 16.625 C-20.09552734 15.64015625 -20.62855469 14.6553125 -21.17773438 13.640625 C-21.92700195 12.22910156 -21.92700195 12.22910156 -22.69140625 10.7890625 C-23.15748291 9.91975098 -23.62355957 9.05043945 -24.10375977 8.15478516 C-24.39951904 7.44370605 -24.69527832 6.73262695 -25 6 C-24.67 5.34 -24.34 4.68 -24 4 C-14 18.1 -14 18.1 -14 24 C-13.34 24 -12.68 24 -12 24 C-11.34 21.36 -10.68 18.72 -10 16 C-9.34 16 -8.68 16 -8 16 C-7.90847656 15.46890625 -7.81695313 14.9378125 -7.72265625 14.390625 C-6.75649098 11.19444585 -5.14884249 8.61260925 -3.4375 5.75 C-2.47650391 4.13351562 -2.47650391 4.13351562 -1.49609375 2.484375 C-1.00238281 1.66453125 -0.50867188 0.8446875 0 0 Z " fill="#7A7B7C" transform="translate(532,443)"/>
<path d="M0 0 C1 3 1 3 -0.1875 5.42578125 C-0.785625 6.37839844 -1.38375 7.33101563 -2 8.3125 C-4.7511388 12.83574411 -7.23540935 17.36149229 -9.5625 22.125 C-12.0441691 27.17180242 -14.69396871 32.01501627 -17.64453125 36.80078125 C-19.50807731 39.82434445 -21.25249263 42.90825619 -23 46 C-23.33 45.34 -23.66 44.68 -24 44 C-23.28735352 42.26000977 -23.28735352 42.26000977 -22.12890625 40.19140625 C-21.71962891 39.44439453 -21.31035156 38.69738281 -20.88867188 37.92773438 C-20.45103516 37.14720703 -20.01339844 36.36667969 -19.5625 35.5625 C-18.70395959 34.02529168 -17.85084293 32.4850381 -17.00390625 30.94140625 C-16.62049072 30.25763916 -16.2370752 29.57387207 -15.84204102 28.86938477 C-14.79465181 26.88582662 -14.79465181 26.88582662 -15 24 C-14.01 24 -13.02 24 -12 24 C-11.73316406 23.13761719 -11.46632813 22.27523438 -11.19140625 21.38671875 C-10.00685114 18.01947522 -8.572666 14.98239182 -6.9375 11.8125 C-5.42292815 8.86852783 -4.04722531 6.14167593 -3 3 C-2.34 3 -1.68 3 -1 3 C-0.67 2.01 -0.34 1.02 0 0 Z " fill="#727375" transform="translate(357,384)"/>
<path d="M0 0 C2.58880534 3.23994702 4.52008855 6.64803803 6.46875 10.3046875 C6.79033081 10.90628693 7.11191162 11.50788635 7.4432373 12.12771606 C8.46529384 14.04182419 9.4826097 15.95840841 10.5 17.875 C11.18330446 19.15510238 11.86689551 20.43505182 12.55078125 21.71484375 C14.37679431 25.13825817 16.19963801 28.56299316 18 32 C18.58716797 33.0842627 19.17433594 34.16852539 19.77929688 35.28564453 C20.38354492 36.62925049 20.38354492 36.62925049 21 38 C20.67 38.66 20.34 39.32 20 40 C17.30240286 35.35061199 14.6417818 30.68125259 12 26 C11.48630859 25.08992187 10.97261719 24.17984375 10.44335938 23.2421875 C8.78536988 20.29202825 7.14120445 17.33452506 5.5 14.375 C4.95956055 13.41513184 4.41912109 12.45526367 3.86230469 11.46630859 C3.36118164 10.55703613 2.86005859 9.64776367 2.34375 8.7109375 C1.89193359 7.89931152 1.44011719 7.08768555 0.97460938 6.25146484 C0 4 0 4 0 0 Z " fill="#77787A" transform="translate(812,639)"/>
<path d="M0 0 C0.66 0 1.32 0 2 0 C5.81354127 7.06211347 8.40417233 14.42528974 11 22 C10.34 22.33 9.68 22.66 9 23 C8.67 21.35 8.34 19.7 8 18 C7.01 17.67 6.02 17.34 5 17 C4.896875 16.319375 4.79375 15.63875 4.6875 14.9375 C3.85274981 11.37084011 2.50527246 8.33777806 1 5 C-0.98 7.97 -2.96 10.94 -5 14 C-5.33 13.34 -5.66 12.68 -6 12 C-4.78515625 9.1796875 -4.78515625 9.1796875 -3.0625 5.875 C-2.49660156 4.77929688 -1.93070313 3.68359375 -1.34765625 2.5546875 C-0.90292969 1.71164062 -0.45820312 0.86859375 0 0 Z " fill="#8D8D8F" transform="translate(621,459)"/>
<path d="M0 0 C3.05979136 2.83540942 5.11057986 5.60292277 7.12890625 9.24609375 C7.68900391 10.24833984 8.24910156 11.25058594 8.82617188 12.28320312 C9.39916016 13.32412109 9.97214844 14.36503906 10.5625 15.4375 C11.70917563 17.49895374 12.85629587 19.56016024 14.00390625 21.62109375 C14.50736572 22.5330249 15.0108252 23.44495605 15.52954102 24.38452148 C16.54634144 26.19308581 17.62467664 27.96791323 18.74975586 29.71118164 C19.16233643 30.4664917 19.57491699 31.22180176 20 32 C19.67 32.66 19.34 33.32 19 34 C15 28.25 15 28.25 15 26 C14.01 25.67 13.02 25.34 12 25 C10.78930321 23.00591117 9.99889102 20.99701429 9.1875 18.8125 C7.44973101 14.69673134 5.21267317 10.8764007 3 7 C2.34 7 1.68 7 1 7 C0.67 4.69 0.34 2.38 0 0 Z " fill="#6D6E71" transform="translate(480,574)"/>
<path d="M0 0 C0.33 0 0.66 0 1 0 C0.5513675 6.02112035 -1.35521915 10.05036524 -4.4375 15.1875 C-5.24932709 16.57645536 -6.06054469 17.96576718 -6.87109375 19.35546875 C-7.41141235 20.26268677 -7.41141235 20.26268677 -7.96264648 21.18823242 C-10.15251116 25.0128937 -11.66191973 28.79460486 -13 33 C-13.66 33 -14.32 33 -15 33 C-15.66 34.32 -16.32 35.64 -17 37 C-17.33 36.34 -17.66 35.68 -18 35 C-16.77758483 32.61966895 -15.49748805 30.35483829 -14.125 28.0625 C-8.83093237 18.97549418 -4.39034716 9.54874559 0 0 Z " fill="#79797B" transform="translate(409,463)"/>
<path d="M0 0 C2.45991502 2.24614576 3.97995344 4.49673846 5.55859375 7.421875 C6.02716797 8.28296875 6.49574219 9.1440625 6.97851562 10.03125 C7.45998047 10.9284375 7.94144531 11.825625 8.4375 12.75 C9.39402793 14.51589772 10.35105043 16.28152765 11.30859375 18.046875 C11.76218262 18.89185547 12.21577148 19.73683594 12.68310547 20.60742188 C13.86961039 22.76310379 15.12648319 24.85467536 16.41015625 26.953125 C16.93480469 27.95859375 17.45945312 28.9640625 18 30 C17.67 30.99 17.34 31.98 17 33 C12.40936981 24.91326488 7.84870272 16.81132936 3.4375 8.625 C3.09138672 7.98941162 2.74527344 7.35382324 2.38867188 6.69897461 C0 2.23486927 0 2.23486927 0 0 Z " fill="#626465" transform="translate(656,352)"/>
<path d="M0 0 C3.67545051 3.24160001 5.75969268 6.93450708 7.9375 11.25 C10.1589049 15.5581004 12.39079785 19.76016964 15.0625 23.8125 C16.0215625 25.3903125 16.0215625 25.3903125 17 27 C16.67 27.66 16.34 28.32 16 29 C14.34747266 26.42073772 12.70286171 23.83698246 11.0625 21.25 C10.59392578 20.52039063 10.12535156 19.79078125 9.64257812 19.0390625 C9.19462891 18.33007812 8.74667969 17.62109375 8.28515625 16.890625 C7.87144775 16.24125977 7.45773926 15.59189453 7.03149414 14.92285156 C5.97543108 12.95420005 5.44353553 11.18160059 5 9 C3.35 8.67 1.7 8.34 0 8 C0.2784375 7.13375 0.2784375 7.13375 0.5625 6.25 C1.04023546 3.79307475 0.75729364 2.35602466 0 0 Z " fill="#606164" transform="translate(412,458)"/>
<path d="M0 0 C0.99 0.66 1.98 1.32 3 2 C1.845 2.53625 0.69 3.0725 -0.5 3.625 C-8.90756262 7.73671132 -8.90756262 7.73671132 -14 15 C-17 15 -17 15 -19 14 C-12.87987207 8.96590729 -6.68364774 4.26203624 0 0 Z " fill="#8B8B8E" transform="translate(691,520)"/>
<path d="M0 0 C4.1363211 1.46256658 7.45421154 3.51844637 11.0625 6 C14.30294598 8.22295411 17.42590379 10.35437297 21 12 C15.90551202 11.56826373 12.15487723 11.24599784 8 8 C8 7.34 8 6.68 8 6 C7.236875 5.7525 6.47375 5.505 5.6875 5.25 C2.7635955 3.89004442 1.69995644 2.68414174 0 0 Z " fill="#79797C" transform="translate(343,533)"/>
<path d="M0 0 C5.71168692 5.25134201 9.36705189 12.48843871 11 20 C8.84261682 17.9861609 7.34234338 16.09796497 5.95703125 13.49609375 C5.43012695 12.50899414 5.43012695 12.50899414 4.89257812 11.50195312 C4.53615234 10.82068359 4.17972656 10.13941406 3.8125 9.4375 C3.44447266 8.75236328 3.07644531 8.06722656 2.69726562 7.36132812 C0 2.26204487 0 2.26204487 0 0 Z " fill="#666869" transform="translate(822,659)"/>
<path d="M0 0 C0.66 0 1.32 0 2 0 C3.76171875 2.5546875 3.76171875 2.5546875 5.6875 5.875 C6.33074219 6.96554687 6.97398437 8.05609375 7.63671875 9.1796875 C8.08660156 10.11039063 8.53648437 11.04109375 9 12 C8.67 12.66 8.34 13.32 8 14 C4 8.25 4 8.25 4 6 C3.01 5.67 2.02 5.34 1 5 C-0.1875 2.9375 -0.1875 2.9375 -1 1 C-0.67 0.67 -0.34 0.34 0 0 Z " fill="#858688" transform="translate(491,594)"/>
<path d="M0 0 C5.23314989 4.73475466 6.42312576 9.19288392 7 16 C5.68 15.67 4.36 15.34 3 15 C3.2475 14.154375 3.495 13.30875 3.75 12.4375 C4.09302553 7.72089892 2.50465359 5.94672686 0 2 C0 1.34 0 0.68 0 0 Z " fill="#A4A5A6" transform="translate(733,575)"/>
<path d="M0 0 C2.27339111 2.88185755 4.07542568 5.79708007 5.75 9.0625 C6.19859375 9.91972656 6.6471875 10.77695312 7.109375 11.66015625 C8 14 8 14 7 17 C3.59375757 11.89063636 0.79282023 6.14435679 0 0 Z " fill="#747577" transform="translate(631,481)"/>
<path d="M0 0 C2.63249349 2.45699392 4.78137264 4.56568654 6 8 C5.67 8.99 5.34 9.98 5 11 C5 10.34 5 9.68 5 9 C3.35 8.67 1.7 8.34 0 8 C0.2784375 7.13375 0.2784375 7.13375 0.5625 6.25 C1.04023546 3.79307475 0.75729364 2.35602466 0 0 Z " fill="#8E8F90" transform="translate(412,458)"/>
<path d="M0 0 C2.95051654 3.45922629 5.25855517 6.7838704 7 11 C6.67 11.99 6.34 12.98 6 14 C4.98915735 12.42356682 3.99169489 10.8385483 3 9.25 C2.443125 8.36828125 1.88625 7.4865625 1.3125 6.578125 C0 4 0 4 0 0 Z " fill="#747678" transform="translate(667,371)"/>
<path d="M0 0 C0.12375 0.5775 0.2475 1.155 0.375 1.75 C1.00648824 4.02335767 1.88858191 5.9253529 3 8 C2.01 8.495 2.01 8.495 1 9 C1 8.34 1 7.68 1 7 C0.34 7 -0.32 7 -1 7 C-1 6.01 -1 5.02 -1 4 C-1.99 3.67 -2.98 3.34 -4 3 C-3 1 -3 1 0 0 Z " fill="#A5A6A6" transform="translate(718,545)"/>
<path d="M0 0 C2.64465038 3.1254959 3.84414715 6.08788267 5 10 C4.01 10.495 4.01 10.495 3 11 C2.67 9.35 2.34 7.7 2 6 C1.01 5.67 0.02 5.34 -1 5 C-0.67 3.35 -0.34 1.7 0 0 Z " fill="#929395" transform="translate(627,471)"/>
<path d="M0 0 C2.31 0.33 4.62 0.66 7 1 C7 1.99 7 2.98 7 4 C5.68 3.34 4.36 2.68 3 2 C2.01 3.485 2.01 3.485 1 5 C0.67 3.35 0.34 1.7 0 0 Z " fill="#C0C1C1" transform="translate(336,530)"/>
<path d="M0 0 C-0.66 1.32 -1.32 2.64 -2 4 C-2.99 3.67 -3.98 3.34 -5 3 C-5 2.34 -5 1.68 -5 1 C-5.99 0.67 -6.98 0.34 -8 0 C-4.94736336 -0.98120464 -3.05263664 -0.98120464 0 0 Z " fill="#D8D9D9" transform="translate(368,545)"/>
<path d="M0 0 C0.33 0 0.66 0 1 0 C0.38461538 6.52307692 0.38461538 6.52307692 -1.5625 8.9375 C-2.036875 9.288125 -2.51125 9.63875 -3 10 C-2.49287967 6.28111761 -1.88391785 3.26545761 0 0 Z " fill="#9B9C9D" transform="translate(409,463)"/>
<path d="M0 0 C3.4297456 0.63513807 6.70466931 1.87659181 10 3 C10 3.33 10 3.66 10 4 C8.741875 3.87625 7.48375 3.7525 6.1875 3.625 C5.12595703 3.52058594 5.12595703 3.52058594 4.04296875 3.4140625 C2 3 2 3 -1 1 C-0.67 0.67 -0.34 0.34 0 0 Z " fill="#909193" transform="translate(354,541)"/>
<path d="M0 0 C0.99 0.66 1.98 1.32 3 2 C0.03 3.32 -2.94 4.64 -6 6 C-3.75 1.5 -3.75 1.5 0 0 Z " fill="#9E9FA1" transform="translate(691,520)"/>
<path d="M0 0 C0.99 0.33 1.98 0.66 3 1 C2.67 1.99 2.34 2.98 2 4 C1.34 2.68 0.68 1.36 0 0 Z " fill="#EAEAEB" transform="translate(420,304)"/>
<path d="M0 0 C0.66 0 1.32 0 2 0 C2.33 1.32 2.66 2.64 3 4 C1.97895449 3.02149805 0.9793879 2.02019573 0 1 C0 0.67 0 0.34 0 0 Z " fill="#EFEFEF" transform="translate(418,474)"/>
<path d="M0 0 C0.66 1.32 1.32 2.64 2 4 C1.34 3.67 0.68 3.34 0 3 C0 2.01 0 1.02 0 0 Z " fill="#EFEEF0" transform="translate(474,571)"/>
<path d="M0 0 C0.99 0.495 0.99 0.495 2 1 C2 1.66 2 2.32 2 3 C1.34 3 0.68 3 0 3 C0 2.01 0 1.02 0 0 Z " fill="#E8E8E9" transform="translate(592,329)"/>
<path d="M0 0 C0.66 0 1.32 0 2 0 C1.67 0.99 1.34 1.98 1 3 C0.67 2.01 0.34 1.02 0 0 Z " fill="#E7E8E7" transform="translate(803,701)"/>
<path d="M0 0 C0.66 0 1.32 0 2 0 C2 0.66 2 1.32 2 2 C1.34 2 0.68 2 0 2 C0 1.34 0 0.68 0 0 Z " fill="#ECEEEF" transform="translate(208,656)"/>
<path d="M0 0 C0.66 0.66 1.32 1.32 2 2 C1.01 1.67 0.02 1.34 -1 1 C-0.67 0.67 -0.34 0.34 0 0 Z " fill="#EDECEC" transform="translate(477,574)"/>
<path d="M0 0 C0.99 0.33 1.98 0.66 3 1 C2.01 1 1.02 1 0 1 C0 0.67 0 0.34 0 0 Z " fill="#EFF0F0" transform="translate(544,411)"/>
<path d="M0 0 C0.99 0.495 0.99 0.495 2 1 C1.01 1.495 1.01 1.495 0 2 C0 1.34 0 0.68 0 0 Z " fill="#E9E9EA" transform="translate(800,696)"/>
<path d="M0 0 C3 1 3 1 3 1 Z " fill="#EEEEEF" transform="translate(768,645)"/>
<path d="M0 0 C0.99 0.495 0.99 0.495 2 1 C1.01 1.495 1.01 1.495 0 2 C0 1.34 0 0.68 0 0 Z " fill="#ECEDEC" transform="translate(277,619)"/>
<path d="" fill="#EFEFEF" transform="translate(0,0)"/>
<path d="" fill="#ECEDEE" transform="translate(0,0)"/>
<path d="M0 0 C0.66 0.66 1.32 1.32 2 2 C1.34 2 0.68 2 0 2 C0 1.34 0 0.68 0 0 Z " fill="#EFF0ED" transform="translate(724,566)"/>
<path d="M0 0 C0.66 0 1.32 0 2 0 C1.67 0.66 1.34 1.32 1 2 C0.67 1.34 0.34 0.68 0 0 Z " fill="#F2F3F2" transform="translate(572,550)"/>
<path d="" fill="#E5E5E7" transform="translate(0,0)"/>
<path d="M0 0 C0.33 0.66 0.66 1.32 1 2 C0.34 1.67 -0.32 1.34 -1 1 C-0.67 0.67 -0.34 0.34 0 0 Z " fill="#F1F0F1" transform="translate(441,516)"/>
<path d="" fill="#F1F1F1" transform="translate(0,0)"/>
<path d="M0 0 C0.99 0.495 0.99 0.495 2 1 C1.01 1.495 1.01 1.495 0 2 C0 1.34 0 0.68 0 0 Z " fill="#EFEFEE" transform="translate(621,465)"/>
<path d="M0 0 C0.33 0.66 0.66 1.32 1 2 C0.34 1.67 -0.32 1.34 -1 1 C-0.67 0.67 -0.34 0.34 0 0 Z " fill="#E9EAEB" transform="translate(337,408)"/>
<path d="M0 0 C0.66 0 1.32 0 2 0 C1.67 0.66 1.34 1.32 1 2 C0.67 1.34 0.34 0.68 0 0 Z " fill="#F0F0F0" transform="translate(576,363)"/>
<path d="M0 0 C2 1 2 1 2 1 Z " fill="#D3D5D6" transform="translate(177,732)"/>
<path d="M0 0 C2 1 2 1 2 1 Z " fill="#E6E7E8" transform="translate(192,680)"/>
<path d="" fill="#E8E9E8" transform="translate(0,0)"/>
<path d="M0 0 C2 1 2 1 2 1 Z " fill="#EBEAED" transform="translate(778,661)"/>
<path d="M0 0 C2 1 2 1 2 1 Z " fill="#F3F3F3" transform="translate(760,627)"/>
<path d="" fill="#EFEEEE" transform="translate(0,0)"/>
<path d="" fill="#F0F1F2" transform="translate(0,0)"/>
<path d="" fill="#ECEDED" transform="translate(0,0)"/>
<path d="" fill="#EEEEEF" transform="translate(0,0)"/>
<path d="" fill="#F0F0F0" transform="translate(0,0)"/>
<path d="" fill="#F1F1F0" transform="translate(0,0)"/>
<path d="" fill="#F2F3F6" transform="translate(0,0)"/>
<path d="M0 0 C2 1 2 1 2 1 Z " fill="#EFF1F1" transform="translate(323,542)"/>
<path d="" fill="#F1F1F2" transform="translate(0,0)"/>
<path d="M0 0 C2 1 2 1 2 1 Z " fill="#F2F0F2" transform="translate(342,535)"/>
<path d="" fill="#EFEDF0" transform="translate(0,0)"/>
<path d="M0 0 C2 1 2 1 2 1 Z " fill="#F1F1F1" transform="translate(697,523)"/>
<path d="M0 0 C2 1 2 1 2 1 Z " fill="#F0F0F2" transform="translate(442,518)"/>
<path d="" fill="#F2F1F1" transform="translate(0,0)"/>
<path d="" fill="#F5F5F6" transform="translate(0,0)"/>
<path d="" fill="#EBEAEA" transform="translate(0,0)"/>
<path d="" fill="#F2F1F3" transform="translate(0,0)"/>
<path d="" fill="#F4F3F2" transform="translate(0,0)"/>
<path d="" fill="#F1F2F1" transform="translate(0,0)"/>
<path d="M0 0 C2 1 2 1 2 1 Z " fill="#F2F2F0" transform="translate(537,427)"/>
<path d="M0 0 C2 1 2 1 2 1 Z " fill="#EEEFEF" transform="translate(546,409)"/>
<path d="" fill="#EFEFEF" transform="translate(0,0)"/>
<path d="" fill="#F0F0F0" transform="translate(0,0)"/>
<path d="" fill="#EFEEF1" transform="translate(0,0)"/>
<path d="" fill="#EBEBEC" transform="translate(0,0)"/>
<path d="M0 0 C2 1 2 1 2 1 Z " fill="#EEEFF0" transform="translate(592,336)"/>
<path d="" fill="#EEEEEF" transform="translate(0,0)"/>
<path d="" fill="#DAD9DB" transform="translate(0,0)"/>
<path d="" fill="#767878" transform="translate(0,0)"/>
<path d="" fill="#77797A" transform="translate(0,0)"/>
<path d="" fill="#79797A" transform="translate(0,0)"/>
<path d="" fill="#77797A" transform="translate(0,0)"/>
<path d="" fill="#777777" transform="translate(0,0)"/>
<path d="" fill="#767878" transform="translate(0,0)"/>
<path d="" fill="#777779" transform="translate(0,0)"/>
<path d="" fill="#767777" transform="translate(0,0)"/>
<path d="" fill="#777779" transform="translate(0,0)"/>
<path d="" fill="#777779" transform="translate(0,0)"/>
<path d="" fill="#777778" transform="translate(0,0)"/>
<path d="" fill="#767778" transform="translate(0,0)"/>
<path d="" fill="#777776" transform="translate(0,0)"/>
<path d="" fill="#787979" transform="translate(0,0)"/>
<path d="" fill="#777679" transform="translate(0,0)"/>
<path d="" fill="#77797B" transform="translate(0,0)"/>
<path d="" fill="#767879" transform="translate(0,0)"/>
<path d="" fill="#777878" transform="translate(0,0)"/>
<path d="" fill="#777879" transform="translate(0,0)"/>
<path d="" fill="#757877" transform="translate(0,0)"/>
<path d="" fill="#747676" transform="translate(0,0)"/>
<path d="" fill="#707373" transform="translate(0,0)"/>
<path d="" fill="#737574" transform="translate(0,0)"/>
<path d="" fill="#757676" transform="translate(0,0)"/>
<path d="" fill="#777879" transform="translate(0,0)"/>
<path d="" fill="#787A79" transform="translate(0,0)"/>
<path d="" fill="#7A7A79" transform="translate(0,0)"/>
<path d="" fill="#777978" transform="translate(0,0)"/>
<path d="" fill="#767878" transform="translate(0,0)"/>
<path d="" fill="#767979" transform="translate(0,0)"/>
<path d="" fill="#757877" transform="translate(0,0)"/>
<path d="" fill="#767878" transform="translate(0,0)"/>
<path d="" fill="#757876" transform="translate(0,0)"/>
<path d="" fill="#757878" transform="translate(0,0)"/>
<path d="" fill="#787A79" transform="translate(0,0)"/>
<path d="" fill="#787A79" transform="translate(0,0)"/>
<path d="" fill="#787A7A" transform="translate(0,0)"/>
<path d="" fill="#787A7A" transform="translate(0,0)"/>
<path d="" fill="#787A7A" transform="translate(0,0)"/>
<path d="" fill="#79797A" transform="translate(0,0)"/>
<path d="" fill="#747678" transform="translate(0,0)"/>
<path d="" fill="#787979" transform="translate(0,0)"/>
<path d="" fill="#737676" transform="translate(0,0)"/>
<path d="" fill="#747876" transform="translate(0,0)"/>
<path d="" fill="#777A79" transform="translate(0,0)"/>
<path d="" fill="#787A7A" transform="translate(0,0)"/>
<path d="" fill="#797B7A" transform="translate(0,0)"/>
<path d="" fill="#7A7C7B" transform="translate(0,0)"/>
<path d="" fill="#787A7B" transform="translate(0,0)"/>
<path d="" fill="#787A7B" transform="translate(0,0)"/>
<path d="" fill="#767878" transform="translate(0,0)"/>
<path d="" fill="#747678" transform="translate(0,0)"/>
<path d="" fill="#767777" transform="translate(0,0)"/>
<path d="" fill="#757777" transform="translate(0,0)"/>
<path d="" fill="#777A79" transform="translate(0,0)"/>
<path d="" fill="#757676" transform="translate(0,0)"/>
<path d="" fill="#747676" transform="translate(0,0)"/>
<path d="" fill="#767978" transform="translate(0,0)"/>
<path d="" fill="#7A7B7A" transform="translate(0,0)"/>
<path d="" fill="#7A7B7C" transform="translate(0,0)"/>
<path d="" fill="#7B7C7E" transform="translate(0,0)"/>
<path d="" fill="#7C7D7C" transform="translate(0,0)"/>
<path d="" fill="#7A7C7D" transform="translate(0,0)"/>
<path d="" fill="#7A7C7D" transform="translate(0,0)"/>
<path d="" fill="#7A7A7B" transform="translate(0,0)"/>
<path d="" fill="#7A7C7C" transform="translate(0,0)"/>
<path d="" fill="#797A79" transform="translate(0,0)"/>
<path d="" fill="#777877" transform="translate(0,0)"/>
<path d="" fill="#7A7B7B" transform="translate(0,0)"/>
<path d="" fill="#7B7C7A" transform="translate(0,0)"/>
<path d="" fill="#7A7C7D" transform="translate(0,0)"/>
<path d="" fill="#7A7D7C" transform="translate(0,0)"/>
<path d="" fill="#777778" transform="translate(0,0)"/>
<path d="" fill="#777777" transform="translate(0,0)"/>
<path d="" fill="#767777" transform="translate(0,0)"/>
<path d="" fill="#7D7D7F" transform="translate(0,0)"/>
<path d="" fill="#7C7F7F" transform="translate(0,0)"/>
<path d="" fill="#7D7F7F" transform="translate(0,0)"/>
<path d="" fill="#7D7E7E" transform="translate(0,0)"/>
<path d="" fill="#777978" transform="translate(0,0)"/>
<path d="" fill="#777A7A" transform="translate(0,0)"/>
<path d="" fill="#7A7A7B" transform="translate(0,0)"/>
<path d="" fill="#7D7E7F" transform="translate(0,0)"/>
<path d="" fill="#7C807D" transform="translate(0,0)"/>
<path d="" fill="#7F807F" transform="translate(0,0)"/>
<path d="" fill="#807F80" transform="translate(0,0)"/>
<path d="" fill="#7F8081" transform="translate(0,0)"/>
<path d="" fill="#7E8080" transform="translate(0,0)"/>
<path d="" fill="#80807F" transform="translate(0,0)"/>
<path d="" fill="#7E7F80" transform="translate(0,0)"/>
<path d="" fill="#7E807D" transform="translate(0,0)"/>
<path d="" fill="#7E7E81" transform="translate(0,0)"/>
<path d="" fill="#7C7F7D" transform="translate(0,0)"/>
<path d="" fill="#7E7F7E" transform="translate(0,0)"/>
<path d="" fill="#7E7E7F" transform="translate(0,0)"/>
<path d="" fill="#7C7F7F" transform="translate(0,0)"/>
<path d="" fill="#7D7F7E" transform="translate(0,0)"/>
<path d="" fill="#7E807F" transform="translate(0,0)"/>
<path d="" fill="#7E8080" transform="translate(0,0)"/>
<path d="" fill="#787979" transform="translate(0,0)"/>
<path d="" fill="#7B7D7C" transform="translate(0,0)"/>
<path d="" fill="#7B7E7D" transform="translate(0,0)"/>
<path d="" fill="#7C7F7E" transform="translate(0,0)"/>
<path d="" fill="#7F7F80" transform="translate(0,0)"/>
<path d="" fill="#7F7F80" transform="translate(0,0)"/>
<path d="" fill="#7F8181" transform="translate(0,0)"/>
<path d="" fill="#818181" transform="translate(0,0)"/>
<path d="" fill="#818182" transform="translate(0,0)"/>
<path d="" fill="#818281" transform="translate(0,0)"/>
<path d="" fill="#7D7F80" transform="translate(0,0)"/>
<path d="" fill="#807F81" transform="translate(0,0)"/>
<path d="" fill="#7E8180" transform="translate(0,0)"/>
<path d="" fill="#7E807F" transform="translate(0,0)"/>
<path d="" fill="#7F8081" transform="translate(0,0)"/>
<path d="" fill="#7E8180" transform="translate(0,0)"/>
<path d="" fill="#7D7E7E" transform="translate(0,0)"/>
<path d="" fill="#7C7F7E" transform="translate(0,0)"/>
<path d="" fill="#7C7D7D" transform="translate(0,0)"/>
<path d="" fill="#767878" transform="translate(0,0)"/>
<path d="" fill="#808182" transform="translate(0,0)"/>
<path d="" fill="#808081" transform="translate(0,0)"/>
<path d="" fill="#818384" transform="translate(0,0)"/>
<path d="" fill="#818281" transform="translate(0,0)"/>
<path d="" fill="#7F8081" transform="translate(0,0)"/>
<path d="" fill="#818181" transform="translate(0,0)"/>
<path d="" fill="#818382" transform="translate(0,0)"/>
<path d="" fill="#838383" transform="translate(0,0)"/>
<path d="" fill="#858787" transform="translate(0,0)"/>
<path d="" fill="#7F8180" transform="translate(0,0)"/>
<path d="" fill="#838485" transform="translate(0,0)"/>
<path d="" fill="#848584" transform="translate(0,0)"/>
<path d="" fill="#89898A" transform="translate(0,0)"/>
<path d="" fill="#7F8181" transform="translate(0,0)"/>
<path d="" fill="#808182" transform="translate(0,0)"/>
<path d="" fill="#818283" transform="translate(0,0)"/>
<path d="" fill="#848784" transform="translate(0,0)"/>
<path d="" fill="#8B8F8C" transform="translate(0,0)"/>
<path d="" fill="#858687" transform="translate(0,0)"/>
<path d="" fill="#898C8C" transform="translate(0,0)"/>
<path d="" fill="#89888A" transform="translate(0,0)"/>
<path d="" fill="#7E7F7E" transform="translate(0,0)"/>
<path d="" fill="#7E7F7F" transform="translate(0,0)"/>
<path d="" fill="#878786" transform="translate(0,0)"/>
<path d="" fill="#838484" transform="translate(0,0)"/>
<path d="" fill="#8B8D8C" transform="translate(0,0)"/>
<path d="" fill="#8A898A" transform="translate(0,0)"/>
<path d="" fill="#8B8B8B" transform="translate(0,0)"/>
<path d="" fill="#898A8A" transform="translate(0,0)"/>
<path d="" fill="#8E8F90" transform="translate(0,0)"/>
<path d="" fill="#969898" transform="translate(0,0)"/>
<path d="" fill="#9FA09E" transform="translate(0,0)"/>
<path d="" fill="#929594" transform="translate(0,0)"/>
<path d="" fill="#8A8B8B" transform="translate(0,0)"/>
<path d="" fill="#8D8F8D" transform="translate(0,0)"/>
<path d="" fill="#B2B2B2" transform="translate(0,0)"/>
<path d="" fill="#ACAEAD" transform="translate(0,0)"/>
<path d="" fill="#A0A1A1" transform="translate(0,0)"/>
<path d="" fill="#DFDFDE" transform="translate(0,0)"/>
<path d="" fill="#D3D4D5" transform="translate(0,0)"/>
<path d="" fill="#E7E8E7" transform="translate(0,0)"/>
<path d="" fill="#E4E5E4" transform="translate(0,0)"/>
<path d="" fill="#E9E7E8" transform="translate(0,0)"/>
<path d="" fill="#E4E3E4" transform="translate(0,0)"/>
<path d="" fill="#B3B5B7" transform="translate(0,0)"/>
<path d="" fill="#E9E7E7" transform="translate(0,0)"/>
<path d="" fill="#E6E6E8" transform="translate(0,0)"/>
<path d="" fill="#E0E2E2" transform="translate(0,0)"/>
<path d="" fill="#E8EBEC" transform="translate(0,0)"/>
<path d="" fill="#E9EBE9" transform="translate(0,0)"/>
<path d="" fill="#F6F5F7" transform="translate(0,0)"/>
<path d="" fill="#E8E9E8" transform="translate(0,0)"/>
<path d="" fill="#EDEEEE" transform="translate(0,0)"/>
<path d="" fill="#E7E7E7" transform="translate(0,0)"/>
<path d="" fill="#E4E8E6" transform="translate(0,0)"/>
<path d="" fill="#EBECED" transform="translate(0,0)"/>
<path d="" fill="#E9E8E8" transform="translate(0,0)"/>
<path d="" fill="#ECEDEC" transform="translate(0,0)"/>
<path d="" fill="#E7E9E9" transform="translate(0,0)"/>
<path d="" fill="#EAE8EA" transform="translate(0,0)"/>
<path d="" fill="#F0ECED" transform="translate(0,0)"/>
<path d="" fill="#ECEBEC" transform="translate(0,0)"/>
<path d="" fill="#E9EBEC" transform="translate(0,0)"/>
<path d="" fill="#EDEDEE" transform="translate(0,0)"/>
<path d="" fill="#EFEEEE" transform="translate(0,0)"/>
<path d="" fill="#E8E9EB" transform="translate(0,0)"/>
<path d="" fill="#EFEFF0" transform="translate(0,0)"/>
<path d="" fill="#EFEFEE" transform="translate(0,0)"/>
<path d="" fill="#EEECEE" transform="translate(0,0)"/>
<path d="" fill="#F0F2EE" transform="translate(0,0)"/>
<path d="" fill="#EAEAEC" transform="translate(0,0)"/>
<path d="" fill="#F0F1F1" transform="translate(0,0)"/>
<path d="" fill="#F1F1F1" transform="translate(0,0)"/>
<path d="" fill="#E9E9E9" transform="translate(0,0)"/>
<path d="" fill="#E9EAE9" transform="translate(0,0)"/>
<path d="" fill="#F3F2F3" transform="translate(0,0)"/>
<path d="" fill="#EAEAEA" transform="translate(0,0)"/>
<path d="" fill="#EAF0ED" transform="translate(0,0)"/>
<path d="" fill="#ECEEED" transform="translate(0,0)"/>
<path d="" fill="#F2F1F4" transform="translate(0,0)"/>
<path d="" fill="#E9ECEC" transform="translate(0,0)"/>
<path d="" fill="#ECEEED" transform="translate(0,0)"/>
<path d="" fill="#E0DFE0" transform="translate(0,0)"/>
<path d="" fill="#EFEFF0" transform="translate(0,0)"/>
<path d="" fill="#EFEEF0" transform="translate(0,0)"/>
<path d="" fill="#F0F0EF" transform="translate(0,0)"/>
<path d="" fill="#E5E5E5" transform="translate(0,0)"/>
<path d="" fill="#EAEAEB" transform="translate(0,0)"/>
<path d="" fill="#E9EAEA" transform="translate(0,0)"/>
<path d="" fill="#E6E6E6" transform="translate(0,0)"/>
<path d="" fill="#F0F0F1" transform="translate(0,0)"/>
<path d="" fill="#BDBEBE" transform="translate(0,0)"/>
<path d="" fill="#CDCDCD" transform="translate(0,0)"/>
<path d="" fill="#F2F1F4" transform="translate(0,0)"/>
<path d="" fill="#EFF1EF" transform="translate(0,0)"/>
<path d="" fill="#E6E7E8" transform="translate(0,0)"/>
<path d="" fill="#EFF1F2" transform="translate(0,0)"/>
<path d="" fill="#F0EDEE" transform="translate(0,0)"/>
<path d="" fill="#9D9D9E" transform="translate(0,0)"/>
<path d="" fill="#D3D4D5" transform="translate(0,0)"/>
<path d="" fill="#9D9E9E" transform="translate(0,0)"/>
<path d="" fill="#ECEFEC" transform="translate(0,0)"/>
<path d="" fill="#F0F0F1" transform="translate(0,0)"/>
<path d="" fill="#EFEFEE" transform="translate(0,0)"/>
<path d="" fill="#E9E9E9" transform="translate(0,0)"/>
<path d="" fill="#F0F2F1" transform="translate(0,0)"/>
<path d="" fill="#E5E5E4" transform="translate(0,0)"/>
<path d="" fill="#EBEDED" transform="translate(0,0)"/>
<path d="" fill="#E9E9E9" transform="translate(0,0)"/>
<path d="" fill="#EBEAEA" transform="translate(0,0)"/>
<path d="" fill="#E9E8EB" transform="translate(0,0)"/>
<path d="" fill="#EDECED" transform="translate(0,0)"/>
<path d="" fill="#E9ECEA" transform="translate(0,0)"/>
<path d="" fill="#F0F1EF" transform="translate(0,0)"/>
<path d="" fill="#E9EEEC" transform="translate(0,0)"/>
<path d="" fill="#EEF1EF" transform="translate(0,0)"/>
<path d="" fill="#9D9B9C" transform="translate(0,0)"/>
<path d="" fill="#ECEEED" transform="translate(0,0)"/>
<path d="" fill="#E9E9EA" transform="translate(0,0)"/>
<path d="" fill="#EEEFEE" transform="translate(0,0)"/>
<path d="" fill="#EEECEE" transform="translate(0,0)"/>
<path d="" fill="#F2EFEE" transform="translate(0,0)"/>
<path d="" fill="#EFEFF1" transform="translate(0,0)"/>
<path d="" fill="#EDEEF0" transform="translate(0,0)"/>
<path d="" fill="#EBEDEE" transform="translate(0,0)"/>
<path d="" fill="#F1F0F2" transform="translate(0,0)"/>
<path d="" fill="#EDEBEC" transform="translate(0,0)"/>
<path d="" fill="#EEF0F0" transform="translate(0,0)"/>
<path d="" fill="#ECEEEE" transform="translate(0,0)"/>
<path d="" fill="#EEECEE" transform="translate(0,0)"/>
<path d="" fill="#EFF0F0" transform="translate(0,0)"/>
<path d="" fill="#9E9F9E" transform="translate(0,0)"/>
<path d="" fill="#EEF0ED" transform="translate(0,0)"/>
<path d="" fill="#F4F7F5" transform="translate(0,0)"/>
<path d="" fill="#EFEFF1" transform="translate(0,0)"/>
<path d="" fill="#EEF0EE" transform="translate(0,0)"/>
<path d="" fill="#EEEEED" transform="translate(0,0)"/>
<path d="" fill="#ECEBEC" transform="translate(0,0)"/>
<path d="" fill="#EDECED" transform="translate(0,0)"/>
<path d="" fill="#EEEDEC" transform="translate(0,0)"/>
<path d="" fill="#EEECEE" transform="translate(0,0)"/>
<path d="" fill="#F3F2F3" transform="translate(0,0)"/>
<path d="" fill="#EDEDED" transform="translate(0,0)"/>
<path d="" fill="#EEEFEE" transform="translate(0,0)"/>
<path d="" fill="#EEF0EF" transform="translate(0,0)"/>
<path d="" fill="#F3F2F3" transform="translate(0,0)"/>
<path d="" fill="#EFF0F0" transform="translate(0,0)"/>
<path d="" fill="#F0EFEF" transform="translate(0,0)"/>
<path d="" fill="#EFEFEF" transform="translate(0,0)"/>
<path d="" fill="#EEEEF0" transform="translate(0,0)"/>
<path d="" fill="#EEEEEC" transform="translate(0,0)"/>
<path d="" fill="#F0F1EF" transform="translate(0,0)"/>
<path d="" fill="#F3F2F3" transform="translate(0,0)"/>
<path d="" fill="#F0F1F1" transform="translate(0,0)"/>
<path d="" fill="#E8E9E9" transform="translate(0,0)"/>
<path d="" fill="#E6EAE8" transform="translate(0,0)"/>
<path d="" fill="#E8E9E8" transform="translate(0,0)"/>
<path d="" fill="#EDEDED" transform="translate(0,0)"/>
<path d="" fill="#EEECED" transform="translate(0,0)"/>
<path d="" fill="#EEEDEE" transform="translate(0,0)"/>
<path d="" fill="#F2F2F3" transform="translate(0,0)"/>
<path d="" fill="#F0F0F0" transform="translate(0,0)"/>
<path d="" fill="#F2EFEE" transform="translate(0,0)"/>
<path d="" fill="#EFEEF0" transform="translate(0,0)"/>
<path d="" fill="#F0F1F2" transform="translate(0,0)"/>
<path d="" fill="#EDECEC" transform="translate(0,0)"/>
<path d="" fill="#F1F0F0" transform="translate(0,0)"/>
<path d="" fill="#F4F1F2" transform="translate(0,0)"/>
<path d="" fill="#EDEDED" transform="translate(0,0)"/>
<path d="" fill="#EEF0F2" transform="translate(0,0)"/>
<path d="" fill="#F1F1F2" transform="translate(0,0)"/>
<path d="" fill="#989998" transform="translate(0,0)"/>
<path d="" fill="#E7E7E5" transform="translate(0,0)"/>
<path d="" fill="#F7F6F5" transform="translate(0,0)"/>
<path d="" fill="#F8F7F8" transform="translate(0,0)"/>
<path d="" fill="#F2F0F3" transform="translate(0,0)"/>
<path d="" fill="#F1F0F1" transform="translate(0,0)"/>
<path d="" fill="#EFEEEF" transform="translate(0,0)"/>
<path d="" fill="#F5F6F2" transform="translate(0,0)"/>
<path d="" fill="#F2F0F3" transform="translate(0,0)"/>
<path d="" fill="#F3F2F3" transform="translate(0,0)"/>
<path d="" fill="#EEEEED" transform="translate(0,0)"/>
<path d="" fill="#F1F0F0" transform="translate(0,0)"/>
<path d="" fill="#EFEDEF" transform="translate(0,0)"/>
<path d="" fill="#EBEBE9" transform="translate(0,0)"/>
<path d="" fill="#F2F3F2" transform="translate(0,0)"/>
<path d="" fill="#ECECED" transform="translate(0,0)"/>
<path d="" fill="#F5F0F3" transform="translate(0,0)"/>
<path d="" fill="#F0EEEF" transform="translate(0,0)"/>
<path d="" fill="#F0F2F1" transform="translate(0,0)"/>
<path d="" fill="#F1EFEF" transform="translate(0,0)"/>
<path d="" fill="#EFF0F0" transform="translate(0,0)"/>
<path d="" fill="#F0F0EF" transform="translate(0,0)"/>
<path d="" fill="#EFEFF0" transform="translate(0,0)"/>
<path d="" fill="#EFEEEE" transform="translate(0,0)"/>
<path d="" fill="#F0F0F2" transform="translate(0,0)"/>
<path d="" fill="#F1F4F5" transform="translate(0,0)"/>
<path d="" fill="#EEF1F0" transform="translate(0,0)"/>
<path d="" fill="#F3F4F3" transform="translate(0,0)"/>
<path d="" fill="#EEEFF0" transform="translate(0,0)"/>
<path d="" fill="#F4F4F6" transform="translate(0,0)"/>
<path d="" fill="#F1F1F1" transform="translate(0,0)"/>
<path d="" fill="#EAE9E9" transform="translate(0,0)"/>
<path d="" fill="#EFEFEE" transform="translate(0,0)"/>
<path d="" fill="#EDEDEC" transform="translate(0,0)"/>
<path d="" fill="#EDEFEE" transform="translate(0,0)"/>
<path d="" fill="#EEF0EF" transform="translate(0,0)"/>
<path d="" fill="#F0F0EF" transform="translate(0,0)"/>
<path d="" fill="#F2F3F2" transform="translate(0,0)"/>
<path d="" fill="#EEEDED" transform="translate(0,0)"/>
<path d="" fill="#EBEFEE" transform="translate(0,0)"/>
<path d="" fill="#ECEAEB" transform="translate(0,0)"/>
<path d="" fill="#EEECED" transform="translate(0,0)"/>
<path d="" fill="#F4F4F3" transform="translate(0,0)"/>
<path d="" fill="#EEEFEE" transform="translate(0,0)"/>
<path d="" fill="#EEEFF0" transform="translate(0,0)"/>
<path d="" fill="#F5F4F5" transform="translate(0,0)"/>
<path d="" fill="#EAEBEC" transform="translate(0,0)"/>
<path d="" fill="#F2F4F5" transform="translate(0,0)"/>
<path d="" fill="#F0F2EF" transform="translate(0,0)"/>
<path d="" fill="#F1EFEF" transform="translate(0,0)"/>
<path d="" fill="#EEF0F0" transform="translate(0,0)"/>
<path d="" fill="#F1F2F0" transform="translate(0,0)"/>
<path d="" fill="#EBEBEB" transform="translate(0,0)"/>
<path d="" fill="#EFEFEE" transform="translate(0,0)"/>
<path d="" fill="#F6F4F3" transform="translate(0,0)"/>
<path d="" fill="#F4F3F3" transform="translate(0,0)"/>
<path d="" fill="#F0F0F0" transform="translate(0,0)"/>
<path d="" fill="#F2F6F4" transform="translate(0,0)"/>
<path d="" fill="#F0EFF1" transform="translate(0,0)"/>
<path d="" fill="#F3F2F3" transform="translate(0,0)"/>
<path d="" fill="#EEEEF0" transform="translate(0,0)"/>
<path d="" fill="#F0F0EE" transform="translate(0,0)"/>
<path d="" fill="#F4F3F2" transform="translate(0,0)"/>
<path d="" fill="#F0F2F1" transform="translate(0,0)"/>
<path d="" fill="#ECECEB" transform="translate(0,0)"/>
<path d="" fill="#F1F0F2" transform="translate(0,0)"/>
<path d="" fill="#EFEFF0" transform="translate(0,0)"/>
<path d="" fill="#F2F1F1" transform="translate(0,0)"/>
<path d="" fill="#F2F2F1" transform="translate(0,0)"/>
<path d="" fill="#EFF0EE" transform="translate(0,0)"/>
<path d="" fill="#F0F0F1" transform="translate(0,0)"/>
<path d="" fill="#F0EFF1" transform="translate(0,0)"/>
<path d="" fill="#F3F2F2" transform="translate(0,0)"/>
<path d="" fill="#F2EFF2" transform="translate(0,0)"/>
<path d="" fill="#F0F0F1" transform="translate(0,0)"/>
<path d="" fill="#AFB0B0" transform="translate(0,0)"/>
<path d="" fill="#F4F1F1" transform="translate(0,0)"/>
<path d="" fill="#F4F5F6" transform="translate(0,0)"/>
<path d="" fill="#F6F3F5" transform="translate(0,0)"/>
<path d="" fill="#F5F5F6" transform="translate(0,0)"/>
<path d="" fill="#F5F5F5" transform="translate(0,0)"/>
<path d="" fill="#EFF1F0" transform="translate(0,0)"/>
<path d="" fill="#F2F2F2" transform="translate(0,0)"/>
<path d="" fill="#F1F3F0" transform="translate(0,0)"/>
<path d="" fill="#F1F1F4" transform="translate(0,0)"/>
<path d="" fill="#989999" transform="translate(0,0)"/>
<path d="" fill="#F2F1F2" transform="translate(0,0)"/>
<path d="" fill="#9B9C9B" transform="translate(0,0)"/>
<path d="" fill="#F3F0F0" transform="translate(0,0)"/>
<path d="" fill="#F3F3F2" transform="translate(0,0)"/>
<path d="" fill="#EDEDEE" transform="translate(0,0)"/>
<path d="" fill="#EDECEE" transform="translate(0,0)"/>
<path d="" fill="#8F9190" transform="translate(0,0)"/>
<path d="" fill="#F6F7F7" transform="translate(0,0)"/>
<path d="" fill="#F0F0EE" transform="translate(0,0)"/>
<path d="" fill="#EFEDEC" transform="translate(0,0)"/>
<path d="" fill="#F5F7F6" transform="translate(0,0)"/>
<path d="" fill="#EEECED" transform="translate(0,0)"/>
<path d="" fill="#F2F3F2" transform="translate(0,0)"/>
<path d="" fill="#EDEEEE" transform="translate(0,0)"/>
<path d="" fill="#EEEFED" transform="translate(0,0)"/>
<path d="" fill="#EBECEB" transform="translate(0,0)"/>
<path d="" fill="#EDECEB" transform="translate(0,0)"/>
<path d="" fill="#EEECEC" transform="translate(0,0)"/>
<path d="" fill="#F0F3F3" transform="translate(0,0)"/>
<path d="" fill="#8B8D8E" transform="translate(0,0)"/>
<path d="" fill="#F2F1F2" transform="translate(0,0)"/>
<path d="" fill="#F3F1F3" transform="translate(0,0)"/>
<path d="" fill="#F4F2F5" transform="translate(0,0)"/>
<path d="" fill="#F1F2F2" transform="translate(0,0)"/>
<path d="" fill="#F3F2F3" transform="translate(0,0)"/>
<path d="" fill="#F1F1F2" transform="translate(0,0)"/>
<path d="" fill="#E9EAEA" transform="translate(0,0)"/>
<path d="" fill="#EBECEE" transform="translate(0,0)"/>
<path d="" fill="#F3F2F2" transform="translate(0,0)"/>
<path d="" fill="#ECEBEA" transform="translate(0,0)"/>
<path d="" fill="#EDEEEE" transform="translate(0,0)"/>
<path d="" fill="#F3F4F3" transform="translate(0,0)"/>
<path d="" fill="#F2F2F1" transform="translate(0,0)"/>
<path d="" fill="#EEF0EE" transform="translate(0,0)"/>
<path d="" fill="#F0F1F0" transform="translate(0,0)"/>
<path d="" fill="#EEEEEE" transform="translate(0,0)"/>
<path d="" fill="#F3F3F4" transform="translate(0,0)"/>
<path d="" fill="#F0EFF0" transform="translate(0,0)"/>
<path d="" fill="#EEEEEE" transform="translate(0,0)"/>
<path d="" fill="#EDECED" transform="translate(0,0)"/>
<path d="" fill="#EAECEC" transform="translate(0,0)"/>
<path d="" fill="#EFEEEF" transform="translate(0,0)"/>
<path d="" fill="#EFF0F2" transform="translate(0,0)"/>
<path d="" fill="#EDEDEF" transform="translate(0,0)"/>
<path d="" fill="#F0F1F0" transform="translate(0,0)"/>
<path d="" fill="#EAEDEE" transform="translate(0,0)"/>
<path d="" fill="#A0A2A3" transform="translate(0,0)"/>
<path d="" fill="#EEEFED" transform="translate(0,0)"/>
<path d="" fill="#EFEEEF" transform="translate(0,0)"/>
<path d="" fill="#8D908F" transform="translate(0,0)"/>
<path d="" fill="#F2F2F4" transform="translate(0,0)"/>
<path d="" fill="#EBEBEC" transform="translate(0,0)"/>
<path d="" fill="#F0F1F4" transform="translate(0,0)"/>
<path d="" fill="#F0F2F1" transform="translate(0,0)"/>
<path d="" fill="#F0F0F1" transform="translate(0,0)"/>
<path d="" fill="#B1B2B3" transform="translate(0,0)"/>
<path d="" fill="#F2F1F1" transform="translate(0,0)"/>
<path d="" fill="#EFF0F0" transform="translate(0,0)"/>
<path d="" fill="#EDEEEF" transform="translate(0,0)"/>
<path d="" fill="#EFEFF0" transform="translate(0,0)"/>
<path d="" fill="#ECECEE" transform="translate(0,0)"/>
<path d="" fill="#F1F2F0" transform="translate(0,0)"/>
<path d="" fill="#EFEDEE" transform="translate(0,0)"/>
<path d="" fill="#EEF0EF" transform="translate(0,0)"/>
<path d="" fill="#F0F2F2" transform="translate(0,0)"/>
<path d="" fill="#EEECEE" transform="translate(0,0)"/>
<path d="" fill="#E9E7E8" transform="translate(0,0)"/>
<path d="" fill="#878A8A" transform="translate(0,0)"/>
<path d="" fill="#9A9B9C" transform="translate(0,0)"/>
<path d="" fill="#E9E9EA" transform="translate(0,0)"/>
<path d="" fill="#989A97" transform="translate(0,0)"/>
<path d="" fill="#E9E8E8" transform="translate(0,0)"/>
<path d="" fill="#EBEAEA" transform="translate(0,0)"/>
<path d="" fill="#EDECEC" transform="translate(0,0)"/>
<path d="" fill="#EAE9EC" transform="translate(0,0)"/>
<path d="" fill="#ECECEC" transform="translate(0,0)"/>
<path d="" fill="#EAE8E8" transform="translate(0,0)"/>
<path d="" fill="#8A8D8B" transform="translate(0,0)"/>
<path d="" fill="#BDBEBD" transform="translate(0,0)"/>
<path d="" fill="#EAEAEA" transform="translate(0,0)"/>
<path d="" fill="#EDEBE9" transform="translate(0,0)"/>
<path d="" fill="#898A89" transform="translate(0,0)"/>
<path d="" fill="#EEEFEE" transform="translate(0,0)"/>
<path d="" fill="#8C8D8D" transform="translate(0,0)"/>
<path d="" fill="#87898A" transform="translate(0,0)"/>
<path d="" fill="#E7E8E9" transform="translate(0,0)"/>
<path d="" fill="#EAEAE8" transform="translate(0,0)"/>
<path d="" fill="#E8EAEA" transform="translate(0,0)"/>
<path d="" fill="#EFEFF0" transform="translate(0,0)"/>
<path d="" fill="#E5E5E6" transform="translate(0,0)"/>
<path d="" fill="#EAE8EB" transform="translate(0,0)"/>
<path d="" fill="#EBEEED" transform="translate(0,0)"/>
<path d="" fill="#E7E6E5" transform="translate(0,0)"/>
<path d="" fill="#EAEAEB" transform="translate(0,0)"/>
<path d="" fill="#878888" transform="translate(0,0)"/>
<path d="" fill="#878A87" transform="translate(0,0)"/>
<path d="" fill="#E9EBE9" transform="translate(0,0)"/>
<path d="" fill="#E9E9EA" transform="translate(0,0)"/>
<path d="" fill="#E7E8E8" transform="translate(0,0)"/>
<path d="" fill="#E7E9EA" transform="translate(0,0)"/>
<path d="" fill="#EBEAE9" transform="translate(0,0)"/>
<path d="" fill="#EAE9E8" transform="translate(0,0)"/>
<path d="" fill="#E2E3E5" transform="translate(0,0)"/>
<path d="" fill="#E3E4E3" transform="translate(0,0)"/>
<path d="" fill="#DBDADB" transform="translate(0,0)"/>
<path d="" fill="#DCDCDD" transform="translate(0,0)"/>
<path d="" fill="#DADADC" transform="translate(0,0)"/>
<path d="" fill="#868887" transform="translate(0,0)"/>
<path d="" fill="#868687" transform="translate(0,0)"/>
<path d="" fill="#969798" transform="translate(0,0)"/>
<path d="" fill="#8C8E8D" transform="translate(0,0)"/>
<path d="" fill="#868787" transform="translate(0,0)"/>
<path d="" fill="#7F8080" transform="translate(0,0)"/>
<path d="" fill="#828585" transform="translate(0,0)"/>
<path d="" fill="#7E7E7F" transform="translate(0,0)"/>
<path d="" fill="#7F8182" transform="translate(0,0)"/>
<path d="" fill="#7F7F80" transform="translate(0,0)"/>
<path d="" fill="#808080" transform="translate(0,0)"/>
<path d="" fill="#838685" transform="translate(0,0)"/>
<path d="" fill="#9D9EA0" transform="translate(0,0)"/>
<path d="" fill="#7A7A7A" transform="translate(0,0)"/>
<path d="" fill="#8A8C8D" transform="translate(0,0)"/>
<path d="" fill="#838484" transform="translate(0,0)"/>
<path d="" fill="#7E807E" transform="translate(0,0)"/>
<path d="" fill="#808182" transform="translate(0,0)"/>
<path d="" fill="#979899" transform="translate(0,0)"/>
<path d="" fill="#929492" transform="translate(0,0)"/>
<path d="" fill="#969797" transform="translate(0,0)"/>
<path d="" fill="#787B7C" transform="translate(0,0)"/>
<path d="" fill="#7C7D7E" transform="translate(0,0)"/>
<path d="" fill="#939495" transform="translate(0,0)"/>
<path d="" fill="#898A8B" transform="translate(0,0)"/>
<path d="" fill="#7B7C7C" transform="translate(0,0)"/>
<path d="" fill="#808381" transform="translate(0,0)"/>
<path d="" fill="#7B7E7E" transform="translate(0,0)"/>
<path d="" fill="#767877" transform="translate(0,0)"/>
<path d="" fill="#8C8C8C" transform="translate(0,0)"/>
<path d="" fill="#767979" transform="translate(0,0)"/>
<path d="" fill="#757878" transform="translate(0,0)"/>
<path d="" fill="#7B7D7D" transform="translate(0,0)"/>
<path d="" fill="#888988" transform="translate(0,0)"/>
<path d="" fill="#757777" transform="translate(0,0)"/>
<path d="" fill="#777778" transform="translate(0,0)"/>
<path d="" fill="#7C7C7D" transform="translate(0,0)"/>
<path d="" fill="#767878" transform="translate(0,0)"/>
<path d="" fill="#868688" transform="translate(0,0)"/>
<path d="" fill="#747676" transform="translate(0,0)"/>
<path d="" fill="#787979" transform="translate(0,0)"/>
<path d="" fill="#797A79" transform="translate(0,0)"/>
<path d="" fill="#7A7B7B" transform="translate(0,0)"/>
<path d="" fill="#7C7C7D" transform="translate(0,0)"/>
<path d="" fill="#808283" transform="translate(0,0)"/>
<path d="" fill="#858485" transform="translate(0,0)"/>
<path d="" fill="#878688" transform="translate(0,0)"/>
<path d="" fill="#828384" transform="translate(0,0)"/>
<path d="" fill="#808081" transform="translate(0,0)"/>
<path d="" fill="#777877" transform="translate(0,0)"/>
<path d="" fill="#757575" transform="translate(0,0)"/>
<path d="" fill="#7A7A7B" transform="translate(0,0)"/>
<path d="" fill="#7B7F7D" transform="translate(0,0)"/>
<path d="" fill="#828281" transform="translate(0,0)"/>
<path d="" fill="#828484" transform="translate(0,0)"/>
<path d="" fill="#838585" transform="translate(0,0)"/>
<path d="" fill="#787879" transform="translate(0,0)"/>
<path d="" fill="#818383" transform="translate(0,0)"/>
<path d="" fill="#7E7E80" transform="translate(0,0)"/>
<path d="" fill="#777677" transform="translate(0,0)"/>
<path d="" fill="#777878" transform="translate(0,0)"/>
<path d="" fill="#7B7B79" transform="translate(0,0)"/>
<path d="" fill="#777B7A" transform="translate(0,0)"/>
<path d="" fill="#7D7E7F" transform="translate(0,0)"/>
<path d="" fill="#828385" transform="translate(0,0)"/>
<path d="" fill="#828383" transform="translate(0,0)"/>
<path d="" fill="#838383" transform="translate(0,0)"/>
<path d="" fill="#7D7D7D" transform="translate(0,0)"/>
<path d="" fill="#797A7D" transform="translate(0,0)"/>
<path d="" fill="#787878" transform="translate(0,0)"/>
<path d="" fill="#818281" transform="translate(0,0)"/>
<path d="" fill="#727676" transform="translate(0,0)"/>
<path d="" fill="#777A7A" transform="translate(0,0)"/>
<path d="" fill="#7D7E7F" transform="translate(0,0)"/>
<path d="" fill="#828384" transform="translate(0,0)"/>
<path d="" fill="#838484" transform="translate(0,0)"/>
<path d="" fill="#757776" transform="translate(0,0)"/>
<path d="" fill="#747677" transform="translate(0,0)"/>
<path d="" fill="#7F8182" transform="translate(0,0)"/>
<path d="" fill="#828383" transform="translate(0,0)"/>
<path d="" fill="#757676" transform="translate(0,0)"/>
<path d="" fill="#747575" transform="translate(0,0)"/>
<path d="" fill="#747676" transform="translate(0,0)"/>
<path d="" fill="#777878" transform="translate(0,0)"/>
<path d="" fill="#79797A" transform="translate(0,0)"/>
<path d="" fill="#7A7B7B" transform="translate(0,0)"/>
<path d="" fill="#7B7E7C" transform="translate(0,0)"/>
<path d="" fill="#7F8080" transform="translate(0,0)"/>
<path d="" fill="#7F8180" transform="translate(0,0)"/>
<path d="" fill="#818183" transform="translate(0,0)"/>
<path d="" fill="#818382" transform="translate(0,0)"/>
<path d="" fill="#7D7E7E" transform="translate(0,0)"/>
<path d="" fill="#7E7F7F" transform="translate(0,0)"/>
<path d="" fill="#7C7F7E" transform="translate(0,0)"/>
<path d="" fill="#7B7D7D" transform="translate(0,0)"/>
<path d="" fill="#7A7C7B" transform="translate(0,0)"/>
<path d="" fill="#747576" transform="translate(0,0)"/>
<path d="" fill="#767876" transform="translate(0,0)"/>
<path d="" fill="#7E8080" transform="translate(0,0)"/>
<path d="" fill="#808282" transform="translate(0,0)"/>
<path d="" fill="#828383" transform="translate(0,0)"/>
<path d="" fill="#7D7F80" transform="translate(0,0)"/>
<path d="" fill="#787978" transform="translate(0,0)"/>
</svg>
